<?xml version="1.0" encoding="utf-8" standalone="no"?>
<!DOCTYPE svg PUBLIC "-//W3C//DTD SVG 1.1//EN"
  "http://www.w3.org/Graphics/SVG/1.1/DTD/svg11.dtd">
<!-- Created with matplotlib (https://matplotlib.org/) -->
<svg height="601.92pt" version="1.1" viewBox="0 0 1025.28 601.92" width="1025.28pt" xmlns="http://www.w3.org/2000/svg" xmlns:xlink="http://www.w3.org/1999/xlink">
 <defs>
  <style type="text/css">
*{stroke-linecap:butt;stroke-linejoin:round;}
  </style>
 </defs>
 <g id="figure_1">
  <g id="patch_1">
   <path d="M 0 601.92 
L 1025.28 601.92 
L 1025.28 0 
L 0 0 
z
" style="fill:none;"/>
  </g>
  <g id="axes_1">
   <g id="patch_2">
    <path clip-path="url(#p5eab142ac5)" d="M 496.44 163.26 
L 493.2 157.14 
L 496.4238 157.14 
L 496.4238 154.08 
L 496.4562 154.08 
L 496.4562 157.14 
L 499.68 157.14 
z
" style="stroke:#000000;stroke-linejoin:miter;stroke-width:2;"/>
   </g>
   <g id="patch_3">
    <path clip-path="url(#p5eab142ac5)" d="M 593.64 117.36 
L 587.16 120.42 
L 587.16 117.3753 
L 583.92 117.3753 
L 583.92 117.3447 
L 587.16 117.3447 
L 587.16 114.3 
z
" style="stroke:#000000;stroke-linejoin:miter;stroke-width:2;"/>
   </g>
   <g id="patch_4">
    <path clip-path="url(#p5eab142ac5)" d="M 107.64 346.86 
L 104.4 340.74 
L 107.6238 340.74 
L 107.6238 337.68 
L 107.6562 337.68 
L 107.6562 340.74 
L 110.88 340.74 
z
" style="stroke:#000000;stroke-linejoin:miter;stroke-width:2;"/>
   </g>
   <g id="patch_5">
    <path clip-path="url(#p5eab142ac5)" d="M 302.04 346.86 
L 295.56 349.92 
L 295.56 346.8753 
L 292.32 346.8753 
L 292.32 346.8447 
L 295.56 346.8447 
L 295.56 343.8 
z
" style="stroke:#000000;stroke-linejoin:miter;stroke-width:2;"/>
   </g>
   <g id="patch_6">
    <path clip-path="url(#p5eab142ac5)" d="M 269.64 438.66 
L 266.4 432.54 
L 269.6238 432.54 
L 269.6238 429.48 
L 269.6562 429.48 
L 269.6562 432.54 
L 272.88 432.54 
z
" style="stroke:#000000;stroke-linejoin:miter;stroke-width:2;"/>
   </g>
   <g id="patch_7">
    <path clip-path="url(#p5eab142ac5)" d="M 528.84 331.56 
L 522.36 334.62 
L 522.36 331.5753 
L 519.12 331.5753 
L 519.12 331.5447 
L 522.36 331.5447 
L 522.36 328.5 
z
" style="stroke:#000000;stroke-linejoin:miter;stroke-width:2;"/>
   </g>
   <g id="patch_8">
    <path clip-path="url(#p5eab142ac5)" d="M 496.44 408.06 
L 493.2 401.94 
L 496.4238 401.94 
L 496.4238 398.88 
L 496.4562 398.88 
L 496.4562 401.94 
L 499.68 401.94 
z
" style="stroke:#000000;stroke-linejoin:miter;stroke-width:2;"/>
   </g>
   <g id="patch_9">
    <path clip-path="url(#p5eab142ac5)" d="M 723.24 300.96 
L 716.76 304.02 
L 716.76 300.9753 
L 713.52 300.9753 
L 713.52 300.9447 
L 716.76 300.9447 
L 716.76 297.9 
z
" style="stroke:#000000;stroke-linejoin:miter;stroke-width:2;"/>
   </g>
   <g id="patch_10">
    <path clip-path="url(#p5eab142ac5)" d="M 690.84 346.86 
L 687.6 340.74 
L 690.8238 340.74 
L 690.8238 337.68 
L 690.8562 337.68 
L 690.8562 340.74 
L 694.08 340.74 
z
" style="stroke:#000000;stroke-linejoin:miter;stroke-width:2;"/>
   </g>
   <g id="patch_11">
    <path clip-path="url(#p5eab142ac5)" d="M 723.24 484.56 
L 716.76 487.62 
L 716.76 484.5753 
L 713.52 484.5753 
L 713.52 484.5447 
L 716.76 484.5447 
L 716.76 481.5 
z
" style="stroke:#000000;stroke-linejoin:miter;stroke-width:2;"/>
   </g>
   <g id="patch_12">
    <path clip-path="url(#p5eab142ac5)" d="M 690.84 530.46 
L 687.6 524.34 
L 690.8238 524.34 
L 690.8238 521.28 
L 690.8562 521.28 
L 690.8562 524.34 
L 694.08 524.34 
z
" style="stroke:#000000;stroke-linejoin:miter;stroke-width:2;"/>
   </g>
   <g id="patch_13">
    <path clip-path="url(#p5eab142ac5)" d="M 917.64 316.26 
L 911.16 319.32 
L 911.16 316.2753 
L 907.92 316.2753 
L 907.92 316.2447 
L 911.16 316.2447 
L 911.16 313.2 
z
" style="stroke:#000000;stroke-linejoin:miter;stroke-width:2;"/>
   </g>
   <g id="patch_14">
    <path clip-path="url(#p5eab142ac5)" d="M 885.24 377.46 
L 882 371.34 
L 885.2238 371.34 
L 885.2238 368.28 
L 885.2562 368.28 
L 885.2562 371.34 
L 888.48 371.34 
z
" style="stroke:#000000;stroke-linejoin:miter;stroke-width:2;"/>
   </g>
   <g id="patch_15">
    <path clip-path="url(#p5eab142ac5)" d="M 917.64 469.26 
L 911.16 472.32 
L 911.16 469.2753 
L 907.92 469.2753 
L 907.92 469.2447 
L 911.16 469.2447 
L 911.16 466.2 
z
" style="stroke:#000000;stroke-linejoin:miter;stroke-width:2;"/>
   </g>
   <g id="patch_16">
    <path clip-path="url(#p5eab142ac5)" d="M 885.24 530.46 
L 882 524.34 
L 885.2238 524.34 
L 885.2238 521.28 
L 885.2562 521.28 
L 885.2562 524.34 
L 888.48 524.34 
z
" style="stroke:#000000;stroke-linejoin:miter;stroke-width:2;"/>
   </g>
   <g id="line2d_1">
    <path clip-path="url(#p5eab142ac5)" d="M 496.44 10.26 
L 658.44 10.26 
L 658.44 71.46 
L 334.44 71.46 
L 334.44 10.26 
L 496.44 10.26 
" style="fill:none;stroke:#000000;stroke-linecap:round;stroke-width:2;"/>
   </g>
   <g id="line2d_2">
    <path clip-path="url(#p5eab142ac5)" d="M 496.44 71.46 
L 496.44 117.36 
L 496.44 163.26 
" style="fill:none;stroke:#000000;stroke-linecap:round;stroke-width:2;"/>
   </g>
   <g id="line2d_3">
    <path clip-path="url(#p5eab142ac5)" d="M 496.44 117.36 
L 545.04 117.36 
L 593.64 117.36 
" style="fill:none;stroke:#000000;stroke-linecap:round;stroke-width:2;"/>
   </g>
   <g id="line2d_4">
    <path clip-path="url(#p5eab142ac5)" d="M 674.64 86.76 
L 755.64 86.76 
L 755.64 147.96 
L 593.64 147.96 
L 593.64 86.76 
L 674.64 86.76 
" style="fill:none;stroke:#000000;stroke-linecap:round;stroke-width:2;"/>
   </g>
   <g id="line2d_5">
    <path clip-path="url(#p5eab142ac5)" d="M 496.44 163.26 
L 982.44 163.26 
L 982.44 193.86 
L 10.44 193.86 
L 10.44 163.26 
L 496.44 163.26 
" style="fill:none;stroke:#000000;stroke-linecap:round;stroke-width:2;"/>
   </g>
   <g id="line2d_6">
    <path clip-path="url(#p5eab142ac5)" d="M 107.64 193.86 
L 107.64 209.16 
L 107.64 224.46 
" style="fill:none;stroke:#000000;stroke-linecap:round;stroke-width:2;"/>
   </g>
   <g id="line2d_7">
    <path clip-path="url(#p5eab142ac5)" d="M 107.64 224.46 
L 172.44 224.46 
L 172.44 285.66 
L 42.84 285.66 
L 42.84 224.46 
L 107.64 224.46 
" style="fill:none;stroke:#000000;stroke-linecap:round;stroke-width:2;"/>
   </g>
   <g id="line2d_8">
    <path clip-path="url(#p5eab142ac5)" d="M 107.64 285.66 
L 107.64 316.26 
L 107.64 346.86 
" style="fill:none;stroke:#000000;stroke-linecap:round;stroke-width:2;"/>
   </g>
   <g id="line2d_9">
    <path clip-path="url(#p5eab142ac5)" d="M 107.64 346.86 
L 180.54 346.86 
L 180.54 408.06 
L 34.74 408.06 
L 34.74 346.86 
L 107.64 346.86 
" style="fill:none;stroke:#000000;stroke-linecap:round;stroke-width:2;"/>
   </g>
   <g id="line2d_10">
    <path clip-path="url(#p5eab142ac5)" d="M 269.64 193.86 
L 269.64 209.16 
L 269.64 224.46 
" style="fill:none;stroke:#000000;stroke-linecap:round;stroke-width:2;"/>
   </g>
   <g id="line2d_11">
    <path clip-path="url(#p5eab142ac5)" d="M 269.64 224.46 
L 318.24 224.46 
L 318.24 255.06 
L 221.04 255.06 
L 221.04 224.46 
L 269.64 224.46 
" style="fill:none;stroke:#000000;stroke-linecap:round;stroke-width:2;"/>
   </g>
   <g id="line2d_12">
    <path clip-path="url(#p5eab142ac5)" d="M 269.64 255.06 
L 269.64 300.96 
L 269.64 346.86 
" style="fill:none;stroke:#000000;stroke-linecap:round;stroke-width:2;"/>
   </g>
   <g id="line2d_13">
    <path clip-path="url(#p5eab142ac5)" d="M 269.64 346.86 
L 285.84 346.86 
L 302.04 346.86 
" style="fill:none;stroke:#000000;stroke-linecap:round;stroke-width:2;"/>
   </g>
   <g id="line2d_14">
    <path clip-path="url(#p5eab142ac5)" d="M 350.64 300.96 
L 399.24 300.96 
L 399.24 392.76 
L 302.04 392.76 
L 302.04 300.96 
L 350.64 300.96 
" style="fill:none;stroke:#000000;stroke-linecap:round;stroke-width:2;"/>
   </g>
   <g id="line2d_15">
    <path clip-path="url(#p5eab142ac5)" d="M 269.64 346.86 
L 269.64 392.76 
L 269.64 438.66 
" style="fill:none;stroke:#000000;stroke-linecap:round;stroke-width:2;"/>
   </g>
   <g id="line2d_16">
    <path clip-path="url(#p5eab142ac5)" d="M 269.64 438.66 
L 342.54 438.66 
L 342.54 499.86 
L 196.74 499.86 
L 196.74 438.66 
L 269.64 438.66 
" style="fill:none;stroke:#000000;stroke-linecap:round;stroke-width:2;"/>
   </g>
   <g id="line2d_17">
    <path clip-path="url(#p5eab142ac5)" d="M 496.44 193.86 
L 496.44 209.16 
L 496.44 224.46 
" style="fill:none;stroke:#000000;stroke-linecap:round;stroke-width:2;"/>
   </g>
   <g id="line2d_18">
    <path clip-path="url(#p5eab142ac5)" d="M 496.44 224.46 
L 545.04 224.46 
L 545.04 270.36 
L 447.84 270.36 
L 447.84 224.46 
L 496.44 224.46 
" style="fill:none;stroke:#000000;stroke-linecap:round;stroke-width:2;"/>
   </g>
   <g id="line2d_19">
    <path clip-path="url(#p5eab142ac5)" d="M 496.44 270.36 
L 496.44 300.96 
L 496.44 331.56 
" style="fill:none;stroke:#000000;stroke-linecap:round;stroke-width:2;"/>
   </g>
   <g id="line2d_20">
    <path clip-path="url(#p5eab142ac5)" d="M 496.44 331.56 
L 512.64 331.56 
L 528.84 331.56 
" style="fill:none;stroke:#000000;stroke-linecap:round;stroke-width:2;"/>
   </g>
   <g id="line2d_21">
    <path clip-path="url(#p5eab142ac5)" d="M 577.44 308.61 
L 626.04 308.61 
L 626.04 354.51 
L 528.84 354.51 
L 528.84 308.61 
L 577.44 308.61 
" style="fill:none;stroke:#000000;stroke-linecap:round;stroke-width:2;"/>
   </g>
   <g id="line2d_22">
    <path clip-path="url(#p5eab142ac5)" d="M 496.44 331.56 
L 496.44 369.81 
L 496.44 408.06 
" style="fill:none;stroke:#000000;stroke-linecap:round;stroke-width:2;"/>
   </g>
   <g id="line2d_23">
    <path clip-path="url(#p5eab142ac5)" d="M 496.44 408.06 
L 569.34 408.06 
L 569.34 469.26 
L 423.54 469.26 
L 423.54 408.06 
L 496.44 408.06 
" style="fill:none;stroke:#000000;stroke-linecap:round;stroke-width:2;"/>
   </g>
   <g id="line2d_24">
    <path clip-path="url(#p5eab142ac5)" d="M 690.84 193.86 
L 690.84 209.16 
L 690.84 224.46 
" style="fill:none;stroke:#000000;stroke-linecap:round;stroke-width:2;"/>
   </g>
   <g id="line2d_25">
    <path clip-path="url(#p5eab142ac5)" d="M 690.84 224.46 
L 739.44 224.46 
L 739.44 255.06 
L 642.24 255.06 
L 642.24 224.46 
L 690.84 224.46 
" style="fill:none;stroke:#000000;stroke-linecap:round;stroke-width:2;"/>
   </g>
   <g id="line2d_26">
    <path clip-path="url(#p5eab142ac5)" d="M 690.84 255.06 
L 690.84 278.01 
L 690.84 300.96 
" style="fill:none;stroke:#000000;stroke-linecap:round;stroke-width:2;"/>
   </g>
   <g id="line2d_27">
    <path clip-path="url(#p5eab142ac5)" d="M 690.84 300.96 
L 707.04 300.96 
L 723.24 300.96 
" style="fill:none;stroke:#000000;stroke-linecap:round;stroke-width:2;"/>
   </g>
   <g id="line2d_28">
    <path clip-path="url(#p5eab142ac5)" d="M 771.84 270.36 
L 820.44 270.36 
L 820.44 331.56 
L 723.24 331.56 
L 723.24 270.36 
L 771.84 270.36 
" style="fill:none;stroke:#000000;stroke-linecap:round;stroke-width:2;"/>
   </g>
   <g id="line2d_29">
    <path clip-path="url(#p5eab142ac5)" d="M 690.84 300.96 
L 690.84 323.91 
L 690.84 346.86 
" style="fill:none;stroke:#000000;stroke-linecap:round;stroke-width:2;"/>
   </g>
   <g id="line2d_30">
    <path clip-path="url(#p5eab142ac5)" d="M 690.84 346.86 
L 739.44 346.86 
L 739.44 438.66 
L 642.24 438.66 
L 642.24 346.86 
L 690.84 346.86 
" style="fill:none;stroke:#000000;stroke-linecap:round;stroke-width:2;"/>
   </g>
   <g id="line2d_31">
    <path clip-path="url(#p5eab142ac5)" d="M 690.84 438.66 
L 690.84 461.61 
L 690.84 484.56 
" style="fill:none;stroke:#000000;stroke-linecap:round;stroke-width:2;"/>
   </g>
   <g id="line2d_32">
    <path clip-path="url(#p5eab142ac5)" d="M 690.84 484.56 
L 707.04 484.56 
L 723.24 484.56 
" style="fill:none;stroke:#000000;stroke-linecap:round;stroke-width:2;"/>
   </g>
   <g id="line2d_33">
    <path clip-path="url(#p5eab142ac5)" d="M 763.74 461.61 
L 804.24 461.61 
L 804.24 507.51 
L 723.24 507.51 
L 723.24 461.61 
L 763.74 461.61 
" style="fill:none;stroke:#000000;stroke-linecap:round;stroke-width:2;"/>
   </g>
   <g id="line2d_34">
    <path clip-path="url(#p5eab142ac5)" d="M 690.84 484.56 
L 690.84 507.51 
L 690.84 530.46 
" style="fill:none;stroke:#000000;stroke-linecap:round;stroke-width:2;"/>
   </g>
   <g id="line2d_35">
    <path clip-path="url(#p5eab142ac5)" d="M 690.84 530.46 
L 739.44 530.46 
L 739.44 591.66 
L 642.24 591.66 
L 642.24 530.46 
L 690.84 530.46 
" style="fill:none;stroke:#000000;stroke-linecap:round;stroke-width:2;"/>
   </g>
   <g id="line2d_36">
    <path clip-path="url(#p5eab142ac5)" d="M 885.24 193.86 
L 885.24 209.16 
L 885.24 224.46 
" style="fill:none;stroke:#000000;stroke-linecap:round;stroke-width:2;"/>
   </g>
   <g id="line2d_37">
    <path clip-path="url(#p5eab142ac5)" d="M 885.24 224.46 
L 933.84 224.46 
L 933.84 270.36 
L 836.64 270.36 
L 836.64 224.46 
L 885.24 224.46 
" style="fill:none;stroke:#000000;stroke-linecap:round;stroke-width:2;"/>
   </g>
   <g id="line2d_38">
    <path clip-path="url(#p5eab142ac5)" d="M 885.24 270.36 
L 885.24 293.31 
L 885.24 316.26 
" style="fill:none;stroke:#000000;stroke-linecap:round;stroke-width:2;"/>
   </g>
   <g id="line2d_39">
    <path clip-path="url(#p5eab142ac5)" d="M 885.24 316.26 
L 901.44 316.26 
L 917.64 316.26 
" style="fill:none;stroke:#000000;stroke-linecap:round;stroke-width:2;"/>
   </g>
   <g id="line2d_40">
    <path clip-path="url(#p5eab142ac5)" d="M 966.24 293.31 
L 1014.84 293.31 
L 1014.84 339.21 
L 917.64 339.21 
L 917.64 293.31 
L 966.24 293.31 
" style="fill:none;stroke:#000000;stroke-linecap:round;stroke-width:2;"/>
   </g>
   <g id="line2d_41">
    <path clip-path="url(#p5eab142ac5)" d="M 885.24 316.26 
L 885.24 346.86 
L 885.24 377.46 
" style="fill:none;stroke:#000000;stroke-linecap:round;stroke-width:2;"/>
   </g>
   <g id="line2d_42">
    <path clip-path="url(#p5eab142ac5)" d="M 885.24 377.46 
L 933.84 377.46 
L 933.84 423.36 
L 836.64 423.36 
L 836.64 377.46 
L 885.24 377.46 
" style="fill:none;stroke:#000000;stroke-linecap:round;stroke-width:2;"/>
   </g>
   <g id="line2d_43">
    <path clip-path="url(#p5eab142ac5)" d="M 885.24 423.36 
L 885.24 446.31 
L 885.24 469.26 
" style="fill:none;stroke:#000000;stroke-linecap:round;stroke-width:2;"/>
   </g>
   <g id="line2d_44">
    <path clip-path="url(#p5eab142ac5)" d="M 885.24 469.26 
L 901.44 469.26 
L 917.64 469.26 
" style="fill:none;stroke:#000000;stroke-linecap:round;stroke-width:2;"/>
   </g>
   <g id="line2d_45">
    <path clip-path="url(#p5eab142ac5)" d="M 966.24 438.66 
L 1014.84 438.66 
L 1014.84 499.86 
L 917.64 499.86 
L 917.64 438.66 
L 966.24 438.66 
" style="fill:none;stroke:#000000;stroke-linecap:round;stroke-width:2;"/>
   </g>
   <g id="line2d_46">
    <path clip-path="url(#p5eab142ac5)" d="M 885.24 469.26 
L 885.24 499.86 
L 885.24 530.46 
" style="fill:none;stroke:#000000;stroke-linecap:round;stroke-width:2;"/>
   </g>
   <g id="line2d_47">
    <path clip-path="url(#p5eab142ac5)" d="M 885.24 530.46 
L 941.94 530.46 
L 941.94 591.66 
L 828.54 591.66 
L 828.54 530.46 
L 885.24 530.46 
" style="fill:none;stroke:#000000;stroke-linecap:round;stroke-width:2;"/>
   </g>
   <g id="text_1">
    <!-- Registered Trials on ClinicalTrials.gov -->
    <defs>
     <path d="M 44.390625 34.1875 
Q 47.5625 33.109375 50.5625 29.59375 
Q 53.5625 26.078125 56.59375 19.921875 
L 66.609375 0 
L 56 0 
L 46.6875 18.703125 
Q 43.0625 26.03125 39.671875 28.421875 
Q 36.28125 30.8125 30.421875 30.8125 
L 19.671875 30.8125 
L 19.671875 0 
L 9.8125 0 
L 9.8125 72.90625 
L 32.078125 72.90625 
Q 44.578125 72.90625 50.734375 67.671875 
Q 56.890625 62.453125 56.890625 51.90625 
Q 56.890625 45.015625 53.6875 40.46875 
Q 50.484375 35.9375 44.390625 34.1875 
z
M 19.671875 64.796875 
L 19.671875 38.921875 
L 32.078125 38.921875 
Q 39.203125 38.921875 42.84375 42.21875 
Q 46.484375 45.515625 46.484375 51.90625 
Q 46.484375 58.296875 42.84375 61.546875 
Q 39.203125 64.796875 32.078125 64.796875 
z
" id="DejaVuSans-82"/>
     <path d="M 56.203125 29.59375 
L 56.203125 25.203125 
L 14.890625 25.203125 
Q 15.484375 15.921875 20.484375 11.0625 
Q 25.484375 6.203125 34.421875 6.203125 
Q 39.59375 6.203125 44.453125 7.46875 
Q 49.3125 8.734375 54.109375 11.28125 
L 54.109375 2.78125 
Q 49.265625 0.734375 44.1875 -0.34375 
Q 39.109375 -1.421875 33.890625 -1.421875 
Q 20.796875 -1.421875 13.15625 6.1875 
Q 5.515625 13.8125 5.515625 26.8125 
Q 5.515625 40.234375 12.765625 48.109375 
Q 20.015625 56 32.328125 56 
Q 43.359375 56 49.78125 48.890625 
Q 56.203125 41.796875 56.203125 29.59375 
z
M 47.21875 32.234375 
Q 47.125 39.59375 43.09375 43.984375 
Q 39.0625 48.390625 32.421875 48.390625 
Q 24.90625 48.390625 20.390625 44.140625 
Q 15.875 39.890625 15.1875 32.171875 
z
" id="DejaVuSans-101"/>
     <path d="M 45.40625 27.984375 
Q 45.40625 37.75 41.375 43.109375 
Q 37.359375 48.484375 30.078125 48.484375 
Q 22.859375 48.484375 18.828125 43.109375 
Q 14.796875 37.75 14.796875 27.984375 
Q 14.796875 18.265625 18.828125 12.890625 
Q 22.859375 7.515625 30.078125 7.515625 
Q 37.359375 7.515625 41.375 12.890625 
Q 45.40625 18.265625 45.40625 27.984375 
z
M 54.390625 6.78125 
Q 54.390625 -7.171875 48.1875 -13.984375 
Q 42 -20.796875 29.203125 -20.796875 
Q 24.46875 -20.796875 20.265625 -20.09375 
Q 16.0625 -19.390625 12.109375 -17.921875 
L 12.109375 -9.1875 
Q 16.0625 -11.328125 19.921875 -12.34375 
Q 23.78125 -13.375 27.78125 -13.375 
Q 36.625 -13.375 41.015625 -8.765625 
Q 45.40625 -4.15625 45.40625 5.171875 
L 45.40625 9.625 
Q 42.625 4.78125 38.28125 2.390625 
Q 33.9375 0 27.875 0 
Q 17.828125 0 11.671875 7.65625 
Q 5.515625 15.328125 5.515625 27.984375 
Q 5.515625 40.671875 11.671875 48.328125 
Q 17.828125 56 27.875 56 
Q 33.9375 56 38.28125 53.609375 
Q 42.625 51.21875 45.40625 46.390625 
L 45.40625 54.6875 
L 54.390625 54.6875 
z
" id="DejaVuSans-103"/>
     <path d="M 9.421875 54.6875 
L 18.40625 54.6875 
L 18.40625 0 
L 9.421875 0 
z
M 9.421875 75.984375 
L 18.40625 75.984375 
L 18.40625 64.59375 
L 9.421875 64.59375 
z
" id="DejaVuSans-105"/>
     <path d="M 44.28125 53.078125 
L 44.28125 44.578125 
Q 40.484375 46.53125 36.375 47.5 
Q 32.28125 48.484375 27.875 48.484375 
Q 21.1875 48.484375 17.84375 46.4375 
Q 14.5 44.390625 14.5 40.28125 
Q 14.5 37.15625 16.890625 35.375 
Q 19.28125 33.59375 26.515625 31.984375 
L 29.59375 31.296875 
Q 39.15625 29.25 43.1875 25.515625 
Q 47.21875 21.78125 47.21875 15.09375 
Q 47.21875 7.46875 41.1875 3.015625 
Q 35.15625 -1.421875 24.609375 -1.421875 
Q 20.21875 -1.421875 15.453125 -0.5625 
Q 10.6875 0.296875 5.421875 2 
L 5.421875 11.28125 
Q 10.40625 8.6875 15.234375 7.390625 
Q 20.0625 6.109375 24.8125 6.109375 
Q 31.15625 6.109375 34.5625 8.28125 
Q 37.984375 10.453125 37.984375 14.40625 
Q 37.984375 18.0625 35.515625 20.015625 
Q 33.0625 21.96875 24.703125 23.78125 
L 21.578125 24.515625 
Q 13.234375 26.265625 9.515625 29.90625 
Q 5.8125 33.546875 5.8125 39.890625 
Q 5.8125 47.609375 11.28125 51.796875 
Q 16.75 56 26.8125 56 
Q 31.78125 56 36.171875 55.265625 
Q 40.578125 54.546875 44.28125 53.078125 
z
" id="DejaVuSans-115"/>
     <path d="M 18.3125 70.21875 
L 18.3125 54.6875 
L 36.8125 54.6875 
L 36.8125 47.703125 
L 18.3125 47.703125 
L 18.3125 18.015625 
Q 18.3125 11.328125 20.140625 9.421875 
Q 21.96875 7.515625 27.59375 7.515625 
L 36.8125 7.515625 
L 36.8125 0 
L 27.59375 0 
Q 17.1875 0 13.234375 3.875 
Q 9.28125 7.765625 9.28125 18.015625 
L 9.28125 47.703125 
L 2.6875 47.703125 
L 2.6875 54.6875 
L 9.28125 54.6875 
L 9.28125 70.21875 
z
" id="DejaVuSans-116"/>
     <path d="M 41.109375 46.296875 
Q 39.59375 47.171875 37.8125 47.578125 
Q 36.03125 48 33.890625 48 
Q 26.265625 48 22.1875 43.046875 
Q 18.109375 38.09375 18.109375 28.8125 
L 18.109375 0 
L 9.078125 0 
L 9.078125 54.6875 
L 18.109375 54.6875 
L 18.109375 46.1875 
Q 20.953125 51.171875 25.484375 53.578125 
Q 30.03125 56 36.53125 56 
Q 37.453125 56 38.578125 55.875 
Q 39.703125 55.765625 41.0625 55.515625 
z
" id="DejaVuSans-114"/>
     <path d="M 45.40625 46.390625 
L 45.40625 75.984375 
L 54.390625 75.984375 
L 54.390625 0 
L 45.40625 0 
L 45.40625 8.203125 
Q 42.578125 3.328125 38.25 0.953125 
Q 33.9375 -1.421875 27.875 -1.421875 
Q 17.96875 -1.421875 11.734375 6.484375 
Q 5.515625 14.40625 5.515625 27.296875 
Q 5.515625 40.1875 11.734375 48.09375 
Q 17.96875 56 27.875 56 
Q 33.9375 56 38.25 53.625 
Q 42.578125 51.265625 45.40625 46.390625 
z
M 14.796875 27.296875 
Q 14.796875 17.390625 18.875 11.75 
Q 22.953125 6.109375 30.078125 6.109375 
Q 37.203125 6.109375 41.296875 11.75 
Q 45.40625 17.390625 45.40625 27.296875 
Q 45.40625 37.203125 41.296875 42.84375 
Q 37.203125 48.484375 30.078125 48.484375 
Q 22.953125 48.484375 18.875 42.84375 
Q 14.796875 37.203125 14.796875 27.296875 
z
" id="DejaVuSans-100"/>
     <path id="DejaVuSans-32"/>
     <path d="M -0.296875 72.90625 
L 61.375 72.90625 
L 61.375 64.59375 
L 35.5 64.59375 
L 35.5 0 
L 25.59375 0 
L 25.59375 64.59375 
L -0.296875 64.59375 
z
" id="DejaVuSans-84"/>
     <path d="M 34.28125 27.484375 
Q 23.390625 27.484375 19.1875 25 
Q 14.984375 22.515625 14.984375 16.5 
Q 14.984375 11.71875 18.140625 8.90625 
Q 21.296875 6.109375 26.703125 6.109375 
Q 34.1875 6.109375 38.703125 11.40625 
Q 43.21875 16.703125 43.21875 25.484375 
L 43.21875 27.484375 
z
M 52.203125 31.203125 
L 52.203125 0 
L 43.21875 0 
L 43.21875 8.296875 
Q 40.140625 3.328125 35.546875 0.953125 
Q 30.953125 -1.421875 24.3125 -1.421875 
Q 15.921875 -1.421875 10.953125 3.296875 
Q 6 8.015625 6 15.921875 
Q 6 25.140625 12.171875 29.828125 
Q 18.359375 34.515625 30.609375 34.515625 
L 43.21875 34.515625 
L 43.21875 35.40625 
Q 43.21875 41.609375 39.140625 45 
Q 35.0625 48.390625 27.6875 48.390625 
Q 23 48.390625 18.546875 47.265625 
Q 14.109375 46.140625 10.015625 43.890625 
L 10.015625 52.203125 
Q 14.9375 54.109375 19.578125 55.046875 
Q 24.21875 56 28.609375 56 
Q 40.484375 56 46.34375 49.84375 
Q 52.203125 43.703125 52.203125 31.203125 
z
" id="DejaVuSans-97"/>
     <path d="M 9.421875 75.984375 
L 18.40625 75.984375 
L 18.40625 0 
L 9.421875 0 
z
" id="DejaVuSans-108"/>
     <path d="M 30.609375 48.390625 
Q 23.390625 48.390625 19.1875 42.75 
Q 14.984375 37.109375 14.984375 27.296875 
Q 14.984375 17.484375 19.15625 11.84375 
Q 23.34375 6.203125 30.609375 6.203125 
Q 37.796875 6.203125 41.984375 11.859375 
Q 46.1875 17.53125 46.1875 27.296875 
Q 46.1875 37.015625 41.984375 42.703125 
Q 37.796875 48.390625 30.609375 48.390625 
z
M 30.609375 56 
Q 42.328125 56 49.015625 48.375 
Q 55.71875 40.765625 55.71875 27.296875 
Q 55.71875 13.875 49.015625 6.21875 
Q 42.328125 -1.421875 30.609375 -1.421875 
Q 18.84375 -1.421875 12.171875 6.21875 
Q 5.515625 13.875 5.515625 27.296875 
Q 5.515625 40.765625 12.171875 48.375 
Q 18.84375 56 30.609375 56 
z
" id="DejaVuSans-111"/>
     <path d="M 54.890625 33.015625 
L 54.890625 0 
L 45.90625 0 
L 45.90625 32.71875 
Q 45.90625 40.484375 42.875 44.328125 
Q 39.84375 48.1875 33.796875 48.1875 
Q 26.515625 48.1875 22.3125 43.546875 
Q 18.109375 38.921875 18.109375 30.90625 
L 18.109375 0 
L 9.078125 0 
L 9.078125 54.6875 
L 18.109375 54.6875 
L 18.109375 46.1875 
Q 21.34375 51.125 25.703125 53.5625 
Q 30.078125 56 35.796875 56 
Q 45.21875 56 50.046875 50.171875 
Q 54.890625 44.34375 54.890625 33.015625 
z
" id="DejaVuSans-110"/>
     <path d="M 64.40625 67.28125 
L 64.40625 56.890625 
Q 59.421875 61.53125 53.78125 63.8125 
Q 48.140625 66.109375 41.796875 66.109375 
Q 29.296875 66.109375 22.65625 58.46875 
Q 16.015625 50.828125 16.015625 36.375 
Q 16.015625 21.96875 22.65625 14.328125 
Q 29.296875 6.6875 41.796875 6.6875 
Q 48.140625 6.6875 53.78125 8.984375 
Q 59.421875 11.28125 64.40625 15.921875 
L 64.40625 5.609375 
Q 59.234375 2.09375 53.4375 0.328125 
Q 47.65625 -1.421875 41.21875 -1.421875 
Q 24.65625 -1.421875 15.125 8.703125 
Q 5.609375 18.84375 5.609375 36.375 
Q 5.609375 53.953125 15.125 64.078125 
Q 24.65625 74.21875 41.21875 74.21875 
Q 47.75 74.21875 53.53125 72.484375 
Q 59.328125 70.75 64.40625 67.28125 
z
" id="DejaVuSans-67"/>
     <path d="M 48.78125 52.59375 
L 48.78125 44.1875 
Q 44.96875 46.296875 41.140625 47.34375 
Q 37.3125 48.390625 33.40625 48.390625 
Q 24.65625 48.390625 19.8125 42.84375 
Q 14.984375 37.3125 14.984375 27.296875 
Q 14.984375 17.28125 19.8125 11.734375 
Q 24.65625 6.203125 33.40625 6.203125 
Q 37.3125 6.203125 41.140625 7.25 
Q 44.96875 8.296875 48.78125 10.40625 
L 48.78125 2.09375 
Q 45.015625 0.34375 40.984375 -0.53125 
Q 36.96875 -1.421875 32.421875 -1.421875 
Q 20.0625 -1.421875 12.78125 6.34375 
Q 5.515625 14.109375 5.515625 27.296875 
Q 5.515625 40.671875 12.859375 48.328125 
Q 20.21875 56 33.015625 56 
Q 37.15625 56 41.109375 55.140625 
Q 45.0625 54.296875 48.78125 52.59375 
z
" id="DejaVuSans-99"/>
     <path d="M 10.6875 12.40625 
L 21 12.40625 
L 21 0 
L 10.6875 0 
z
" id="DejaVuSans-46"/>
     <path d="M 2.984375 54.6875 
L 12.5 54.6875 
L 29.59375 8.796875 
L 46.6875 54.6875 
L 56.203125 54.6875 
L 35.6875 0 
L 23.484375 0 
z
" id="DejaVuSans-118"/>
    </defs>
    <g transform="translate(364.903437 36.884656)scale(0.14 -0.14)">
     <use xlink:href="#DejaVuSans-82"/>
     <use x="69.419922" xlink:href="#DejaVuSans-101"/>
     <use x="130.943359" xlink:href="#DejaVuSans-103"/>
     <use x="194.419922" xlink:href="#DejaVuSans-105"/>
     <use x="222.203125" xlink:href="#DejaVuSans-115"/>
     <use x="274.302734" xlink:href="#DejaVuSans-116"/>
     <use x="313.511719" xlink:href="#DejaVuSans-101"/>
     <use x="375.035156" xlink:href="#DejaVuSans-114"/>
     <use x="416.117188" xlink:href="#DejaVuSans-101"/>
     <use x="477.640625" xlink:href="#DejaVuSans-100"/>
     <use x="541.117188" xlink:href="#DejaVuSans-32"/>
     <use x="572.904297" xlink:href="#DejaVuSans-84"/>
     <use x="633.769531" xlink:href="#DejaVuSans-114"/>
     <use x="674.882812" xlink:href="#DejaVuSans-105"/>
     <use x="702.666016" xlink:href="#DejaVuSans-97"/>
     <use x="763.945312" xlink:href="#DejaVuSans-108"/>
     <use x="791.728516" xlink:href="#DejaVuSans-115"/>
     <use x="843.828125" xlink:href="#DejaVuSans-32"/>
     <use x="875.615234" xlink:href="#DejaVuSans-111"/>
     <use x="936.796875" xlink:href="#DejaVuSans-110"/>
     <use x="1000.175781" xlink:href="#DejaVuSans-32"/>
     <use x="1031.962891" xlink:href="#DejaVuSans-67"/>
     <use x="1101.787109" xlink:href="#DejaVuSans-108"/>
     <use x="1129.570312" xlink:href="#DejaVuSans-105"/>
     <use x="1157.353516" xlink:href="#DejaVuSans-110"/>
     <use x="1220.732422" xlink:href="#DejaVuSans-105"/>
     <use x="1248.515625" xlink:href="#DejaVuSans-99"/>
     <use x="1303.496094" xlink:href="#DejaVuSans-97"/>
     <use x="1364.775391" xlink:href="#DejaVuSans-108"/>
     <use x="1392.558594" xlink:href="#DejaVuSans-84"/>
     <use x="1453.423828" xlink:href="#DejaVuSans-114"/>
     <use x="1494.537109" xlink:href="#DejaVuSans-105"/>
     <use x="1522.320312" xlink:href="#DejaVuSans-97"/>
     <use x="1583.599609" xlink:href="#DejaVuSans-108"/>
     <use x="1611.382812" xlink:href="#DejaVuSans-115"/>
     <use x="1663.482422" xlink:href="#DejaVuSans-46"/>
     <use x="1695.269531" xlink:href="#DejaVuSans-103"/>
     <use x="1758.746094" xlink:href="#DejaVuSans-111"/>
     <use x="1819.927734" xlink:href="#DejaVuSans-118"/>
    </g>
    <!-- (N=327154) -->
    <defs>
     <path d="M 31 75.875 
Q 24.46875 64.65625 21.28125 53.65625 
Q 18.109375 42.671875 18.109375 31.390625 
Q 18.109375 20.125 21.3125 9.0625 
Q 24.515625 -2 31 -13.1875 
L 23.1875 -13.1875 
Q 15.875 -1.703125 12.234375 9.375 
Q 8.59375 20.453125 8.59375 31.390625 
Q 8.59375 42.28125 12.203125 53.3125 
Q 15.828125 64.359375 23.1875 75.875 
z
" id="DejaVuSans-40"/>
     <path d="M 9.8125 72.90625 
L 23.09375 72.90625 
L 55.421875 11.921875 
L 55.421875 72.90625 
L 64.984375 72.90625 
L 64.984375 0 
L 51.703125 0 
L 19.390625 60.984375 
L 19.390625 0 
L 9.8125 0 
z
" id="DejaVuSans-78"/>
     <path d="M 10.59375 45.40625 
L 73.1875 45.40625 
L 73.1875 37.203125 
L 10.59375 37.203125 
z
M 10.59375 25.484375 
L 73.1875 25.484375 
L 73.1875 17.1875 
L 10.59375 17.1875 
z
" id="DejaVuSans-61"/>
     <path d="M 40.578125 39.3125 
Q 47.65625 37.796875 51.625 33 
Q 55.609375 28.21875 55.609375 21.1875 
Q 55.609375 10.40625 48.1875 4.484375 
Q 40.765625 -1.421875 27.09375 -1.421875 
Q 22.515625 -1.421875 17.65625 -0.515625 
Q 12.796875 0.390625 7.625 2.203125 
L 7.625 11.71875 
Q 11.71875 9.328125 16.59375 8.109375 
Q 21.484375 6.890625 26.8125 6.890625 
Q 36.078125 6.890625 40.9375 10.546875 
Q 45.796875 14.203125 45.796875 21.1875 
Q 45.796875 27.640625 41.28125 31.265625 
Q 36.765625 34.90625 28.71875 34.90625 
L 20.21875 34.90625 
L 20.21875 43.015625 
L 29.109375 43.015625 
Q 36.375 43.015625 40.234375 45.921875 
Q 44.09375 48.828125 44.09375 54.296875 
Q 44.09375 59.90625 40.109375 62.90625 
Q 36.140625 65.921875 28.71875 65.921875 
Q 24.65625 65.921875 20.015625 65.03125 
Q 15.375 64.15625 9.8125 62.3125 
L 9.8125 71.09375 
Q 15.4375 72.65625 20.34375 73.4375 
Q 25.25 74.21875 29.59375 74.21875 
Q 40.828125 74.21875 47.359375 69.109375 
Q 53.90625 64.015625 53.90625 55.328125 
Q 53.90625 49.265625 50.4375 45.09375 
Q 46.96875 40.921875 40.578125 39.3125 
z
" id="DejaVuSans-51"/>
     <path d="M 19.1875 8.296875 
L 53.609375 8.296875 
L 53.609375 0 
L 7.328125 0 
L 7.328125 8.296875 
Q 12.9375 14.109375 22.625 23.890625 
Q 32.328125 33.6875 34.8125 36.53125 
Q 39.546875 41.84375 41.421875 45.53125 
Q 43.3125 49.21875 43.3125 52.78125 
Q 43.3125 58.59375 39.234375 62.25 
Q 35.15625 65.921875 28.609375 65.921875 
Q 23.96875 65.921875 18.8125 64.3125 
Q 13.671875 62.703125 7.8125 59.421875 
L 7.8125 69.390625 
Q 13.765625 71.78125 18.9375 73 
Q 24.125 74.21875 28.421875 74.21875 
Q 39.75 74.21875 46.484375 68.546875 
Q 53.21875 62.890625 53.21875 53.421875 
Q 53.21875 48.921875 51.53125 44.890625 
Q 49.859375 40.875 45.40625 35.40625 
Q 44.1875 33.984375 37.640625 27.21875 
Q 31.109375 20.453125 19.1875 8.296875 
z
" id="DejaVuSans-50"/>
     <path d="M 8.203125 72.90625 
L 55.078125 72.90625 
L 55.078125 68.703125 
L 28.609375 0 
L 18.3125 0 
L 43.21875 64.59375 
L 8.203125 64.59375 
z
" id="DejaVuSans-55"/>
     <path d="M 12.40625 8.296875 
L 28.515625 8.296875 
L 28.515625 63.921875 
L 10.984375 60.40625 
L 10.984375 69.390625 
L 28.421875 72.90625 
L 38.28125 72.90625 
L 38.28125 8.296875 
L 54.390625 8.296875 
L 54.390625 0 
L 12.40625 0 
z
" id="DejaVuSans-49"/>
     <path d="M 10.796875 72.90625 
L 49.515625 72.90625 
L 49.515625 64.59375 
L 19.828125 64.59375 
L 19.828125 46.734375 
Q 21.96875 47.46875 24.109375 47.828125 
Q 26.265625 48.1875 28.421875 48.1875 
Q 40.625 48.1875 47.75 41.5 
Q 54.890625 34.8125 54.890625 23.390625 
Q 54.890625 11.625 47.5625 5.09375 
Q 40.234375 -1.421875 26.90625 -1.421875 
Q 22.3125 -1.421875 17.546875 -0.640625 
Q 12.796875 0.140625 7.71875 1.703125 
L 7.71875 11.625 
Q 12.109375 9.234375 16.796875 8.0625 
Q 21.484375 6.890625 26.703125 6.890625 
Q 35.15625 6.890625 40.078125 11.328125 
Q 45.015625 15.765625 45.015625 23.390625 
Q 45.015625 31 40.078125 35.4375 
Q 35.15625 39.890625 26.703125 39.890625 
Q 22.75 39.890625 18.8125 39.015625 
Q 14.890625 38.140625 10.796875 36.28125 
z
" id="DejaVuSans-53"/>
     <path d="M 37.796875 64.3125 
L 12.890625 25.390625 
L 37.796875 25.390625 
z
M 35.203125 72.90625 
L 47.609375 72.90625 
L 47.609375 25.390625 
L 58.015625 25.390625 
L 58.015625 17.1875 
L 47.609375 17.1875 
L 47.609375 0 
L 37.796875 0 
L 37.796875 17.1875 
L 4.890625 17.1875 
L 4.890625 26.703125 
z
" id="DejaVuSans-52"/>
     <path d="M 8.015625 75.875 
L 15.828125 75.875 
Q 23.140625 64.359375 26.78125 53.3125 
Q 30.421875 42.28125 30.421875 31.390625 
Q 30.421875 20.453125 26.78125 9.375 
Q 23.140625 -1.703125 15.828125 -13.1875 
L 8.015625 -13.1875 
Q 14.5 -2 17.703125 9.0625 
Q 20.90625 20.125 20.90625 31.390625 
Q 20.90625 42.671875 17.703125 53.65625 
Q 14.5 64.65625 8.015625 75.875 
z
" id="DejaVuSans-41"/>
    </defs>
    <g transform="translate(453.152656 52.561594)scale(0.14 -0.14)">
     <use xlink:href="#DejaVuSans-40"/>
     <use x="39.013672" xlink:href="#DejaVuSans-78"/>
     <use x="113.818359" xlink:href="#DejaVuSans-61"/>
     <use x="197.607422" xlink:href="#DejaVuSans-51"/>
     <use x="261.230469" xlink:href="#DejaVuSans-50"/>
     <use x="324.853516" xlink:href="#DejaVuSans-55"/>
     <use x="388.476562" xlink:href="#DejaVuSans-49"/>
     <use x="452.099609" xlink:href="#DejaVuSans-53"/>
     <use x="515.722656" xlink:href="#DejaVuSans-52"/>
     <use x="579.345703" xlink:href="#DejaVuSans-41"/>
    </g>
   </g>
   <g id="text_2">
    <!-- Not identifiable -->
    <defs>
     <path d="M 37.109375 75.984375 
L 37.109375 68.5 
L 28.515625 68.5 
Q 23.6875 68.5 21.796875 66.546875 
Q 19.921875 64.59375 19.921875 59.515625 
L 19.921875 54.6875 
L 34.71875 54.6875 
L 34.71875 47.703125 
L 19.921875 47.703125 
L 19.921875 0 
L 10.890625 0 
L 10.890625 47.703125 
L 2.296875 47.703125 
L 2.296875 54.6875 
L 10.890625 54.6875 
L 10.890625 58.5 
Q 10.890625 67.625 15.140625 71.796875 
Q 19.390625 75.984375 28.609375 75.984375 
z
" id="DejaVuSans-102"/>
     <path d="M 48.6875 27.296875 
Q 48.6875 37.203125 44.609375 42.84375 
Q 40.53125 48.484375 33.40625 48.484375 
Q 26.265625 48.484375 22.1875 42.84375 
Q 18.109375 37.203125 18.109375 27.296875 
Q 18.109375 17.390625 22.1875 11.75 
Q 26.265625 6.109375 33.40625 6.109375 
Q 40.53125 6.109375 44.609375 11.75 
Q 48.6875 17.390625 48.6875 27.296875 
z
M 18.109375 46.390625 
Q 20.953125 51.265625 25.265625 53.625 
Q 29.59375 56 35.59375 56 
Q 45.5625 56 51.78125 48.09375 
Q 58.015625 40.1875 58.015625 27.296875 
Q 58.015625 14.40625 51.78125 6.484375 
Q 45.5625 -1.421875 35.59375 -1.421875 
Q 29.59375 -1.421875 25.265625 0.953125 
Q 20.953125 3.328125 18.109375 8.203125 
L 18.109375 0 
L 9.078125 0 
L 9.078125 75.984375 
L 18.109375 75.984375 
z
" id="DejaVuSans-98"/>
    </defs>
    <g transform="translate(620.935781 105.546188)scale(0.14 -0.14)">
     <use xlink:href="#DejaVuSans-78"/>
     <use x="74.804688" xlink:href="#DejaVuSans-111"/>
     <use x="135.986328" xlink:href="#DejaVuSans-116"/>
     <use x="175.195312" xlink:href="#DejaVuSans-32"/>
     <use x="206.982422" xlink:href="#DejaVuSans-105"/>
     <use x="234.765625" xlink:href="#DejaVuSans-100"/>
     <use x="298.242188" xlink:href="#DejaVuSans-101"/>
     <use x="359.765625" xlink:href="#DejaVuSans-110"/>
     <use x="423.144531" xlink:href="#DejaVuSans-116"/>
     <use x="462.353516" xlink:href="#DejaVuSans-105"/>
     <use x="490.136719" xlink:href="#DejaVuSans-102"/>
     <use x="525.341797" xlink:href="#DejaVuSans-105"/>
     <use x="553.125" xlink:href="#DejaVuSans-97"/>
     <use x="614.404297" xlink:href="#DejaVuSans-98"/>
     <use x="677.880859" xlink:href="#DejaVuSans-108"/>
     <use x="705.664062" xlink:href="#DejaVuSans-101"/>
    </g>
    <!-- as FDAAA covered -->
    <defs>
     <path d="M 9.8125 72.90625 
L 51.703125 72.90625 
L 51.703125 64.59375 
L 19.671875 64.59375 
L 19.671875 43.109375 
L 48.578125 43.109375 
L 48.578125 34.8125 
L 19.671875 34.8125 
L 19.671875 0 
L 9.8125 0 
z
" id="DejaVuSans-70"/>
     <path d="M 19.671875 64.796875 
L 19.671875 8.109375 
L 31.59375 8.109375 
Q 46.6875 8.109375 53.6875 14.9375 
Q 60.6875 21.78125 60.6875 36.53125 
Q 60.6875 51.171875 53.6875 57.984375 
Q 46.6875 64.796875 31.59375 64.796875 
z
M 9.8125 72.90625 
L 30.078125 72.90625 
Q 51.265625 72.90625 61.171875 64.09375 
Q 71.09375 55.28125 71.09375 36.53125 
Q 71.09375 17.671875 61.125 8.828125 
Q 51.171875 0 30.078125 0 
L 9.8125 0 
z
" id="DejaVuSans-68"/>
     <path d="M 34.1875 63.1875 
L 20.796875 26.90625 
L 47.609375 26.90625 
z
M 28.609375 72.90625 
L 39.796875 72.90625 
L 67.578125 0 
L 57.328125 0 
L 50.6875 18.703125 
L 17.828125 18.703125 
L 11.1875 0 
L 0.78125 0 
z
" id="DejaVuSans-65"/>
    </defs>
    <g transform="translate(610.260781 121.223125)scale(0.14 -0.14)">
     <use xlink:href="#DejaVuSans-97"/>
     <use x="61.279297" xlink:href="#DejaVuSans-115"/>
     <use x="113.378906" xlink:href="#DejaVuSans-32"/>
     <use x="145.166016" xlink:href="#DejaVuSans-70"/>
     <use x="202.685547" xlink:href="#DejaVuSans-68"/>
     <use x="279.671875" xlink:href="#DejaVuSans-65"/>
     <use x="348.111328" xlink:href="#DejaVuSans-65"/>
     <use x="416.550781" xlink:href="#DejaVuSans-65"/>
     <use x="484.958984" xlink:href="#DejaVuSans-32"/>
     <use x="516.746094" xlink:href="#DejaVuSans-99"/>
     <use x="571.726562" xlink:href="#DejaVuSans-111"/>
     <use x="632.908203" xlink:href="#DejaVuSans-118"/>
     <use x="692.087891" xlink:href="#DejaVuSans-101"/>
     <use x="753.611328" xlink:href="#DejaVuSans-114"/>
     <use x="794.693359" xlink:href="#DejaVuSans-101"/>
     <use x="856.216797" xlink:href="#DejaVuSans-100"/>
    </g>
    <!-- (n=304252) -->
    <defs>
     <path d="M 31.78125 66.40625 
Q 24.171875 66.40625 20.328125 58.90625 
Q 16.5 51.421875 16.5 36.375 
Q 16.5 21.390625 20.328125 13.890625 
Q 24.171875 6.390625 31.78125 6.390625 
Q 39.453125 6.390625 43.28125 13.890625 
Q 47.125 21.390625 47.125 36.375 
Q 47.125 51.421875 43.28125 58.90625 
Q 39.453125 66.40625 31.78125 66.40625 
z
M 31.78125 74.21875 
Q 44.046875 74.21875 50.515625 64.515625 
Q 56.984375 54.828125 56.984375 36.375 
Q 56.984375 17.96875 50.515625 8.265625 
Q 44.046875 -1.421875 31.78125 -1.421875 
Q 19.53125 -1.421875 13.0625 8.265625 
Q 6.59375 17.96875 6.59375 36.375 
Q 6.59375 54.828125 13.0625 64.515625 
Q 19.53125 74.21875 31.78125 74.21875 
z
" id="DejaVuSans-48"/>
    </defs>
    <g transform="translate(632.153281 136.900062)scale(0.14 -0.14)">
     <use xlink:href="#DejaVuSans-40"/>
     <use x="39.013672" xlink:href="#DejaVuSans-110"/>
     <use x="102.392578" xlink:href="#DejaVuSans-61"/>
     <use x="186.181641" xlink:href="#DejaVuSans-51"/>
     <use x="249.804688" xlink:href="#DejaVuSans-48"/>
     <use x="313.427734" xlink:href="#DejaVuSans-52"/>
     <use x="377.050781" xlink:href="#DejaVuSans-50"/>
     <use x="440.673828" xlink:href="#DejaVuSans-53"/>
     <use x="504.296875" xlink:href="#DejaVuSans-50"/>
     <use x="567.919922" xlink:href="#DejaVuSans-41"/>
    </g>
   </g>
   <g id="text_3">
    <!-- All Covered Trials (N=22902) -->
    <defs>
     <path d="M 10.984375 1.515625 
L 10.984375 10.5 
Q 14.703125 8.734375 18.5 7.8125 
Q 22.3125 6.890625 25.984375 6.890625 
Q 35.75 6.890625 40.890625 13.453125 
Q 46.046875 20.015625 46.78125 33.40625 
Q 43.953125 29.203125 39.59375 26.953125 
Q 35.25 24.703125 29.984375 24.703125 
Q 19.046875 24.703125 12.671875 31.3125 
Q 6.296875 37.9375 6.296875 49.421875 
Q 6.296875 60.640625 12.9375 67.421875 
Q 19.578125 74.21875 30.609375 74.21875 
Q 43.265625 74.21875 49.921875 64.515625 
Q 56.59375 54.828125 56.59375 36.375 
Q 56.59375 19.140625 48.40625 8.859375 
Q 40.234375 -1.421875 26.421875 -1.421875 
Q 22.703125 -1.421875 18.890625 -0.6875 
Q 15.09375 0.046875 10.984375 1.515625 
z
M 30.609375 32.421875 
Q 37.25 32.421875 41.125 36.953125 
Q 45.015625 41.5 45.015625 49.421875 
Q 45.015625 57.28125 41.125 61.84375 
Q 37.25 66.40625 30.609375 66.40625 
Q 23.96875 66.40625 20.09375 61.84375 
Q 16.21875 57.28125 16.21875 49.421875 
Q 16.21875 41.5 20.09375 36.953125 
Q 23.96875 32.421875 30.609375 32.421875 
z
" id="DejaVuSans-57"/>
    </defs>
    <g transform="translate(394.043125 182.423125)scale(0.14 -0.14)">
     <use xlink:href="#DejaVuSans-65"/>
     <use x="68.408203" xlink:href="#DejaVuSans-108"/>
     <use x="96.191406" xlink:href="#DejaVuSans-108"/>
     <use x="123.974609" xlink:href="#DejaVuSans-32"/>
     <use x="155.761719" xlink:href="#DejaVuSans-67"/>
     <use x="225.585938" xlink:href="#DejaVuSans-111"/>
     <use x="286.767578" xlink:href="#DejaVuSans-118"/>
     <use x="345.947266" xlink:href="#DejaVuSans-101"/>
     <use x="407.470703" xlink:href="#DejaVuSans-114"/>
     <use x="448.552734" xlink:href="#DejaVuSans-101"/>
     <use x="510.076172" xlink:href="#DejaVuSans-100"/>
     <use x="573.552734" xlink:href="#DejaVuSans-32"/>
     <use x="605.339844" xlink:href="#DejaVuSans-84"/>
     <use x="666.205078" xlink:href="#DejaVuSans-114"/>
     <use x="707.318359" xlink:href="#DejaVuSans-105"/>
     <use x="735.101562" xlink:href="#DejaVuSans-97"/>
     <use x="796.380859" xlink:href="#DejaVuSans-108"/>
     <use x="824.164062" xlink:href="#DejaVuSans-115"/>
     <use x="876.263672" xlink:href="#DejaVuSans-32"/>
     <use x="908.050781" xlink:href="#DejaVuSans-40"/>
     <use x="947.064453" xlink:href="#DejaVuSans-78"/>
     <use x="1021.869141" xlink:href="#DejaVuSans-61"/>
     <use x="1105.658203" xlink:href="#DejaVuSans-50"/>
     <use x="1169.28125" xlink:href="#DejaVuSans-50"/>
     <use x="1232.904297" xlink:href="#DejaVuSans-57"/>
     <use x="1296.527344" xlink:href="#DejaVuSans-48"/>
     <use x="1360.150391" xlink:href="#DejaVuSans-50"/>
     <use x="1423.773438" xlink:href="#DejaVuSans-41"/>
    </g>
   </g>
   <g id="text_4">
    <!-- Registration -->
    <g transform="translate(65.118281 251.084656)scale(0.14 -0.14)">
     <use xlink:href="#DejaVuSans-82"/>
     <use x="69.419922" xlink:href="#DejaVuSans-101"/>
     <use x="130.943359" xlink:href="#DejaVuSans-103"/>
     <use x="194.419922" xlink:href="#DejaVuSans-105"/>
     <use x="222.203125" xlink:href="#DejaVuSans-115"/>
     <use x="274.302734" xlink:href="#DejaVuSans-116"/>
     <use x="313.511719" xlink:href="#DejaVuSans-114"/>
     <use x="354.625" xlink:href="#DejaVuSans-97"/>
     <use x="415.904297" xlink:href="#DejaVuSans-116"/>
     <use x="455.113281" xlink:href="#DejaVuSans-105"/>
     <use x="482.896484" xlink:href="#DejaVuSans-111"/>
     <use x="544.078125" xlink:href="#DejaVuSans-110"/>
    </g>
    <!-- (No exclusions) -->
    <defs>
     <path d="M 54.890625 54.6875 
L 35.109375 28.078125 
L 55.90625 0 
L 45.3125 0 
L 29.390625 21.484375 
L 13.484375 0 
L 2.875 0 
L 24.125 28.609375 
L 4.6875 54.6875 
L 15.28125 54.6875 
L 29.78125 35.203125 
L 44.28125 54.6875 
z
" id="DejaVuSans-120"/>
     <path d="M 8.5 21.578125 
L 8.5 54.6875 
L 17.484375 54.6875 
L 17.484375 21.921875 
Q 17.484375 14.15625 20.5 10.265625 
Q 23.53125 6.390625 29.59375 6.390625 
Q 36.859375 6.390625 41.078125 11.03125 
Q 45.3125 15.671875 45.3125 23.6875 
L 45.3125 54.6875 
L 54.296875 54.6875 
L 54.296875 0 
L 45.3125 0 
L 45.3125 8.40625 
Q 42.046875 3.421875 37.71875 1 
Q 33.40625 -1.421875 27.6875 -1.421875 
Q 18.265625 -1.421875 13.375 4.4375 
Q 8.5 10.296875 8.5 21.578125 
z
M 31.109375 56 
z
" id="DejaVuSans-117"/>
    </defs>
    <g transform="translate(53.797969 266.761594)scale(0.14 -0.14)">
     <use xlink:href="#DejaVuSans-40"/>
     <use x="39.013672" xlink:href="#DejaVuSans-78"/>
     <use x="113.818359" xlink:href="#DejaVuSans-111"/>
     <use x="175" xlink:href="#DejaVuSans-32"/>
     <use x="206.787109" xlink:href="#DejaVuSans-101"/>
     <use x="268.294922" xlink:href="#DejaVuSans-120"/>
     <use x="327.458984" xlink:href="#DejaVuSans-99"/>
     <use x="382.439453" xlink:href="#DejaVuSans-108"/>
     <use x="410.222656" xlink:href="#DejaVuSans-117"/>
     <use x="473.601562" xlink:href="#DejaVuSans-115"/>
     <use x="525.701172" xlink:href="#DejaVuSans-105"/>
     <use x="553.484375" xlink:href="#DejaVuSans-111"/>
     <use x="614.666016" xlink:href="#DejaVuSans-110"/>
     <use x="678.044922" xlink:href="#DejaVuSans-115"/>
     <use x="730.144531" xlink:href="#DejaVuSans-41"/>
    </g>
   </g>
   <g id="text_5">
    <!-- Registered Trials -->
    <g transform="translate(48.572031 373.484656)scale(0.14 -0.14)">
     <use xlink:href="#DejaVuSans-82"/>
     <use x="69.419922" xlink:href="#DejaVuSans-101"/>
     <use x="130.943359" xlink:href="#DejaVuSans-103"/>
     <use x="194.419922" xlink:href="#DejaVuSans-105"/>
     <use x="222.203125" xlink:href="#DejaVuSans-115"/>
     <use x="274.302734" xlink:href="#DejaVuSans-116"/>
     <use x="313.511719" xlink:href="#DejaVuSans-101"/>
     <use x="375.035156" xlink:href="#DejaVuSans-114"/>
     <use x="416.117188" xlink:href="#DejaVuSans-101"/>
     <use x="477.640625" xlink:href="#DejaVuSans-100"/>
     <use x="541.117188" xlink:href="#DejaVuSans-32"/>
     <use x="572.904297" xlink:href="#DejaVuSans-84"/>
     <use x="633.769531" xlink:href="#DejaVuSans-114"/>
     <use x="674.882812" xlink:href="#DejaVuSans-105"/>
     <use x="702.666016" xlink:href="#DejaVuSans-97"/>
     <use x="763.945312" xlink:href="#DejaVuSans-108"/>
     <use x="791.728516" xlink:href="#DejaVuSans-115"/>
    </g>
    <!-- (n=22902) -->
    <g transform="translate(69.607031 389.161594)scale(0.14 -0.14)">
     <use xlink:href="#DejaVuSans-40"/>
     <use x="39.013672" xlink:href="#DejaVuSans-110"/>
     <use x="102.392578" xlink:href="#DejaVuSans-61"/>
     <use x="186.181641" xlink:href="#DejaVuSans-50"/>
     <use x="249.804688" xlink:href="#DejaVuSans-50"/>
     <use x="313.427734" xlink:href="#DejaVuSans-57"/>
     <use x="377.050781" xlink:href="#DejaVuSans-48"/>
     <use x="440.673828" xlink:href="#DejaVuSans-50"/>
     <use x="504.296875" xlink:href="#DejaVuSans-41"/>
    </g>
   </g>
   <g id="text_6">
    <!-- Verification -->
    <defs>
     <path d="M 28.609375 0 
L 0.78125 72.90625 
L 11.078125 72.90625 
L 34.1875 11.53125 
L 57.328125 72.90625 
L 67.578125 72.90625 
L 39.796875 0 
z
" id="DejaVuSans-86"/>
    </defs>
    <g transform="translate(229.773906 243.623125)scale(0.14 -0.14)">
     <use xlink:href="#DejaVuSans-86"/>
     <use x="68.298828" xlink:href="#DejaVuSans-101"/>
     <use x="129.822266" xlink:href="#DejaVuSans-114"/>
     <use x="170.935547" xlink:href="#DejaVuSans-105"/>
     <use x="198.71875" xlink:href="#DejaVuSans-102"/>
     <use x="233.923828" xlink:href="#DejaVuSans-105"/>
     <use x="261.707031" xlink:href="#DejaVuSans-99"/>
     <use x="316.6875" xlink:href="#DejaVuSans-97"/>
     <use x="377.966797" xlink:href="#DejaVuSans-116"/>
     <use x="417.175781" xlink:href="#DejaVuSans-105"/>
     <use x="444.958984" xlink:href="#DejaVuSans-111"/>
     <use x="506.140625" xlink:href="#DejaVuSans-110"/>
    </g>
   </g>
   <g id="text_7">
    <!-- Newly registered -->
    <defs>
     <path d="M 4.203125 54.6875 
L 13.1875 54.6875 
L 24.421875 12.015625 
L 35.59375 54.6875 
L 46.1875 54.6875 
L 57.421875 12.015625 
L 68.609375 54.6875 
L 77.59375 54.6875 
L 63.28125 0 
L 52.6875 0 
L 40.921875 44.828125 
L 29.109375 0 
L 18.5 0 
z
" id="DejaVuSans-119"/>
     <path d="M 32.171875 -5.078125 
Q 28.375 -14.84375 24.75 -17.8125 
Q 21.140625 -20.796875 15.09375 -20.796875 
L 7.90625 -20.796875 
L 7.90625 -13.28125 
L 13.1875 -13.28125 
Q 16.890625 -13.28125 18.9375 -11.515625 
Q 21 -9.765625 23.484375 -3.21875 
L 25.09375 0.875 
L 2.984375 54.6875 
L 12.5 54.6875 
L 29.59375 11.921875 
L 46.6875 54.6875 
L 56.203125 54.6875 
z
" id="DejaVuSans-121"/>
    </defs>
    <g transform="translate(312.404766 319.109344)scale(0.09 -0.09)">
     <use xlink:href="#DejaVuSans-78"/>
     <use x="74.804688" xlink:href="#DejaVuSans-101"/>
     <use x="136.328125" xlink:href="#DejaVuSans-119"/>
     <use x="218.115234" xlink:href="#DejaVuSans-108"/>
     <use x="245.898438" xlink:href="#DejaVuSans-121"/>
     <use x="305.078125" xlink:href="#DejaVuSans-32"/>
     <use x="336.865234" xlink:href="#DejaVuSans-114"/>
     <use x="377.947266" xlink:href="#DejaVuSans-101"/>
     <use x="439.470703" xlink:href="#DejaVuSans-103"/>
     <use x="502.947266" xlink:href="#DejaVuSans-105"/>
     <use x="530.730469" xlink:href="#DejaVuSans-115"/>
     <use x="582.830078" xlink:href="#DejaVuSans-116"/>
     <use x="622.039062" xlink:href="#DejaVuSans-101"/>
     <use x="683.5625" xlink:href="#DejaVuSans-114"/>
     <use x="724.644531" xlink:href="#DejaVuSans-101"/>
     <use x="786.167969" xlink:href="#DejaVuSans-100"/>
    </g>
    <!-- (n=4366) -->
    <defs>
     <path d="M 33.015625 40.375 
Q 26.375 40.375 22.484375 35.828125 
Q 18.609375 31.296875 18.609375 23.390625 
Q 18.609375 15.53125 22.484375 10.953125 
Q 26.375 6.390625 33.015625 6.390625 
Q 39.65625 6.390625 43.53125 10.953125 
Q 47.40625 15.53125 47.40625 23.390625 
Q 47.40625 31.296875 43.53125 35.828125 
Q 39.65625 40.375 33.015625 40.375 
z
M 52.59375 71.296875 
L 52.59375 62.3125 
Q 48.875 64.0625 45.09375 64.984375 
Q 41.3125 65.921875 37.59375 65.921875 
Q 27.828125 65.921875 22.671875 59.328125 
Q 17.53125 52.734375 16.796875 39.40625 
Q 19.671875 43.65625 24.015625 45.921875 
Q 28.375 48.1875 33.59375 48.1875 
Q 44.578125 48.1875 50.953125 41.515625 
Q 57.328125 34.859375 57.328125 23.390625 
Q 57.328125 12.15625 50.6875 5.359375 
Q 44.046875 -1.421875 33.015625 -1.421875 
Q 20.359375 -1.421875 13.671875 8.265625 
Q 6.984375 17.96875 6.984375 36.375 
Q 6.984375 53.65625 15.1875 63.9375 
Q 23.390625 74.21875 37.203125 74.21875 
Q 40.921875 74.21875 44.703125 73.484375 
Q 48.484375 72.75 52.59375 71.296875 
z
" id="DejaVuSans-54"/>
    </defs>
    <g transform="translate(329.053359 329.187375)scale(0.09 -0.09)">
     <use xlink:href="#DejaVuSans-40"/>
     <use x="39.013672" xlink:href="#DejaVuSans-110"/>
     <use x="102.392578" xlink:href="#DejaVuSans-61"/>
     <use x="186.181641" xlink:href="#DejaVuSans-52"/>
     <use x="249.804688" xlink:href="#DejaVuSans-51"/>
     <use x="313.427734" xlink:href="#DejaVuSans-54"/>
     <use x="377.050781" xlink:href="#DejaVuSans-54"/>
     <use x="440.673828" xlink:href="#DejaVuSans-41"/>
    </g>
    <!-- Fully completed -->
    <defs>
     <path d="M 52 44.1875 
Q 55.375 50.25 60.0625 53.125 
Q 64.75 56 71.09375 56 
Q 79.640625 56 84.28125 50.015625 
Q 88.921875 44.046875 88.921875 33.015625 
L 88.921875 0 
L 79.890625 0 
L 79.890625 32.71875 
Q 79.890625 40.578125 77.09375 44.375 
Q 74.3125 48.1875 68.609375 48.1875 
Q 61.625 48.1875 57.5625 43.546875 
Q 53.515625 38.921875 53.515625 30.90625 
L 53.515625 0 
L 44.484375 0 
L 44.484375 32.71875 
Q 44.484375 40.625 41.703125 44.40625 
Q 38.921875 48.1875 33.109375 48.1875 
Q 26.21875 48.1875 22.15625 43.53125 
Q 18.109375 38.875 18.109375 30.90625 
L 18.109375 0 
L 9.078125 0 
L 9.078125 54.6875 
L 18.109375 54.6875 
L 18.109375 46.1875 
Q 21.1875 51.21875 25.484375 53.609375 
Q 29.78125 56 35.6875 56 
Q 41.65625 56 45.828125 52.96875 
Q 50 49.953125 52 44.1875 
z
" id="DejaVuSans-109"/>
     <path d="M 18.109375 8.203125 
L 18.109375 -20.796875 
L 9.078125 -20.796875 
L 9.078125 54.6875 
L 18.109375 54.6875 
L 18.109375 46.390625 
Q 20.953125 51.265625 25.265625 53.625 
Q 29.59375 56 35.59375 56 
Q 45.5625 56 51.78125 48.09375 
Q 58.015625 40.1875 58.015625 27.296875 
Q 58.015625 14.40625 51.78125 6.484375 
Q 45.5625 -1.421875 35.59375 -1.421875 
Q 29.59375 -1.421875 25.265625 0.953125 
Q 20.953125 3.328125 18.109375 8.203125 
z
M 48.6875 27.296875 
Q 48.6875 37.203125 44.609375 42.84375 
Q 40.53125 48.484375 33.40625 48.484375 
Q 26.265625 48.484375 22.1875 42.84375 
Q 18.109375 37.203125 18.109375 27.296875 
Q 18.109375 17.390625 22.1875 11.75 
Q 26.265625 6.109375 33.40625 6.109375 
Q 40.53125 6.109375 44.609375 11.75 
Q 48.6875 17.390625 48.6875 27.296875 
z
" id="DejaVuSans-112"/>
    </defs>
    <g transform="translate(314.732812 339.265406)scale(0.09 -0.09)">
     <use xlink:href="#DejaVuSans-70"/>
     <use x="57.441406" xlink:href="#DejaVuSans-117"/>
     <use x="120.820312" xlink:href="#DejaVuSans-108"/>
     <use x="148.603516" xlink:href="#DejaVuSans-108"/>
     <use x="176.386719" xlink:href="#DejaVuSans-121"/>
     <use x="235.566406" xlink:href="#DejaVuSans-32"/>
     <use x="267.353516" xlink:href="#DejaVuSans-99"/>
     <use x="322.333984" xlink:href="#DejaVuSans-111"/>
     <use x="383.515625" xlink:href="#DejaVuSans-109"/>
     <use x="480.927734" xlink:href="#DejaVuSans-112"/>
     <use x="544.404297" xlink:href="#DejaVuSans-108"/>
     <use x="572.1875" xlink:href="#DejaVuSans-101"/>
     <use x="633.710938" xlink:href="#DejaVuSans-116"/>
     <use x="672.919922" xlink:href="#DejaVuSans-101"/>
     <use x="734.443359" xlink:href="#DejaVuSans-100"/>
    </g>
    <!-- w/ results -->
    <defs>
     <path d="M 25.390625 72.90625 
L 33.6875 72.90625 
L 8.296875 -9.28125 
L 0 -9.28125 
z
" id="DejaVuSans-47"/>
    </defs>
    <g transform="translate(328.841719 349.343437)scale(0.09 -0.09)">
     <use xlink:href="#DejaVuSans-119"/>
     <use x="81.787109" xlink:href="#DejaVuSans-47"/>
     <use x="115.478516" xlink:href="#DejaVuSans-32"/>
     <use x="147.265625" xlink:href="#DejaVuSans-114"/>
     <use x="188.347656" xlink:href="#DejaVuSans-101"/>
     <use x="249.871094" xlink:href="#DejaVuSans-115"/>
     <use x="301.970703" xlink:href="#DejaVuSans-117"/>
     <use x="365.349609" xlink:href="#DejaVuSans-108"/>
     <use x="393.132812" xlink:href="#DejaVuSans-116"/>
     <use x="432.341797" xlink:href="#DejaVuSans-115"/>
    </g>
    <!-- (n=2914) -->
    <g transform="translate(329.053359 359.421469)scale(0.09 -0.09)">
     <use xlink:href="#DejaVuSans-40"/>
     <use x="39.013672" xlink:href="#DejaVuSans-110"/>
     <use x="102.392578" xlink:href="#DejaVuSans-61"/>
     <use x="186.181641" xlink:href="#DejaVuSans-50"/>
     <use x="249.804688" xlink:href="#DejaVuSans-57"/>
     <use x="313.427734" xlink:href="#DejaVuSans-49"/>
     <use x="377.050781" xlink:href="#DejaVuSans-52"/>
     <use x="440.673828" xlink:href="#DejaVuSans-41"/>
    </g>
    <!-- Pending trials -->
    <defs>
     <path d="M 19.671875 64.796875 
L 19.671875 37.40625 
L 32.078125 37.40625 
Q 38.96875 37.40625 42.71875 40.96875 
Q 46.484375 44.53125 46.484375 51.125 
Q 46.484375 57.671875 42.71875 61.234375 
Q 38.96875 64.796875 32.078125 64.796875 
z
M 9.8125 72.90625 
L 32.078125 72.90625 
Q 44.34375 72.90625 50.609375 67.359375 
Q 56.890625 61.8125 56.890625 51.125 
Q 56.890625 40.328125 50.609375 34.8125 
Q 44.34375 29.296875 32.078125 29.296875 
L 19.671875 29.296875 
L 19.671875 0 
L 9.8125 0 
z
" id="DejaVuSans-80"/>
    </defs>
    <g transform="translate(319.845937 369.4995)scale(0.09 -0.09)">
     <use xlink:href="#DejaVuSans-80"/>
     <use x="60.255859" xlink:href="#DejaVuSans-101"/>
     <use x="121.779297" xlink:href="#DejaVuSans-110"/>
     <use x="185.158203" xlink:href="#DejaVuSans-100"/>
     <use x="248.634766" xlink:href="#DejaVuSans-105"/>
     <use x="276.417969" xlink:href="#DejaVuSans-110"/>
     <use x="339.796875" xlink:href="#DejaVuSans-103"/>
     <use x="403.273438" xlink:href="#DejaVuSans-32"/>
     <use x="435.060547" xlink:href="#DejaVuSans-116"/>
     <use x="474.269531" xlink:href="#DejaVuSans-114"/>
     <use x="515.382812" xlink:href="#DejaVuSans-105"/>
     <use x="543.166016" xlink:href="#DejaVuSans-97"/>
     <use x="604.445312" xlink:href="#DejaVuSans-108"/>
     <use x="632.228516" xlink:href="#DejaVuSans-115"/>
    </g>
    <!-- (n=593) -->
    <g transform="translate(331.916484 379.577531)scale(0.09 -0.09)">
     <use xlink:href="#DejaVuSans-40"/>
     <use x="39.013672" xlink:href="#DejaVuSans-110"/>
     <use x="102.392578" xlink:href="#DejaVuSans-61"/>
     <use x="186.181641" xlink:href="#DejaVuSans-53"/>
     <use x="249.804688" xlink:href="#DejaVuSans-57"/>
     <use x="313.427734" xlink:href="#DejaVuSans-51"/>
     <use x="377.050781" xlink:href="#DejaVuSans-41"/>
    </g>
   </g>
   <g id="text_8">
    <!-- Require Verification -->
    <defs>
     <path d="M 14.796875 27.296875 
Q 14.796875 17.390625 18.875 11.75 
Q 22.953125 6.109375 30.078125 6.109375 
Q 37.203125 6.109375 41.296875 11.75 
Q 45.40625 17.390625 45.40625 27.296875 
Q 45.40625 37.203125 41.296875 42.84375 
Q 37.203125 48.484375 30.078125 48.484375 
Q 22.953125 48.484375 18.875 42.84375 
Q 14.796875 37.203125 14.796875 27.296875 
z
M 45.40625 8.203125 
Q 42.578125 3.328125 38.25 0.953125 
Q 33.9375 -1.421875 27.875 -1.421875 
Q 17.96875 -1.421875 11.734375 6.484375 
Q 5.515625 14.40625 5.515625 27.296875 
Q 5.515625 40.1875 11.734375 48.09375 
Q 17.96875 56 27.875 56 
Q 33.9375 56 38.25 53.625 
Q 42.578125 51.265625 45.40625 46.390625 
L 45.40625 54.6875 
L 54.390625 54.6875 
L 54.390625 -20.796875 
L 45.40625 -20.796875 
z
" id="DejaVuSans-113"/>
    </defs>
    <g transform="translate(200.375 465.284656)scale(0.14 -0.14)">
     <use xlink:href="#DejaVuSans-82"/>
     <use x="69.419922" xlink:href="#DejaVuSans-101"/>
     <use x="130.943359" xlink:href="#DejaVuSans-113"/>
     <use x="194.419922" xlink:href="#DejaVuSans-117"/>
     <use x="257.798828" xlink:href="#DejaVuSans-105"/>
     <use x="285.582031" xlink:href="#DejaVuSans-114"/>
     <use x="326.664062" xlink:href="#DejaVuSans-101"/>
     <use x="388.1875" xlink:href="#DejaVuSans-32"/>
     <use x="419.974609" xlink:href="#DejaVuSans-86"/>
     <use x="488.273438" xlink:href="#DejaVuSans-101"/>
     <use x="549.796875" xlink:href="#DejaVuSans-114"/>
     <use x="590.910156" xlink:href="#DejaVuSans-105"/>
     <use x="618.693359" xlink:href="#DejaVuSans-102"/>
     <use x="653.898438" xlink:href="#DejaVuSans-105"/>
     <use x="681.681641" xlink:href="#DejaVuSans-99"/>
     <use x="736.662109" xlink:href="#DejaVuSans-97"/>
     <use x="797.941406" xlink:href="#DejaVuSans-116"/>
     <use x="837.150391" xlink:href="#DejaVuSans-105"/>
     <use x="864.933594" xlink:href="#DejaVuSans-111"/>
     <use x="926.115234" xlink:href="#DejaVuSans-110"/>
    </g>
    <!-- (n=15029) -->
    <g transform="translate(231.607031 480.961594)scale(0.14 -0.14)">
     <use xlink:href="#DejaVuSans-40"/>
     <use x="39.013672" xlink:href="#DejaVuSans-110"/>
     <use x="102.392578" xlink:href="#DejaVuSans-61"/>
     <use x="186.181641" xlink:href="#DejaVuSans-49"/>
     <use x="249.804688" xlink:href="#DejaVuSans-53"/>
     <use x="313.427734" xlink:href="#DejaVuSans-48"/>
     <use x="377.050781" xlink:href="#DejaVuSans-50"/>
     <use x="440.673828" xlink:href="#DejaVuSans-57"/>
     <use x="504.296875" xlink:href="#DejaVuSans-41"/>
    </g>
   </g>
   <g id="text_9">
    <!-- Certificates -->
    <g transform="translate(456.432812 243.434656)scale(0.14 -0.14)">
     <use xlink:href="#DejaVuSans-67"/>
     <use x="69.824219" xlink:href="#DejaVuSans-101"/>
     <use x="131.347656" xlink:href="#DejaVuSans-114"/>
     <use x="172.460938" xlink:href="#DejaVuSans-116"/>
     <use x="211.669922" xlink:href="#DejaVuSans-105"/>
     <use x="239.453125" xlink:href="#DejaVuSans-102"/>
     <use x="274.658203" xlink:href="#DejaVuSans-105"/>
     <use x="302.441406" xlink:href="#DejaVuSans-99"/>
     <use x="357.421875" xlink:href="#DejaVuSans-97"/>
     <use x="418.701172" xlink:href="#DejaVuSans-116"/>
     <use x="457.910156" xlink:href="#DejaVuSans-101"/>
     <use x="519.433594" xlink:href="#DejaVuSans-115"/>
    </g>
    <!-- of Delay -->
    <g transform="translate(467.393281 259.111594)scale(0.14 -0.14)">
     <use xlink:href="#DejaVuSans-111"/>
     <use x="61.181641" xlink:href="#DejaVuSans-102"/>
     <use x="96.386719" xlink:href="#DejaVuSans-32"/>
     <use x="128.173828" xlink:href="#DejaVuSans-68"/>
     <use x="205.175781" xlink:href="#DejaVuSans-101"/>
     <use x="266.699219" xlink:href="#DejaVuSans-108"/>
     <use x="294.482422" xlink:href="#DejaVuSans-97"/>
     <use x="355.761719" xlink:href="#DejaVuSans-121"/>
    </g>
   </g>
   <g id="text_10">
    <!-- No Certificate -->
    <g transform="translate(543.079062 328.720469)scale(0.1 -0.1)">
     <use xlink:href="#DejaVuSans-78"/>
     <use x="74.804688" xlink:href="#DejaVuSans-111"/>
     <use x="135.986328" xlink:href="#DejaVuSans-32"/>
     <use x="167.773438" xlink:href="#DejaVuSans-67"/>
     <use x="237.597656" xlink:href="#DejaVuSans-101"/>
     <use x="299.121094" xlink:href="#DejaVuSans-114"/>
     <use x="340.234375" xlink:href="#DejaVuSans-116"/>
     <use x="379.443359" xlink:href="#DejaVuSans-105"/>
     <use x="407.226562" xlink:href="#DejaVuSans-102"/>
     <use x="442.431641" xlink:href="#DejaVuSans-105"/>
     <use x="470.214844" xlink:href="#DejaVuSans-99"/>
     <use x="525.195312" xlink:href="#DejaVuSans-97"/>
     <use x="586.474609" xlink:href="#DejaVuSans-116"/>
     <use x="625.683594" xlink:href="#DejaVuSans-101"/>
    </g>
    <!-- (n=22045) -->
    <g transform="translate(550.273594 339.918281)scale(0.1 -0.1)">
     <use xlink:href="#DejaVuSans-40"/>
     <use x="39.013672" xlink:href="#DejaVuSans-110"/>
     <use x="102.392578" xlink:href="#DejaVuSans-61"/>
     <use x="186.181641" xlink:href="#DejaVuSans-50"/>
     <use x="249.804688" xlink:href="#DejaVuSans-50"/>
     <use x="313.427734" xlink:href="#DejaVuSans-48"/>
     <use x="377.050781" xlink:href="#DejaVuSans-52"/>
     <use x="440.673828" xlink:href="#DejaVuSans-53"/>
     <use x="504.296875" xlink:href="#DejaVuSans-41"/>
    </g>
   </g>
   <g id="text_11">
    <!-- Has Certificate -->
    <defs>
     <path d="M 9.8125 72.90625 
L 19.671875 72.90625 
L 19.671875 43.015625 
L 55.515625 43.015625 
L 55.515625 72.90625 
L 65.375 72.90625 
L 65.375 0 
L 55.515625 0 
L 55.515625 34.71875 
L 19.671875 34.71875 
L 19.671875 0 
L 9.8125 0 
z
" id="DejaVuSans-72"/>
    </defs>
    <g transform="translate(444.654219 434.684656)scale(0.14 -0.14)">
     <use xlink:href="#DejaVuSans-72"/>
     <use x="75.195312" xlink:href="#DejaVuSans-97"/>
     <use x="136.474609" xlink:href="#DejaVuSans-115"/>
     <use x="188.574219" xlink:href="#DejaVuSans-32"/>
     <use x="220.361328" xlink:href="#DejaVuSans-67"/>
     <use x="290.185547" xlink:href="#DejaVuSans-101"/>
     <use x="351.708984" xlink:href="#DejaVuSans-114"/>
     <use x="392.822266" xlink:href="#DejaVuSans-116"/>
     <use x="432.03125" xlink:href="#DejaVuSans-105"/>
     <use x="459.814453" xlink:href="#DejaVuSans-102"/>
     <use x="495.019531" xlink:href="#DejaVuSans-105"/>
     <use x="522.802734" xlink:href="#DejaVuSans-99"/>
     <use x="577.783203" xlink:href="#DejaVuSans-97"/>
     <use x="639.0625" xlink:href="#DejaVuSans-116"/>
     <use x="678.271484" xlink:href="#DejaVuSans-101"/>
    </g>
    <!-- (n=857) -->
    <defs>
     <path d="M 31.78125 34.625 
Q 24.75 34.625 20.71875 30.859375 
Q 16.703125 27.09375 16.703125 20.515625 
Q 16.703125 13.921875 20.71875 10.15625 
Q 24.75 6.390625 31.78125 6.390625 
Q 38.8125 6.390625 42.859375 10.171875 
Q 46.921875 13.96875 46.921875 20.515625 
Q 46.921875 27.09375 42.890625 30.859375 
Q 38.875 34.625 31.78125 34.625 
z
M 21.921875 38.8125 
Q 15.578125 40.375 12.03125 44.71875 
Q 8.5 49.078125 8.5 55.328125 
Q 8.5 64.0625 14.71875 69.140625 
Q 20.953125 74.21875 31.78125 74.21875 
Q 42.671875 74.21875 48.875 69.140625 
Q 55.078125 64.0625 55.078125 55.328125 
Q 55.078125 49.078125 51.53125 44.71875 
Q 48 40.375 41.703125 38.8125 
Q 48.828125 37.15625 52.796875 32.3125 
Q 56.78125 27.484375 56.78125 20.515625 
Q 56.78125 9.90625 50.3125 4.234375 
Q 43.84375 -1.421875 31.78125 -1.421875 
Q 19.734375 -1.421875 13.25 4.234375 
Q 6.78125 9.90625 6.78125 20.515625 
Q 6.78125 27.484375 10.78125 32.3125 
Q 14.796875 37.15625 21.921875 38.8125 
z
M 18.3125 54.390625 
Q 18.3125 48.734375 21.84375 45.5625 
Q 25.390625 42.390625 31.78125 42.390625 
Q 38.140625 42.390625 41.71875 45.5625 
Q 45.3125 48.734375 45.3125 54.390625 
Q 45.3125 60.0625 41.71875 63.234375 
Q 38.140625 66.40625 31.78125 66.40625 
Q 25.390625 66.40625 21.84375 63.234375 
Q 18.3125 60.0625 18.3125 54.390625 
z
" id="DejaVuSans-56"/>
    </defs>
    <g transform="translate(467.314531 450.361594)scale(0.14 -0.14)">
     <use xlink:href="#DejaVuSans-40"/>
     <use x="39.013672" xlink:href="#DejaVuSans-110"/>
     <use x="102.392578" xlink:href="#DejaVuSans-61"/>
     <use x="186.181641" xlink:href="#DejaVuSans-56"/>
     <use x="249.804688" xlink:href="#DejaVuSans-53"/>
     <use x="313.427734" xlink:href="#DejaVuSans-55"/>
     <use x="377.050781" xlink:href="#DejaVuSans-41"/>
    </g>
   </g>
   <g id="text_12">
    <!-- QC Analysis -->
    <defs>
     <path d="M 39.40625 66.21875 
Q 28.65625 66.21875 22.328125 58.203125 
Q 16.015625 50.203125 16.015625 36.375 
Q 16.015625 22.609375 22.328125 14.59375 
Q 28.65625 6.59375 39.40625 6.59375 
Q 50.140625 6.59375 56.421875 14.59375 
Q 62.703125 22.609375 62.703125 36.375 
Q 62.703125 50.203125 56.421875 58.203125 
Q 50.140625 66.21875 39.40625 66.21875 
z
M 53.21875 1.3125 
L 66.21875 -12.890625 
L 54.296875 -12.890625 
L 43.5 -1.21875 
Q 41.890625 -1.3125 41.03125 -1.359375 
Q 40.1875 -1.421875 39.40625 -1.421875 
Q 24.03125 -1.421875 14.8125 8.859375 
Q 5.609375 19.140625 5.609375 36.375 
Q 5.609375 53.65625 14.8125 63.9375 
Q 24.03125 74.21875 39.40625 74.21875 
Q 54.734375 74.21875 63.90625 63.9375 
Q 73.09375 53.65625 73.09375 36.375 
Q 73.09375 23.6875 67.984375 14.640625 
Q 62.890625 5.609375 53.21875 1.3125 
z
" id="DejaVuSans-81"/>
    </defs>
    <g transform="translate(649.377031 243.623125)scale(0.14 -0.14)">
     <use xlink:href="#DejaVuSans-81"/>
     <use x="78.710938" xlink:href="#DejaVuSans-67"/>
     <use x="148.535156" xlink:href="#DejaVuSans-32"/>
     <use x="180.322266" xlink:href="#DejaVuSans-65"/>
     <use x="248.730469" xlink:href="#DejaVuSans-110"/>
     <use x="312.109375" xlink:href="#DejaVuSans-97"/>
     <use x="373.388672" xlink:href="#DejaVuSans-108"/>
     <use x="401.171875" xlink:href="#DejaVuSans-121"/>
     <use x="460.351562" xlink:href="#DejaVuSans-115"/>
     <use x="512.451172" xlink:href="#DejaVuSans-105"/>
     <use x="540.234375" xlink:href="#DejaVuSans-115"/>
    </g>
   </g>
   <g id="text_13">
    <!-- No Results -->
    <g transform="translate(745.175937 292.521562)scale(0.1 -0.1)">
     <use xlink:href="#DejaVuSans-78"/>
     <use x="74.804688" xlink:href="#DejaVuSans-111"/>
     <use x="135.986328" xlink:href="#DejaVuSans-32"/>
     <use x="167.773438" xlink:href="#DejaVuSans-82"/>
     <use x="237.193359" xlink:href="#DejaVuSans-101"/>
     <use x="298.716797" xlink:href="#DejaVuSans-115"/>
     <use x="350.816406" xlink:href="#DejaVuSans-117"/>
     <use x="414.195312" xlink:href="#DejaVuSans-108"/>
     <use x="441.978516" xlink:href="#DejaVuSans-116"/>
     <use x="481.1875" xlink:href="#DejaVuSans-115"/>
    </g>
    <!-- Submission -->
    <defs>
     <path d="M 53.515625 70.515625 
L 53.515625 60.890625 
Q 47.90625 63.578125 42.921875 64.890625 
Q 37.9375 66.21875 33.296875 66.21875 
Q 25.25 66.21875 20.875 63.09375 
Q 16.5 59.96875 16.5 54.203125 
Q 16.5 49.359375 19.40625 46.890625 
Q 22.3125 44.4375 30.421875 42.921875 
L 36.375 41.703125 
Q 47.40625 39.59375 52.65625 34.296875 
Q 57.90625 29 57.90625 20.125 
Q 57.90625 9.515625 50.796875 4.046875 
Q 43.703125 -1.421875 29.984375 -1.421875 
Q 24.8125 -1.421875 18.96875 -0.25 
Q 13.140625 0.921875 6.890625 3.21875 
L 6.890625 13.375 
Q 12.890625 10.015625 18.65625 8.296875 
Q 24.421875 6.59375 29.984375 6.59375 
Q 38.421875 6.59375 43.015625 9.90625 
Q 47.609375 13.234375 47.609375 19.390625 
Q 47.609375 24.75 44.3125 27.78125 
Q 41.015625 30.8125 33.5 32.328125 
L 27.484375 33.5 
Q 16.453125 35.6875 11.515625 40.375 
Q 6.59375 45.0625 6.59375 53.421875 
Q 6.59375 63.09375 13.40625 68.65625 
Q 20.21875 74.21875 32.171875 74.21875 
Q 37.3125 74.21875 42.625 73.28125 
Q 47.953125 72.359375 53.515625 70.515625 
z
" id="DejaVuSans-83"/>
    </defs>
    <g transform="translate(743.236875 303.719375)scale(0.1 -0.1)">
     <use xlink:href="#DejaVuSans-83"/>
     <use x="63.476562" xlink:href="#DejaVuSans-117"/>
     <use x="126.855469" xlink:href="#DejaVuSans-98"/>
     <use x="190.332031" xlink:href="#DejaVuSans-109"/>
     <use x="287.744141" xlink:href="#DejaVuSans-105"/>
     <use x="315.527344" xlink:href="#DejaVuSans-115"/>
     <use x="367.626953" xlink:href="#DejaVuSans-115"/>
     <use x="419.726562" xlink:href="#DejaVuSans-105"/>
     <use x="447.509766" xlink:href="#DejaVuSans-111"/>
     <use x="508.691406" xlink:href="#DejaVuSans-110"/>
    </g>
    <!-- (n=19080) -->
    <g transform="translate(744.673594 314.917187)scale(0.1 -0.1)">
     <use xlink:href="#DejaVuSans-40"/>
     <use x="39.013672" xlink:href="#DejaVuSans-110"/>
     <use x="102.392578" xlink:href="#DejaVuSans-61"/>
     <use x="186.181641" xlink:href="#DejaVuSans-49"/>
     <use x="249.804688" xlink:href="#DejaVuSans-57"/>
     <use x="313.427734" xlink:href="#DejaVuSans-48"/>
     <use x="377.050781" xlink:href="#DejaVuSans-56"/>
     <use x="440.673828" xlink:href="#DejaVuSans-48"/>
     <use x="504.296875" xlink:href="#DejaVuSans-41"/>
    </g>
   </g>
   <g id="text_14">
    <!-- Pending QC -->
    <g transform="translate(661.659531 367.524844)scale(0.1 -0.1)">
     <use xlink:href="#DejaVuSans-80"/>
     <use x="60.255859" xlink:href="#DejaVuSans-101"/>
     <use x="121.779297" xlink:href="#DejaVuSans-110"/>
     <use x="185.158203" xlink:href="#DejaVuSans-100"/>
     <use x="248.634766" xlink:href="#DejaVuSans-105"/>
     <use x="276.417969" xlink:href="#DejaVuSans-110"/>
     <use x="339.796875" xlink:href="#DejaVuSans-103"/>
     <use x="403.273438" xlink:href="#DejaVuSans-32"/>
     <use x="435.060547" xlink:href="#DejaVuSans-81"/>
     <use x="513.771484" xlink:href="#DejaVuSans-67"/>
    </g>
    <!-- (n=601) -->
    <g transform="translate(670.036094 378.722656)scale(0.1 -0.1)">
     <use xlink:href="#DejaVuSans-40"/>
     <use x="39.013672" xlink:href="#DejaVuSans-110"/>
     <use x="102.392578" xlink:href="#DejaVuSans-61"/>
     <use x="186.181641" xlink:href="#DejaVuSans-54"/>
     <use x="249.804688" xlink:href="#DejaVuSans-48"/>
     <use x="313.427734" xlink:href="#DejaVuSans-49"/>
     <use x="377.050781" xlink:href="#DejaVuSans-41"/>
    </g>
    <!-- Completed QC -->
    <g transform="translate(654.551719 389.920469)scale(0.1 -0.1)">
     <use xlink:href="#DejaVuSans-67"/>
     <use x="69.824219" xlink:href="#DejaVuSans-111"/>
     <use x="131.005859" xlink:href="#DejaVuSans-109"/>
     <use x="228.417969" xlink:href="#DejaVuSans-112"/>
     <use x="291.894531" xlink:href="#DejaVuSans-108"/>
     <use x="319.677734" xlink:href="#DejaVuSans-101"/>
     <use x="381.201172" xlink:href="#DejaVuSans-116"/>
     <use x="420.410156" xlink:href="#DejaVuSans-101"/>
     <use x="481.933594" xlink:href="#DejaVuSans-100"/>
     <use x="545.410156" xlink:href="#DejaVuSans-32"/>
     <use x="577.197266" xlink:href="#DejaVuSans-81"/>
     <use x="655.908203" xlink:href="#DejaVuSans-67"/>
    </g>
    <!-- (n=3221) -->
    <g transform="translate(666.854844 401.118281)scale(0.1 -0.1)">
     <use xlink:href="#DejaVuSans-40"/>
     <use x="39.013672" xlink:href="#DejaVuSans-110"/>
     <use x="102.392578" xlink:href="#DejaVuSans-61"/>
     <use x="186.181641" xlink:href="#DejaVuSans-51"/>
     <use x="249.804688" xlink:href="#DejaVuSans-50"/>
     <use x="313.427734" xlink:href="#DejaVuSans-50"/>
     <use x="377.050781" xlink:href="#DejaVuSans-49"/>
     <use x="440.673828" xlink:href="#DejaVuSans-41"/>
    </g>
    <!-- Total Submitted -->
    <g transform="translate(650.79 412.316094)scale(0.1 -0.1)">
     <use xlink:href="#DejaVuSans-84"/>
     <use x="60.818359" xlink:href="#DejaVuSans-111"/>
     <use x="122" xlink:href="#DejaVuSans-116"/>
     <use x="161.208984" xlink:href="#DejaVuSans-97"/>
     <use x="222.488281" xlink:href="#DejaVuSans-108"/>
     <use x="250.271484" xlink:href="#DejaVuSans-32"/>
     <use x="282.058594" xlink:href="#DejaVuSans-83"/>
     <use x="345.535156" xlink:href="#DejaVuSans-117"/>
     <use x="408.914062" xlink:href="#DejaVuSans-98"/>
     <use x="472.390625" xlink:href="#DejaVuSans-109"/>
     <use x="569.802734" xlink:href="#DejaVuSans-105"/>
     <use x="597.585938" xlink:href="#DejaVuSans-116"/>
     <use x="636.794922" xlink:href="#DejaVuSans-116"/>
     <use x="676.003906" xlink:href="#DejaVuSans-101"/>
     <use x="737.527344" xlink:href="#DejaVuSans-100"/>
    </g>
    <!-- (n=3821) -->
    <g transform="translate(666.854844 423.513906)scale(0.1 -0.1)">
     <use xlink:href="#DejaVuSans-40"/>
     <use x="39.013672" xlink:href="#DejaVuSans-110"/>
     <use x="102.392578" xlink:href="#DejaVuSans-61"/>
     <use x="186.181641" xlink:href="#DejaVuSans-51"/>
     <use x="249.804688" xlink:href="#DejaVuSans-56"/>
     <use x="313.427734" xlink:href="#DejaVuSans-50"/>
     <use x="377.050781" xlink:href="#DejaVuSans-49"/>
     <use x="440.673828" xlink:href="#DejaVuSans-41"/>
    </g>
   </g>
   <g id="text_15">
    <!-- No QC Detail -->
    <g transform="translate(731.605625 481.720469)scale(0.1 -0.1)">
     <use xlink:href="#DejaVuSans-78"/>
     <use x="74.804688" xlink:href="#DejaVuSans-111"/>
     <use x="135.986328" xlink:href="#DejaVuSans-32"/>
     <use x="167.773438" xlink:href="#DejaVuSans-81"/>
     <use x="246.484375" xlink:href="#DejaVuSans-67"/>
     <use x="316.308594" xlink:href="#DejaVuSans-32"/>
     <use x="348.095703" xlink:href="#DejaVuSans-68"/>
     <use x="425.097656" xlink:href="#DejaVuSans-101"/>
     <use x="486.621094" xlink:href="#DejaVuSans-116"/>
     <use x="525.830078" xlink:href="#DejaVuSans-97"/>
     <use x="587.109375" xlink:href="#DejaVuSans-105"/>
     <use x="614.892578" xlink:href="#DejaVuSans-108"/>
    </g>
    <!-- (n=29) -->
    <g transform="translate(746.117344 492.918281)scale(0.1 -0.1)">
     <use xlink:href="#DejaVuSans-40"/>
     <use x="39.013672" xlink:href="#DejaVuSans-110"/>
     <use x="102.392578" xlink:href="#DejaVuSans-61"/>
     <use x="186.181641" xlink:href="#DejaVuSans-50"/>
     <use x="249.804688" xlink:href="#DejaVuSans-57"/>
     <use x="313.427734" xlink:href="#DejaVuSans-41"/>
    </g>
   </g>
   <g id="text_16">
    <!-- Detailed QC -->
    <g transform="translate(648.845469 549.246187)scale(0.14 -0.14)">
     <use xlink:href="#DejaVuSans-68"/>
     <use x="77.001953" xlink:href="#DejaVuSans-101"/>
     <use x="138.525391" xlink:href="#DejaVuSans-116"/>
     <use x="177.734375" xlink:href="#DejaVuSans-97"/>
     <use x="239.013672" xlink:href="#DejaVuSans-105"/>
     <use x="266.796875" xlink:href="#DejaVuSans-108"/>
     <use x="294.580078" xlink:href="#DejaVuSans-101"/>
     <use x="356.103516" xlink:href="#DejaVuSans-100"/>
     <use x="419.580078" xlink:href="#DejaVuSans-32"/>
     <use x="451.367188" xlink:href="#DejaVuSans-81"/>
     <use x="530.078125" xlink:href="#DejaVuSans-67"/>
    </g>
    <!-- Data -->
    <g transform="translate(674.126406 564.923125)scale(0.14 -0.14)">
     <use xlink:href="#DejaVuSans-68"/>
     <use x="77.001953" xlink:href="#DejaVuSans-97"/>
     <use x="138.28125" xlink:href="#DejaVuSans-116"/>
     <use x="177.490234" xlink:href="#DejaVuSans-97"/>
    </g>
    <!-- (n=3793) -->
    <g transform="translate(657.260781 580.600062)scale(0.14 -0.14)">
     <use xlink:href="#DejaVuSans-40"/>
     <use x="39.013672" xlink:href="#DejaVuSans-110"/>
     <use x="102.392578" xlink:href="#DejaVuSans-61"/>
     <use x="186.181641" xlink:href="#DejaVuSans-51"/>
     <use x="249.804688" xlink:href="#DejaVuSans-55"/>
     <use x="313.427734" xlink:href="#DejaVuSans-57"/>
     <use x="377.050781" xlink:href="#DejaVuSans-51"/>
     <use x="440.673828" xlink:href="#DejaVuSans-41"/>
    </g>
   </g>
   <g id="text_17">
    <!-- Results -->
    <g transform="translate(859.655 243.434656)scale(0.14 -0.14)">
     <use xlink:href="#DejaVuSans-82"/>
     <use x="69.419922" xlink:href="#DejaVuSans-101"/>
     <use x="130.943359" xlink:href="#DejaVuSans-115"/>
     <use x="183.042969" xlink:href="#DejaVuSans-117"/>
     <use x="246.421875" xlink:href="#DejaVuSans-108"/>
     <use x="274.205078" xlink:href="#DejaVuSans-116"/>
     <use x="313.414062" xlink:href="#DejaVuSans-115"/>
    </g>
    <!-- Documents -->
    <g transform="translate(845.329062 259.111594)scale(0.14 -0.14)">
     <use xlink:href="#DejaVuSans-68"/>
     <use x="77.001953" xlink:href="#DejaVuSans-111"/>
     <use x="138.183594" xlink:href="#DejaVuSans-99"/>
     <use x="193.164062" xlink:href="#DejaVuSans-117"/>
     <use x="256.542969" xlink:href="#DejaVuSans-109"/>
     <use x="353.955078" xlink:href="#DejaVuSans-101"/>
     <use x="415.478516" xlink:href="#DejaVuSans-110"/>
     <use x="478.857422" xlink:href="#DejaVuSans-116"/>
     <use x="518.066406" xlink:href="#DejaVuSans-115"/>
    </g>
   </g>
   <g id="text_18">
    <!-- Results Not Due -->
    <g transform="translate(925.931406 313.420469)scale(0.1 -0.1)">
     <use xlink:href="#DejaVuSans-82"/>
     <use x="69.419922" xlink:href="#DejaVuSans-101"/>
     <use x="130.943359" xlink:href="#DejaVuSans-115"/>
     <use x="183.042969" xlink:href="#DejaVuSans-117"/>
     <use x="246.421875" xlink:href="#DejaVuSans-108"/>
     <use x="274.205078" xlink:href="#DejaVuSans-116"/>
     <use x="313.414062" xlink:href="#DejaVuSans-115"/>
     <use x="365.513672" xlink:href="#DejaVuSans-32"/>
     <use x="397.300781" xlink:href="#DejaVuSans-78"/>
     <use x="472.105469" xlink:href="#DejaVuSans-111"/>
     <use x="533.287109" xlink:href="#DejaVuSans-116"/>
     <use x="572.496094" xlink:href="#DejaVuSans-32"/>
     <use x="604.283203" xlink:href="#DejaVuSans-68"/>
     <use x="681.285156" xlink:href="#DejaVuSans-117"/>
     <use x="744.664062" xlink:href="#DejaVuSans-101"/>
    </g>
    <!-- (n=17582) -->
    <g transform="translate(939.073594 324.618281)scale(0.1 -0.1)">
     <use xlink:href="#DejaVuSans-40"/>
     <use x="39.013672" xlink:href="#DejaVuSans-110"/>
     <use x="102.392578" xlink:href="#DejaVuSans-61"/>
     <use x="186.181641" xlink:href="#DejaVuSans-49"/>
     <use x="249.804688" xlink:href="#DejaVuSans-55"/>
     <use x="313.427734" xlink:href="#DejaVuSans-53"/>
     <use x="377.050781" xlink:href="#DejaVuSans-56"/>
     <use x="440.673828" xlink:href="#DejaVuSans-50"/>
     <use x="504.296875" xlink:href="#DejaVuSans-41"/>
    </g>
   </g>
   <g id="text_19">
    <!-- Results Due -->
    <g transform="translate(843.296875 396.434656)scale(0.14 -0.14)">
     <use xlink:href="#DejaVuSans-82"/>
     <use x="69.419922" xlink:href="#DejaVuSans-101"/>
     <use x="130.943359" xlink:href="#DejaVuSans-115"/>
     <use x="183.042969" xlink:href="#DejaVuSans-117"/>
     <use x="246.421875" xlink:href="#DejaVuSans-108"/>
     <use x="274.205078" xlink:href="#DejaVuSans-116"/>
     <use x="313.414062" xlink:href="#DejaVuSans-115"/>
     <use x="365.513672" xlink:href="#DejaVuSans-32"/>
     <use x="397.300781" xlink:href="#DejaVuSans-68"/>
     <use x="474.302734" xlink:href="#DejaVuSans-117"/>
     <use x="537.681641" xlink:href="#DejaVuSans-101"/>
    </g>
    <!-- (n=5320) -->
    <g transform="translate(851.660781 412.111594)scale(0.14 -0.14)">
     <use xlink:href="#DejaVuSans-40"/>
     <use x="39.013672" xlink:href="#DejaVuSans-110"/>
     <use x="102.392578" xlink:href="#DejaVuSans-61"/>
     <use x="186.181641" xlink:href="#DejaVuSans-53"/>
     <use x="249.804688" xlink:href="#DejaVuSans-51"/>
     <use x="313.427734" xlink:href="#DejaVuSans-50"/>
     <use x="377.050781" xlink:href="#DejaVuSans-48"/>
     <use x="440.673828" xlink:href="#DejaVuSans-41"/>
    </g>
   </g>
   <g id="text_20">
    <!-- No Results -->
    <g transform="translate(939.575937 455.222656)scale(0.1 -0.1)">
     <use xlink:href="#DejaVuSans-78"/>
     <use x="74.804688" xlink:href="#DejaVuSans-111"/>
     <use x="135.986328" xlink:href="#DejaVuSans-32"/>
     <use x="167.773438" xlink:href="#DejaVuSans-82"/>
     <use x="237.193359" xlink:href="#DejaVuSans-101"/>
     <use x="298.716797" xlink:href="#DejaVuSans-115"/>
     <use x="350.816406" xlink:href="#DejaVuSans-117"/>
     <use x="414.195312" xlink:href="#DejaVuSans-108"/>
     <use x="441.978516" xlink:href="#DejaVuSans-116"/>
     <use x="481.1875" xlink:href="#DejaVuSans-115"/>
    </g>
    <!-- (n=1911) -->
    <g transform="translate(942.254844 466.420469)scale(0.1 -0.1)">
     <use xlink:href="#DejaVuSans-40"/>
     <use x="39.013672" xlink:href="#DejaVuSans-110"/>
     <use x="102.392578" xlink:href="#DejaVuSans-61"/>
     <use x="186.181641" xlink:href="#DejaVuSans-49"/>
     <use x="249.804688" xlink:href="#DejaVuSans-57"/>
     <use x="313.427734" xlink:href="#DejaVuSans-49"/>
     <use x="377.050781" xlink:href="#DejaVuSans-49"/>
     <use x="440.673828" xlink:href="#DejaVuSans-41"/>
    </g>
    <!-- Pending Results -->
    <g transform="translate(926.211875 477.618281)scale(0.1 -0.1)">
     <use xlink:href="#DejaVuSans-80"/>
     <use x="60.255859" xlink:href="#DejaVuSans-101"/>
     <use x="121.779297" xlink:href="#DejaVuSans-110"/>
     <use x="185.158203" xlink:href="#DejaVuSans-100"/>
     <use x="248.634766" xlink:href="#DejaVuSans-105"/>
     <use x="276.417969" xlink:href="#DejaVuSans-110"/>
     <use x="339.796875" xlink:href="#DejaVuSans-103"/>
     <use x="403.273438" xlink:href="#DejaVuSans-32"/>
     <use x="435.060547" xlink:href="#DejaVuSans-82"/>
     <use x="504.480469" xlink:href="#DejaVuSans-101"/>
     <use x="566.003906" xlink:href="#DejaVuSans-115"/>
     <use x="618.103516" xlink:href="#DejaVuSans-117"/>
     <use x="681.482422" xlink:href="#DejaVuSans-108"/>
     <use x="709.265625" xlink:href="#DejaVuSans-116"/>
     <use x="748.474609" xlink:href="#DejaVuSans-115"/>
    </g>
    <!-- (n=476) -->
    <g transform="translate(945.436094 488.816094)scale(0.1 -0.1)">
     <use xlink:href="#DejaVuSans-40"/>
     <use x="39.013672" xlink:href="#DejaVuSans-110"/>
     <use x="102.392578" xlink:href="#DejaVuSans-61"/>
     <use x="186.181641" xlink:href="#DejaVuSans-52"/>
     <use x="249.804688" xlink:href="#DejaVuSans-55"/>
     <use x="313.427734" xlink:href="#DejaVuSans-54"/>
     <use x="377.050781" xlink:href="#DejaVuSans-41"/>
    </g>
   </g>
   <g id="text_21">
    <!-- Due w/ Results -->
    <g transform="translate(832.989375 557.084656)scale(0.14 -0.14)">
     <use xlink:href="#DejaVuSans-68"/>
     <use x="77.001953" xlink:href="#DejaVuSans-117"/>
     <use x="140.380859" xlink:href="#DejaVuSans-101"/>
     <use x="201.904297" xlink:href="#DejaVuSans-32"/>
     <use x="233.691406" xlink:href="#DejaVuSans-119"/>
     <use x="315.478516" xlink:href="#DejaVuSans-47"/>
     <use x="349.169922" xlink:href="#DejaVuSans-32"/>
     <use x="380.957031" xlink:href="#DejaVuSans-82"/>
     <use x="450.376953" xlink:href="#DejaVuSans-101"/>
     <use x="511.900391" xlink:href="#DejaVuSans-115"/>
     <use x="564" xlink:href="#DejaVuSans-117"/>
     <use x="627.378906" xlink:href="#DejaVuSans-108"/>
     <use x="655.162109" xlink:href="#DejaVuSans-116"/>
     <use x="694.371094" xlink:href="#DejaVuSans-115"/>
    </g>
    <!-- (n=2933) -->
    <g transform="translate(851.660781 572.761594)scale(0.14 -0.14)">
     <use xlink:href="#DejaVuSans-40"/>
     <use x="39.013672" xlink:href="#DejaVuSans-110"/>
     <use x="102.392578" xlink:href="#DejaVuSans-61"/>
     <use x="186.181641" xlink:href="#DejaVuSans-50"/>
     <use x="249.804688" xlink:href="#DejaVuSans-57"/>
     <use x="313.427734" xlink:href="#DejaVuSans-51"/>
     <use x="377.050781" xlink:href="#DejaVuSans-51"/>
     <use x="440.673828" xlink:href="#DejaVuSans-41"/>
    </g>
   </g>
  </g>
 </g>
 <defs>
  <clipPath id="p5eab142ac5">
   <rect height="587.52" width="1010.88" x="7.2" y="7.2"/>
  </clipPath>
 </defs>
</svg>
