<?xml version="1.0" encoding="utf-8" standalone="no"?>
<!DOCTYPE svg PUBLIC "-//W3C//DTD SVG 1.1//EN"
  "http://www.w3.org/Graphics/SVG/1.1/DTD/svg11.dtd">
<!-- Created with matplotlib (https://matplotlib.org/) -->
<svg height="720pt" version="1.1" viewBox="0 0 1080 720" width="1080pt" xmlns="http://www.w3.org/2000/svg" xmlns:xlink="http://www.w3.org/1999/xlink">
 <defs>
  <style type="text/css">
*{stroke-linecap:butt;stroke-linejoin:round;}
  </style>
 </defs>
 <g id="figure_1">
  <g id="patch_1">
   <path d="M 0 720 
L 1080 720 
L 1080 0 
L 0 0 
z
" style="fill:#ffffff;"/>
  </g>
  <g id="axes_1">
   <g id="patch_2">
    <path d="M 66.08 639.596 
L 1061.488125 639.596 
L 1061.488125 46.16 
L 66.08 46.16 
z
" style="fill:#ffffff;"/>
   </g>
   <g id="matplotlib.axis_1">
    <g id="xtick_1">
     <g id="line2d_1">
      <path clip-path="url(#pebf22b4ba8)" d="M 111.325824 639.596 
L 111.325824 46.16 
" style="fill:none;stroke:#b0b0b0;stroke-linecap:square;stroke-width:0.8;"/>
     </g>
     <g id="line2d_2">
      <defs>
       <path d="M 0 0 
L 0 3.5 
" id="m0bfda23853" style="stroke:#000000;stroke-width:0.8;"/>
      </defs>
      <g>
       <use style="stroke:#000000;stroke-width:0.8;" x="111.325824" xlink:href="#m0bfda23853" y="639.596"/>
      </g>
     </g>
     <g id="text_1">
      <!-- 0 -->
      <defs>
       <path d="M 31.78125 66.40625 
Q 24.171875 66.40625 20.328125 58.90625 
Q 16.5 51.421875 16.5 36.375 
Q 16.5 21.390625 20.328125 13.890625 
Q 24.171875 6.390625 31.78125 6.390625 
Q 39.453125 6.390625 43.28125 13.890625 
Q 47.125 21.390625 47.125 36.375 
Q 47.125 51.421875 43.28125 58.90625 
Q 39.453125 66.40625 31.78125 66.40625 
z
M 31.78125 74.21875 
Q 44.046875 74.21875 50.515625 64.515625 
Q 56.984375 54.828125 56.984375 36.375 
Q 56.984375 17.96875 50.515625 8.265625 
Q 44.046875 -1.421875 31.78125 -1.421875 
Q 19.53125 -1.421875 13.0625 8.265625 
Q 6.59375 17.96875 6.59375 36.375 
Q 6.59375 54.828125 13.0625 64.515625 
Q 19.53125 74.21875 31.78125 74.21875 
z
" id="DejaVuSans-48"/>
      </defs>
      <g transform="translate(106.553949 657.993656)scale(0.15 -0.15)">
       <use xlink:href="#DejaVuSans-48"/>
      </g>
     </g>
    </g>
    <g id="xtick_2">
     <g id="line2d_3">
      <path clip-path="url(#pebf22b4ba8)" d="M 295.626532 639.596 
L 295.626532 46.16 
" style="fill:none;stroke:#b0b0b0;stroke-linecap:square;stroke-width:0.8;"/>
     </g>
     <g id="line2d_4">
      <g>
       <use style="stroke:#000000;stroke-width:0.8;" x="295.626532" xlink:href="#m0bfda23853" y="639.596"/>
      </g>
     </g>
     <g id="text_2">
      <!-- 200 -->
      <defs>
       <path d="M 19.1875 8.296875 
L 53.609375 8.296875 
L 53.609375 0 
L 7.328125 0 
L 7.328125 8.296875 
Q 12.9375 14.109375 22.625 23.890625 
Q 32.328125 33.6875 34.8125 36.53125 
Q 39.546875 41.84375 41.421875 45.53125 
Q 43.3125 49.21875 43.3125 52.78125 
Q 43.3125 58.59375 39.234375 62.25 
Q 35.15625 65.921875 28.609375 65.921875 
Q 23.96875 65.921875 18.8125 64.3125 
Q 13.671875 62.703125 7.8125 59.421875 
L 7.8125 69.390625 
Q 13.765625 71.78125 18.9375 73 
Q 24.125 74.21875 28.421875 74.21875 
Q 39.75 74.21875 46.484375 68.546875 
Q 53.21875 62.890625 53.21875 53.421875 
Q 53.21875 48.921875 51.53125 44.890625 
Q 49.859375 40.875 45.40625 35.40625 
Q 44.1875 33.984375 37.640625 27.21875 
Q 31.109375 20.453125 19.1875 8.296875 
z
" id="DejaVuSans-50"/>
      </defs>
      <g transform="translate(281.310907 657.993656)scale(0.15 -0.15)">
       <use xlink:href="#DejaVuSans-50"/>
       <use x="63.623047" xlink:href="#DejaVuSans-48"/>
       <use x="127.246094" xlink:href="#DejaVuSans-48"/>
      </g>
     </g>
    </g>
    <g id="xtick_3">
     <g id="line2d_5">
      <path clip-path="url(#pebf22b4ba8)" d="M 479.92724 639.596 
L 479.92724 46.16 
" style="fill:none;stroke:#b0b0b0;stroke-linecap:square;stroke-width:0.8;"/>
     </g>
     <g id="line2d_6">
      <g>
       <use style="stroke:#000000;stroke-width:0.8;" x="479.92724" xlink:href="#m0bfda23853" y="639.596"/>
      </g>
     </g>
     <g id="text_3">
      <!-- 400 -->
      <defs>
       <path d="M 37.796875 64.3125 
L 12.890625 25.390625 
L 37.796875 25.390625 
z
M 35.203125 72.90625 
L 47.609375 72.90625 
L 47.609375 25.390625 
L 58.015625 25.390625 
L 58.015625 17.1875 
L 47.609375 17.1875 
L 47.609375 0 
L 37.796875 0 
L 37.796875 17.1875 
L 4.890625 17.1875 
L 4.890625 26.703125 
z
" id="DejaVuSans-52"/>
      </defs>
      <g transform="translate(465.611615 657.993656)scale(0.15 -0.15)">
       <use xlink:href="#DejaVuSans-52"/>
       <use x="63.623047" xlink:href="#DejaVuSans-48"/>
       <use x="127.246094" xlink:href="#DejaVuSans-48"/>
      </g>
     </g>
    </g>
    <g id="xtick_4">
     <g id="line2d_7">
      <path clip-path="url(#pebf22b4ba8)" d="M 664.227948 639.596 
L 664.227948 46.16 
" style="fill:none;stroke:#b0b0b0;stroke-linecap:square;stroke-width:0.8;"/>
     </g>
     <g id="line2d_8">
      <g>
       <use style="stroke:#000000;stroke-width:0.8;" x="664.227948" xlink:href="#m0bfda23853" y="639.596"/>
      </g>
     </g>
     <g id="text_4">
      <!-- 600 -->
      <defs>
       <path d="M 33.015625 40.375 
Q 26.375 40.375 22.484375 35.828125 
Q 18.609375 31.296875 18.609375 23.390625 
Q 18.609375 15.53125 22.484375 10.953125 
Q 26.375 6.390625 33.015625 6.390625 
Q 39.65625 6.390625 43.53125 10.953125 
Q 47.40625 15.53125 47.40625 23.390625 
Q 47.40625 31.296875 43.53125 35.828125 
Q 39.65625 40.375 33.015625 40.375 
z
M 52.59375 71.296875 
L 52.59375 62.3125 
Q 48.875 64.0625 45.09375 64.984375 
Q 41.3125 65.921875 37.59375 65.921875 
Q 27.828125 65.921875 22.671875 59.328125 
Q 17.53125 52.734375 16.796875 39.40625 
Q 19.671875 43.65625 24.015625 45.921875 
Q 28.375 48.1875 33.59375 48.1875 
Q 44.578125 48.1875 50.953125 41.515625 
Q 57.328125 34.859375 57.328125 23.390625 
Q 57.328125 12.15625 50.6875 5.359375 
Q 44.046875 -1.421875 33.015625 -1.421875 
Q 20.359375 -1.421875 13.671875 8.265625 
Q 6.984375 17.96875 6.984375 36.375 
Q 6.984375 53.65625 15.1875 63.9375 
Q 23.390625 74.21875 37.203125 74.21875 
Q 40.921875 74.21875 44.703125 73.484375 
Q 48.484375 72.75 52.59375 71.296875 
z
" id="DejaVuSans-54"/>
      </defs>
      <g transform="translate(649.912323 657.993656)scale(0.15 -0.15)">
       <use xlink:href="#DejaVuSans-54"/>
       <use x="63.623047" xlink:href="#DejaVuSans-48"/>
       <use x="127.246094" xlink:href="#DejaVuSans-48"/>
      </g>
     </g>
    </g>
    <g id="xtick_5">
     <g id="line2d_9">
      <path clip-path="url(#pebf22b4ba8)" d="M 848.528657 639.596 
L 848.528657 46.16 
" style="fill:none;stroke:#b0b0b0;stroke-linecap:square;stroke-width:0.8;"/>
     </g>
     <g id="line2d_10">
      <g>
       <use style="stroke:#000000;stroke-width:0.8;" x="848.528657" xlink:href="#m0bfda23853" y="639.596"/>
      </g>
     </g>
     <g id="text_5">
      <!-- 800 -->
      <defs>
       <path d="M 31.78125 34.625 
Q 24.75 34.625 20.71875 30.859375 
Q 16.703125 27.09375 16.703125 20.515625 
Q 16.703125 13.921875 20.71875 10.15625 
Q 24.75 6.390625 31.78125 6.390625 
Q 38.8125 6.390625 42.859375 10.171875 
Q 46.921875 13.96875 46.921875 20.515625 
Q 46.921875 27.09375 42.890625 30.859375 
Q 38.875 34.625 31.78125 34.625 
z
M 21.921875 38.8125 
Q 15.578125 40.375 12.03125 44.71875 
Q 8.5 49.078125 8.5 55.328125 
Q 8.5 64.0625 14.71875 69.140625 
Q 20.953125 74.21875 31.78125 74.21875 
Q 42.671875 74.21875 48.875 69.140625 
Q 55.078125 64.0625 55.078125 55.328125 
Q 55.078125 49.078125 51.53125 44.71875 
Q 48 40.375 41.703125 38.8125 
Q 48.828125 37.15625 52.796875 32.3125 
Q 56.78125 27.484375 56.78125 20.515625 
Q 56.78125 9.90625 50.3125 4.234375 
Q 43.84375 -1.421875 31.78125 -1.421875 
Q 19.734375 -1.421875 13.25 4.234375 
Q 6.78125 9.90625 6.78125 20.515625 
Q 6.78125 27.484375 10.78125 32.3125 
Q 14.796875 37.15625 21.921875 38.8125 
z
M 18.3125 54.390625 
Q 18.3125 48.734375 21.84375 45.5625 
Q 25.390625 42.390625 31.78125 42.390625 
Q 38.140625 42.390625 41.71875 45.5625 
Q 45.3125 48.734375 45.3125 54.390625 
Q 45.3125 60.0625 41.71875 63.234375 
Q 38.140625 66.40625 31.78125 66.40625 
Q 25.390625 66.40625 21.84375 63.234375 
Q 18.3125 60.0625 18.3125 54.390625 
z
" id="DejaVuSans-56"/>
      </defs>
      <g transform="translate(834.213032 657.993656)scale(0.15 -0.15)">
       <use xlink:href="#DejaVuSans-56"/>
       <use x="63.623047" xlink:href="#DejaVuSans-48"/>
       <use x="127.246094" xlink:href="#DejaVuSans-48"/>
      </g>
     </g>
    </g>
    <g id="xtick_6">
     <g id="line2d_11">
      <path clip-path="url(#pebf22b4ba8)" d="M 1032.829365 639.596 
L 1032.829365 46.16 
" style="fill:none;stroke:#b0b0b0;stroke-linecap:square;stroke-width:0.8;"/>
     </g>
     <g id="line2d_12">
      <g>
       <use style="stroke:#000000;stroke-width:0.8;" x="1032.829365" xlink:href="#m0bfda23853" y="639.596"/>
      </g>
     </g>
     <g id="text_6">
      <!-- 1000 -->
      <defs>
       <path d="M 12.40625 8.296875 
L 28.515625 8.296875 
L 28.515625 63.921875 
L 10.984375 60.40625 
L 10.984375 69.390625 
L 28.421875 72.90625 
L 38.28125 72.90625 
L 38.28125 8.296875 
L 54.390625 8.296875 
L 54.390625 0 
L 12.40625 0 
z
" id="DejaVuSans-49"/>
      </defs>
      <g transform="translate(1013.741865 657.993656)scale(0.15 -0.15)">
       <use xlink:href="#DejaVuSans-49"/>
       <use x="63.623047" xlink:href="#DejaVuSans-48"/>
       <use x="127.246094" xlink:href="#DejaVuSans-48"/>
       <use x="190.869141" xlink:href="#DejaVuSans-48"/>
      </g>
     </g>
    </g>
    <g id="text_7">
     <!-- Days From Submission -->
     <defs>
      <path d="M 19.671875 64.796875 
L 19.671875 8.109375 
L 31.59375 8.109375 
Q 46.6875 8.109375 53.6875 14.9375 
Q 60.6875 21.78125 60.6875 36.53125 
Q 60.6875 51.171875 53.6875 57.984375 
Q 46.6875 64.796875 31.59375 64.796875 
z
M 9.8125 72.90625 
L 30.078125 72.90625 
Q 51.265625 72.90625 61.171875 64.09375 
Q 71.09375 55.28125 71.09375 36.53125 
Q 71.09375 17.671875 61.125 8.828125 
Q 51.171875 0 30.078125 0 
L 9.8125 0 
z
" id="DejaVuSans-68"/>
      <path d="M 34.28125 27.484375 
Q 23.390625 27.484375 19.1875 25 
Q 14.984375 22.515625 14.984375 16.5 
Q 14.984375 11.71875 18.140625 8.90625 
Q 21.296875 6.109375 26.703125 6.109375 
Q 34.1875 6.109375 38.703125 11.40625 
Q 43.21875 16.703125 43.21875 25.484375 
L 43.21875 27.484375 
z
M 52.203125 31.203125 
L 52.203125 0 
L 43.21875 0 
L 43.21875 8.296875 
Q 40.140625 3.328125 35.546875 0.953125 
Q 30.953125 -1.421875 24.3125 -1.421875 
Q 15.921875 -1.421875 10.953125 3.296875 
Q 6 8.015625 6 15.921875 
Q 6 25.140625 12.171875 29.828125 
Q 18.359375 34.515625 30.609375 34.515625 
L 43.21875 34.515625 
L 43.21875 35.40625 
Q 43.21875 41.609375 39.140625 45 
Q 35.0625 48.390625 27.6875 48.390625 
Q 23 48.390625 18.546875 47.265625 
Q 14.109375 46.140625 10.015625 43.890625 
L 10.015625 52.203125 
Q 14.9375 54.109375 19.578125 55.046875 
Q 24.21875 56 28.609375 56 
Q 40.484375 56 46.34375 49.84375 
Q 52.203125 43.703125 52.203125 31.203125 
z
" id="DejaVuSans-97"/>
      <path d="M 32.171875 -5.078125 
Q 28.375 -14.84375 24.75 -17.8125 
Q 21.140625 -20.796875 15.09375 -20.796875 
L 7.90625 -20.796875 
L 7.90625 -13.28125 
L 13.1875 -13.28125 
Q 16.890625 -13.28125 18.9375 -11.515625 
Q 21 -9.765625 23.484375 -3.21875 
L 25.09375 0.875 
L 2.984375 54.6875 
L 12.5 54.6875 
L 29.59375 11.921875 
L 46.6875 54.6875 
L 56.203125 54.6875 
z
" id="DejaVuSans-121"/>
      <path d="M 44.28125 53.078125 
L 44.28125 44.578125 
Q 40.484375 46.53125 36.375 47.5 
Q 32.28125 48.484375 27.875 48.484375 
Q 21.1875 48.484375 17.84375 46.4375 
Q 14.5 44.390625 14.5 40.28125 
Q 14.5 37.15625 16.890625 35.375 
Q 19.28125 33.59375 26.515625 31.984375 
L 29.59375 31.296875 
Q 39.15625 29.25 43.1875 25.515625 
Q 47.21875 21.78125 47.21875 15.09375 
Q 47.21875 7.46875 41.1875 3.015625 
Q 35.15625 -1.421875 24.609375 -1.421875 
Q 20.21875 -1.421875 15.453125 -0.5625 
Q 10.6875 0.296875 5.421875 2 
L 5.421875 11.28125 
Q 10.40625 8.6875 15.234375 7.390625 
Q 20.0625 6.109375 24.8125 6.109375 
Q 31.15625 6.109375 34.5625 8.28125 
Q 37.984375 10.453125 37.984375 14.40625 
Q 37.984375 18.0625 35.515625 20.015625 
Q 33.0625 21.96875 24.703125 23.78125 
L 21.578125 24.515625 
Q 13.234375 26.265625 9.515625 29.90625 
Q 5.8125 33.546875 5.8125 39.890625 
Q 5.8125 47.609375 11.28125 51.796875 
Q 16.75 56 26.8125 56 
Q 31.78125 56 36.171875 55.265625 
Q 40.578125 54.546875 44.28125 53.078125 
z
" id="DejaVuSans-115"/>
      <path id="DejaVuSans-32"/>
      <path d="M 9.8125 72.90625 
L 51.703125 72.90625 
L 51.703125 64.59375 
L 19.671875 64.59375 
L 19.671875 43.109375 
L 48.578125 43.109375 
L 48.578125 34.8125 
L 19.671875 34.8125 
L 19.671875 0 
L 9.8125 0 
z
" id="DejaVuSans-70"/>
      <path d="M 41.109375 46.296875 
Q 39.59375 47.171875 37.8125 47.578125 
Q 36.03125 48 33.890625 48 
Q 26.265625 48 22.1875 43.046875 
Q 18.109375 38.09375 18.109375 28.8125 
L 18.109375 0 
L 9.078125 0 
L 9.078125 54.6875 
L 18.109375 54.6875 
L 18.109375 46.1875 
Q 20.953125 51.171875 25.484375 53.578125 
Q 30.03125 56 36.53125 56 
Q 37.453125 56 38.578125 55.875 
Q 39.703125 55.765625 41.0625 55.515625 
z
" id="DejaVuSans-114"/>
      <path d="M 30.609375 48.390625 
Q 23.390625 48.390625 19.1875 42.75 
Q 14.984375 37.109375 14.984375 27.296875 
Q 14.984375 17.484375 19.15625 11.84375 
Q 23.34375 6.203125 30.609375 6.203125 
Q 37.796875 6.203125 41.984375 11.859375 
Q 46.1875 17.53125 46.1875 27.296875 
Q 46.1875 37.015625 41.984375 42.703125 
Q 37.796875 48.390625 30.609375 48.390625 
z
M 30.609375 56 
Q 42.328125 56 49.015625 48.375 
Q 55.71875 40.765625 55.71875 27.296875 
Q 55.71875 13.875 49.015625 6.21875 
Q 42.328125 -1.421875 30.609375 -1.421875 
Q 18.84375 -1.421875 12.171875 6.21875 
Q 5.515625 13.875 5.515625 27.296875 
Q 5.515625 40.765625 12.171875 48.375 
Q 18.84375 56 30.609375 56 
z
" id="DejaVuSans-111"/>
      <path d="M 52 44.1875 
Q 55.375 50.25 60.0625 53.125 
Q 64.75 56 71.09375 56 
Q 79.640625 56 84.28125 50.015625 
Q 88.921875 44.046875 88.921875 33.015625 
L 88.921875 0 
L 79.890625 0 
L 79.890625 32.71875 
Q 79.890625 40.578125 77.09375 44.375 
Q 74.3125 48.1875 68.609375 48.1875 
Q 61.625 48.1875 57.5625 43.546875 
Q 53.515625 38.921875 53.515625 30.90625 
L 53.515625 0 
L 44.484375 0 
L 44.484375 32.71875 
Q 44.484375 40.625 41.703125 44.40625 
Q 38.921875 48.1875 33.109375 48.1875 
Q 26.21875 48.1875 22.15625 43.53125 
Q 18.109375 38.875 18.109375 30.90625 
L 18.109375 0 
L 9.078125 0 
L 9.078125 54.6875 
L 18.109375 54.6875 
L 18.109375 46.1875 
Q 21.1875 51.21875 25.484375 53.609375 
Q 29.78125 56 35.6875 56 
Q 41.65625 56 45.828125 52.96875 
Q 50 49.953125 52 44.1875 
z
" id="DejaVuSans-109"/>
      <path d="M 53.515625 70.515625 
L 53.515625 60.890625 
Q 47.90625 63.578125 42.921875 64.890625 
Q 37.9375 66.21875 33.296875 66.21875 
Q 25.25 66.21875 20.875 63.09375 
Q 16.5 59.96875 16.5 54.203125 
Q 16.5 49.359375 19.40625 46.890625 
Q 22.3125 44.4375 30.421875 42.921875 
L 36.375 41.703125 
Q 47.40625 39.59375 52.65625 34.296875 
Q 57.90625 29 57.90625 20.125 
Q 57.90625 9.515625 50.796875 4.046875 
Q 43.703125 -1.421875 29.984375 -1.421875 
Q 24.8125 -1.421875 18.96875 -0.25 
Q 13.140625 0.921875 6.890625 3.21875 
L 6.890625 13.375 
Q 12.890625 10.015625 18.65625 8.296875 
Q 24.421875 6.59375 29.984375 6.59375 
Q 38.421875 6.59375 43.015625 9.90625 
Q 47.609375 13.234375 47.609375 19.390625 
Q 47.609375 24.75 44.3125 27.78125 
Q 41.015625 30.8125 33.5 32.328125 
L 27.484375 33.5 
Q 16.453125 35.6875 11.515625 40.375 
Q 6.59375 45.0625 6.59375 53.421875 
Q 6.59375 63.09375 13.40625 68.65625 
Q 20.21875 74.21875 32.171875 74.21875 
Q 37.3125 74.21875 42.625 73.28125 
Q 47.953125 72.359375 53.515625 70.515625 
z
" id="DejaVuSans-83"/>
      <path d="M 8.5 21.578125 
L 8.5 54.6875 
L 17.484375 54.6875 
L 17.484375 21.921875 
Q 17.484375 14.15625 20.5 10.265625 
Q 23.53125 6.390625 29.59375 6.390625 
Q 36.859375 6.390625 41.078125 11.03125 
Q 45.3125 15.671875 45.3125 23.6875 
L 45.3125 54.6875 
L 54.296875 54.6875 
L 54.296875 0 
L 45.3125 0 
L 45.3125 8.40625 
Q 42.046875 3.421875 37.71875 1 
Q 33.40625 -1.421875 27.6875 -1.421875 
Q 18.265625 -1.421875 13.375 4.4375 
Q 8.5 10.296875 8.5 21.578125 
z
M 31.109375 56 
z
" id="DejaVuSans-117"/>
      <path d="M 48.6875 27.296875 
Q 48.6875 37.203125 44.609375 42.84375 
Q 40.53125 48.484375 33.40625 48.484375 
Q 26.265625 48.484375 22.1875 42.84375 
Q 18.109375 37.203125 18.109375 27.296875 
Q 18.109375 17.390625 22.1875 11.75 
Q 26.265625 6.109375 33.40625 6.109375 
Q 40.53125 6.109375 44.609375 11.75 
Q 48.6875 17.390625 48.6875 27.296875 
z
M 18.109375 46.390625 
Q 20.953125 51.265625 25.265625 53.625 
Q 29.59375 56 35.59375 56 
Q 45.5625 56 51.78125 48.09375 
Q 58.015625 40.1875 58.015625 27.296875 
Q 58.015625 14.40625 51.78125 6.484375 
Q 45.5625 -1.421875 35.59375 -1.421875 
Q 29.59375 -1.421875 25.265625 0.953125 
Q 20.953125 3.328125 18.109375 8.203125 
L 18.109375 0 
L 9.078125 0 
L 9.078125 75.984375 
L 18.109375 75.984375 
z
" id="DejaVuSans-98"/>
      <path d="M 9.421875 54.6875 
L 18.40625 54.6875 
L 18.40625 0 
L 9.421875 0 
z
M 9.421875 75.984375 
L 18.40625 75.984375 
L 18.40625 64.59375 
L 9.421875 64.59375 
z
" id="DejaVuSans-105"/>
      <path d="M 54.890625 33.015625 
L 54.890625 0 
L 45.90625 0 
L 45.90625 32.71875 
Q 45.90625 40.484375 42.875 44.328125 
Q 39.84375 48.1875 33.796875 48.1875 
Q 26.515625 48.1875 22.3125 43.546875 
Q 18.109375 38.921875 18.109375 30.90625 
L 18.109375 0 
L 9.078125 0 
L 9.078125 54.6875 
L 18.109375 54.6875 
L 18.109375 46.1875 
Q 21.34375 51.125 25.703125 53.5625 
Q 30.078125 56 35.796875 56 
Q 45.21875 56 50.046875 50.171875 
Q 54.890625 44.34375 54.890625 33.015625 
z
" id="DejaVuSans-110"/>
     </defs>
     <g transform="translate(478.114141 682.510844)scale(0.15 -0.15)">
      <use xlink:href="#DejaVuSans-68"/>
      <use x="77.001953" xlink:href="#DejaVuSans-97"/>
      <use x="138.28125" xlink:href="#DejaVuSans-121"/>
      <use x="197.460938" xlink:href="#DejaVuSans-115"/>
      <use x="249.560547" xlink:href="#DejaVuSans-32"/>
      <use x="281.347656" xlink:href="#DejaVuSans-70"/>
      <use x="338.757812" xlink:href="#DejaVuSans-114"/>
      <use x="379.839844" xlink:href="#DejaVuSans-111"/>
      <use x="441.021484" xlink:href="#DejaVuSans-109"/>
      <use x="538.433594" xlink:href="#DejaVuSans-32"/>
      <use x="570.220703" xlink:href="#DejaVuSans-83"/>
      <use x="633.697266" xlink:href="#DejaVuSans-117"/>
      <use x="697.076172" xlink:href="#DejaVuSans-98"/>
      <use x="760.552734" xlink:href="#DejaVuSans-109"/>
      <use x="857.964844" xlink:href="#DejaVuSans-105"/>
      <use x="885.748047" xlink:href="#DejaVuSans-115"/>
      <use x="937.847656" xlink:href="#DejaVuSans-115"/>
      <use x="989.947266" xlink:href="#DejaVuSans-105"/>
      <use x="1017.730469" xlink:href="#DejaVuSans-111"/>
      <use x="1078.912109" xlink:href="#DejaVuSans-110"/>
     </g>
    </g>
   </g>
   <g id="matplotlib.axis_2">
    <g id="ytick_1">
     <g id="line2d_13">
      <path clip-path="url(#pebf22b4ba8)" d="M 66.08 636.163101 
L 1061.488125 636.163101 
" style="fill:none;stroke:#b0b0b0;stroke-linecap:square;stroke-width:0.8;"/>
     </g>
     <g id="line2d_14">
      <defs>
       <path d="M 0 0 
L -3.5 0 
" id="med970f020b" style="stroke:#000000;stroke-width:0.8;"/>
      </defs>
      <g>
       <use style="stroke:#000000;stroke-width:0.8;" x="66.08" xlink:href="#med970f020b" y="636.163101"/>
      </g>
     </g>
     <g id="text_8">
      <!-- 0.0 -->
      <defs>
       <path d="M 10.6875 12.40625 
L 21 12.40625 
L 21 0 
L 10.6875 0 
z
" id="DejaVuSans-46"/>
      </defs>
      <g transform="translate(35.225313 641.861929)scale(0.15 -0.15)">
       <use xlink:href="#DejaVuSans-48"/>
       <use x="63.623047" xlink:href="#DejaVuSans-46"/>
       <use x="95.410156" xlink:href="#DejaVuSans-48"/>
      </g>
     </g>
    </g>
    <g id="ytick_2">
     <g id="line2d_15">
      <path clip-path="url(#pebf22b4ba8)" d="M 66.08 579.860227 
L 1061.488125 579.860227 
" style="fill:none;stroke:#b0b0b0;stroke-linecap:square;stroke-width:0.8;"/>
     </g>
     <g id="line2d_16">
      <g>
       <use style="stroke:#000000;stroke-width:0.8;" x="66.08" xlink:href="#med970f020b" y="579.860227"/>
      </g>
     </g>
     <g id="text_9">
      <!-- 0.1 -->
      <g transform="translate(35.225313 585.559055)scale(0.15 -0.15)">
       <use xlink:href="#DejaVuSans-48"/>
       <use x="63.623047" xlink:href="#DejaVuSans-46"/>
       <use x="95.410156" xlink:href="#DejaVuSans-49"/>
      </g>
     </g>
    </g>
    <g id="ytick_3">
     <g id="line2d_17">
      <path clip-path="url(#pebf22b4ba8)" d="M 66.08 523.557353 
L 1061.488125 523.557353 
" style="fill:none;stroke:#b0b0b0;stroke-linecap:square;stroke-width:0.8;"/>
     </g>
     <g id="line2d_18">
      <g>
       <use style="stroke:#000000;stroke-width:0.8;" x="66.08" xlink:href="#med970f020b" y="523.557353"/>
      </g>
     </g>
     <g id="text_10">
      <!-- 0.2 -->
      <g transform="translate(35.225313 529.256182)scale(0.15 -0.15)">
       <use xlink:href="#DejaVuSans-48"/>
       <use x="63.623047" xlink:href="#DejaVuSans-46"/>
       <use x="95.410156" xlink:href="#DejaVuSans-50"/>
      </g>
     </g>
    </g>
    <g id="ytick_4">
     <g id="line2d_19">
      <path clip-path="url(#pebf22b4ba8)" d="M 66.08 467.25448 
L 1061.488125 467.25448 
" style="fill:none;stroke:#b0b0b0;stroke-linecap:square;stroke-width:0.8;"/>
     </g>
     <g id="line2d_20">
      <g>
       <use style="stroke:#000000;stroke-width:0.8;" x="66.08" xlink:href="#med970f020b" y="467.25448"/>
      </g>
     </g>
     <g id="text_11">
      <!-- 0.3 -->
      <defs>
       <path d="M 40.578125 39.3125 
Q 47.65625 37.796875 51.625 33 
Q 55.609375 28.21875 55.609375 21.1875 
Q 55.609375 10.40625 48.1875 4.484375 
Q 40.765625 -1.421875 27.09375 -1.421875 
Q 22.515625 -1.421875 17.65625 -0.515625 
Q 12.796875 0.390625 7.625 2.203125 
L 7.625 11.71875 
Q 11.71875 9.328125 16.59375 8.109375 
Q 21.484375 6.890625 26.8125 6.890625 
Q 36.078125 6.890625 40.9375 10.546875 
Q 45.796875 14.203125 45.796875 21.1875 
Q 45.796875 27.640625 41.28125 31.265625 
Q 36.765625 34.90625 28.71875 34.90625 
L 20.21875 34.90625 
L 20.21875 43.015625 
L 29.109375 43.015625 
Q 36.375 43.015625 40.234375 45.921875 
Q 44.09375 48.828125 44.09375 54.296875 
Q 44.09375 59.90625 40.109375 62.90625 
Q 36.140625 65.921875 28.71875 65.921875 
Q 24.65625 65.921875 20.015625 65.03125 
Q 15.375 64.15625 9.8125 62.3125 
L 9.8125 71.09375 
Q 15.4375 72.65625 20.34375 73.4375 
Q 25.25 74.21875 29.59375 74.21875 
Q 40.828125 74.21875 47.359375 69.109375 
Q 53.90625 64.015625 53.90625 55.328125 
Q 53.90625 49.265625 50.4375 45.09375 
Q 46.96875 40.921875 40.578125 39.3125 
z
" id="DejaVuSans-51"/>
      </defs>
      <g transform="translate(35.225313 472.953308)scale(0.15 -0.15)">
       <use xlink:href="#DejaVuSans-48"/>
       <use x="63.623047" xlink:href="#DejaVuSans-46"/>
       <use x="95.410156" xlink:href="#DejaVuSans-51"/>
      </g>
     </g>
    </g>
    <g id="ytick_5">
     <g id="line2d_21">
      <path clip-path="url(#pebf22b4ba8)" d="M 66.08 410.951606 
L 1061.488125 410.951606 
" style="fill:none;stroke:#b0b0b0;stroke-linecap:square;stroke-width:0.8;"/>
     </g>
     <g id="line2d_22">
      <g>
       <use style="stroke:#000000;stroke-width:0.8;" x="66.08" xlink:href="#med970f020b" y="410.951606"/>
      </g>
     </g>
     <g id="text_12">
      <!-- 0.4 -->
      <g transform="translate(35.225313 416.650434)scale(0.15 -0.15)">
       <use xlink:href="#DejaVuSans-48"/>
       <use x="63.623047" xlink:href="#DejaVuSans-46"/>
       <use x="95.410156" xlink:href="#DejaVuSans-52"/>
      </g>
     </g>
    </g>
    <g id="ytick_6">
     <g id="line2d_23">
      <path clip-path="url(#pebf22b4ba8)" d="M 66.08 354.648732 
L 1061.488125 354.648732 
" style="fill:none;stroke:#b0b0b0;stroke-linecap:square;stroke-width:0.8;"/>
     </g>
     <g id="line2d_24">
      <g>
       <use style="stroke:#000000;stroke-width:0.8;" x="66.08" xlink:href="#med970f020b" y="354.648732"/>
      </g>
     </g>
     <g id="text_13">
      <!-- 0.5 -->
      <defs>
       <path d="M 10.796875 72.90625 
L 49.515625 72.90625 
L 49.515625 64.59375 
L 19.828125 64.59375 
L 19.828125 46.734375 
Q 21.96875 47.46875 24.109375 47.828125 
Q 26.265625 48.1875 28.421875 48.1875 
Q 40.625 48.1875 47.75 41.5 
Q 54.890625 34.8125 54.890625 23.390625 
Q 54.890625 11.625 47.5625 5.09375 
Q 40.234375 -1.421875 26.90625 -1.421875 
Q 22.3125 -1.421875 17.546875 -0.640625 
Q 12.796875 0.140625 7.71875 1.703125 
L 7.71875 11.625 
Q 12.109375 9.234375 16.796875 8.0625 
Q 21.484375 6.890625 26.703125 6.890625 
Q 35.15625 6.890625 40.078125 11.328125 
Q 45.015625 15.765625 45.015625 23.390625 
Q 45.015625 31 40.078125 35.4375 
Q 35.15625 39.890625 26.703125 39.890625 
Q 22.75 39.890625 18.8125 39.015625 
Q 14.890625 38.140625 10.796875 36.28125 
z
" id="DejaVuSans-53"/>
      </defs>
      <g transform="translate(35.225313 360.34756)scale(0.15 -0.15)">
       <use xlink:href="#DejaVuSans-48"/>
       <use x="63.623047" xlink:href="#DejaVuSans-46"/>
       <use x="95.410156" xlink:href="#DejaVuSans-53"/>
      </g>
     </g>
    </g>
    <g id="ytick_7">
     <g id="line2d_25">
      <path clip-path="url(#pebf22b4ba8)" d="M 66.08 298.345859 
L 1061.488125 298.345859 
" style="fill:none;stroke:#b0b0b0;stroke-linecap:square;stroke-width:0.8;"/>
     </g>
     <g id="line2d_26">
      <g>
       <use style="stroke:#000000;stroke-width:0.8;" x="66.08" xlink:href="#med970f020b" y="298.345859"/>
      </g>
     </g>
     <g id="text_14">
      <!-- 0.6 -->
      <g transform="translate(35.225313 304.044687)scale(0.15 -0.15)">
       <use xlink:href="#DejaVuSans-48"/>
       <use x="63.623047" xlink:href="#DejaVuSans-46"/>
       <use x="95.410156" xlink:href="#DejaVuSans-54"/>
      </g>
     </g>
    </g>
    <g id="ytick_8">
     <g id="line2d_27">
      <path clip-path="url(#pebf22b4ba8)" d="M 66.08 242.042985 
L 1061.488125 242.042985 
" style="fill:none;stroke:#b0b0b0;stroke-linecap:square;stroke-width:0.8;"/>
     </g>
     <g id="line2d_28">
      <g>
       <use style="stroke:#000000;stroke-width:0.8;" x="66.08" xlink:href="#med970f020b" y="242.042985"/>
      </g>
     </g>
     <g id="text_15">
      <!-- 0.7 -->
      <defs>
       <path d="M 8.203125 72.90625 
L 55.078125 72.90625 
L 55.078125 68.703125 
L 28.609375 0 
L 18.3125 0 
L 43.21875 64.59375 
L 8.203125 64.59375 
z
" id="DejaVuSans-55"/>
      </defs>
      <g transform="translate(35.225313 247.741813)scale(0.15 -0.15)">
       <use xlink:href="#DejaVuSans-48"/>
       <use x="63.623047" xlink:href="#DejaVuSans-46"/>
       <use x="95.410156" xlink:href="#DejaVuSans-55"/>
      </g>
     </g>
    </g>
    <g id="ytick_9">
     <g id="line2d_29">
      <path clip-path="url(#pebf22b4ba8)" d="M 66.08 185.740111 
L 1061.488125 185.740111 
" style="fill:none;stroke:#b0b0b0;stroke-linecap:square;stroke-width:0.8;"/>
     </g>
     <g id="line2d_30">
      <g>
       <use style="stroke:#000000;stroke-width:0.8;" x="66.08" xlink:href="#med970f020b" y="185.740111"/>
      </g>
     </g>
     <g id="text_16">
      <!-- 0.8 -->
      <g transform="translate(35.225313 191.438939)scale(0.15 -0.15)">
       <use xlink:href="#DejaVuSans-48"/>
       <use x="63.623047" xlink:href="#DejaVuSans-46"/>
       <use x="95.410156" xlink:href="#DejaVuSans-56"/>
      </g>
     </g>
    </g>
    <g id="ytick_10">
     <g id="line2d_31">
      <path clip-path="url(#pebf22b4ba8)" d="M 66.08 129.437237 
L 1061.488125 129.437237 
" style="fill:none;stroke:#b0b0b0;stroke-linecap:square;stroke-width:0.8;"/>
     </g>
     <g id="line2d_32">
      <g>
       <use style="stroke:#000000;stroke-width:0.8;" x="66.08" xlink:href="#med970f020b" y="129.437237"/>
      </g>
     </g>
     <g id="text_17">
      <!-- 0.9 -->
      <defs>
       <path d="M 10.984375 1.515625 
L 10.984375 10.5 
Q 14.703125 8.734375 18.5 7.8125 
Q 22.3125 6.890625 25.984375 6.890625 
Q 35.75 6.890625 40.890625 13.453125 
Q 46.046875 20.015625 46.78125 33.40625 
Q 43.953125 29.203125 39.59375 26.953125 
Q 35.25 24.703125 29.984375 24.703125 
Q 19.046875 24.703125 12.671875 31.3125 
Q 6.296875 37.9375 6.296875 49.421875 
Q 6.296875 60.640625 12.9375 67.421875 
Q 19.578125 74.21875 30.609375 74.21875 
Q 43.265625 74.21875 49.921875 64.515625 
Q 56.59375 54.828125 56.59375 36.375 
Q 56.59375 19.140625 48.40625 8.859375 
Q 40.234375 -1.421875 26.421875 -1.421875 
Q 22.703125 -1.421875 18.890625 -0.6875 
Q 15.09375 0.046875 10.984375 1.515625 
z
M 30.609375 32.421875 
Q 37.25 32.421875 41.125 36.953125 
Q 45.015625 41.5 45.015625 49.421875 
Q 45.015625 57.28125 41.125 61.84375 
Q 37.25 66.40625 30.609375 66.40625 
Q 23.96875 66.40625 20.09375 61.84375 
Q 16.21875 57.28125 16.21875 49.421875 
Q 16.21875 41.5 20.09375 36.953125 
Q 23.96875 32.421875 30.609375 32.421875 
z
" id="DejaVuSans-57"/>
      </defs>
      <g transform="translate(35.225313 135.136065)scale(0.15 -0.15)">
       <use xlink:href="#DejaVuSans-48"/>
       <use x="63.623047" xlink:href="#DejaVuSans-46"/>
       <use x="95.410156" xlink:href="#DejaVuSans-57"/>
      </g>
     </g>
    </g>
    <g id="ytick_11">
     <g id="line2d_33">
      <path clip-path="url(#pebf22b4ba8)" d="M 66.08 73.134364 
L 1061.488125 73.134364 
" style="fill:none;stroke:#b0b0b0;stroke-linecap:square;stroke-width:0.8;"/>
     </g>
     <g id="line2d_34">
      <g>
       <use style="stroke:#000000;stroke-width:0.8;" x="66.08" xlink:href="#med970f020b" y="73.134364"/>
      </g>
     </g>
     <g id="text_18">
      <!-- 1.0 -->
      <g transform="translate(35.225313 78.833192)scale(0.15 -0.15)">
       <use xlink:href="#DejaVuSans-49"/>
       <use x="63.623047" xlink:href="#DejaVuSans-46"/>
       <use x="95.410156" xlink:href="#DejaVuSans-48"/>
      </g>
     </g>
    </g>
    <g id="text_19">
     <!-- Proportion Not Posted -->
     <defs>
      <path d="M 19.671875 64.796875 
L 19.671875 37.40625 
L 32.078125 37.40625 
Q 38.96875 37.40625 42.71875 40.96875 
Q 46.484375 44.53125 46.484375 51.125 
Q 46.484375 57.671875 42.71875 61.234375 
Q 38.96875 64.796875 32.078125 64.796875 
z
M 9.8125 72.90625 
L 32.078125 72.90625 
Q 44.34375 72.90625 50.609375 67.359375 
Q 56.890625 61.8125 56.890625 51.125 
Q 56.890625 40.328125 50.609375 34.8125 
Q 44.34375 29.296875 32.078125 29.296875 
L 19.671875 29.296875 
L 19.671875 0 
L 9.8125 0 
z
" id="DejaVuSans-80"/>
      <path d="M 18.109375 8.203125 
L 18.109375 -20.796875 
L 9.078125 -20.796875 
L 9.078125 54.6875 
L 18.109375 54.6875 
L 18.109375 46.390625 
Q 20.953125 51.265625 25.265625 53.625 
Q 29.59375 56 35.59375 56 
Q 45.5625 56 51.78125 48.09375 
Q 58.015625 40.1875 58.015625 27.296875 
Q 58.015625 14.40625 51.78125 6.484375 
Q 45.5625 -1.421875 35.59375 -1.421875 
Q 29.59375 -1.421875 25.265625 0.953125 
Q 20.953125 3.328125 18.109375 8.203125 
z
M 48.6875 27.296875 
Q 48.6875 37.203125 44.609375 42.84375 
Q 40.53125 48.484375 33.40625 48.484375 
Q 26.265625 48.484375 22.1875 42.84375 
Q 18.109375 37.203125 18.109375 27.296875 
Q 18.109375 17.390625 22.1875 11.75 
Q 26.265625 6.109375 33.40625 6.109375 
Q 40.53125 6.109375 44.609375 11.75 
Q 48.6875 17.390625 48.6875 27.296875 
z
" id="DejaVuSans-112"/>
      <path d="M 18.3125 70.21875 
L 18.3125 54.6875 
L 36.8125 54.6875 
L 36.8125 47.703125 
L 18.3125 47.703125 
L 18.3125 18.015625 
Q 18.3125 11.328125 20.140625 9.421875 
Q 21.96875 7.515625 27.59375 7.515625 
L 36.8125 7.515625 
L 36.8125 0 
L 27.59375 0 
Q 17.1875 0 13.234375 3.875 
Q 9.28125 7.765625 9.28125 18.015625 
L 9.28125 47.703125 
L 2.6875 47.703125 
L 2.6875 54.6875 
L 9.28125 54.6875 
L 9.28125 70.21875 
z
" id="DejaVuSans-116"/>
      <path d="M 9.8125 72.90625 
L 23.09375 72.90625 
L 55.421875 11.921875 
L 55.421875 72.90625 
L 64.984375 72.90625 
L 64.984375 0 
L 51.703125 0 
L 19.390625 60.984375 
L 19.390625 0 
L 9.8125 0 
z
" id="DejaVuSans-78"/>
      <path d="M 56.203125 29.59375 
L 56.203125 25.203125 
L 14.890625 25.203125 
Q 15.484375 15.921875 20.484375 11.0625 
Q 25.484375 6.203125 34.421875 6.203125 
Q 39.59375 6.203125 44.453125 7.46875 
Q 49.3125 8.734375 54.109375 11.28125 
L 54.109375 2.78125 
Q 49.265625 0.734375 44.1875 -0.34375 
Q 39.109375 -1.421875 33.890625 -1.421875 
Q 20.796875 -1.421875 13.15625 6.1875 
Q 5.515625 13.8125 5.515625 26.8125 
Q 5.515625 40.234375 12.765625 48.109375 
Q 20.015625 56 32.328125 56 
Q 43.359375 56 49.78125 48.890625 
Q 56.203125 41.796875 56.203125 29.59375 
z
M 47.21875 32.234375 
Q 47.125 39.59375 43.09375 43.984375 
Q 39.0625 48.390625 32.421875 48.390625 
Q 24.90625 48.390625 20.390625 44.140625 
Q 15.875 39.890625 15.1875 32.171875 
z
" id="DejaVuSans-101"/>
      <path d="M 45.40625 46.390625 
L 45.40625 75.984375 
L 54.390625 75.984375 
L 54.390625 0 
L 45.40625 0 
L 45.40625 8.203125 
Q 42.578125 3.328125 38.25 0.953125 
Q 33.9375 -1.421875 27.875 -1.421875 
Q 17.96875 -1.421875 11.734375 6.484375 
Q 5.515625 14.40625 5.515625 27.296875 
Q 5.515625 40.1875 11.734375 48.09375 
Q 17.96875 56 27.875 56 
Q 33.9375 56 38.25 53.625 
Q 42.578125 51.265625 45.40625 46.390625 
z
M 14.796875 27.296875 
Q 14.796875 17.390625 18.875 11.75 
Q 22.953125 6.109375 30.078125 6.109375 
Q 37.203125 6.109375 41.296875 11.75 
Q 45.40625 17.390625 45.40625 27.296875 
Q 45.40625 37.203125 41.296875 42.84375 
Q 37.203125 48.484375 30.078125 48.484375 
Q 22.953125 48.484375 18.875 42.84375 
Q 14.796875 37.203125 14.796875 27.296875 
z
" id="DejaVuSans-100"/>
     </defs>
     <g transform="translate(22.105781 425.107297)rotate(-90)scale(0.15 -0.15)">
      <use xlink:href="#DejaVuSans-80"/>
      <use x="60.287109" xlink:href="#DejaVuSans-114"/>
      <use x="101.369141" xlink:href="#DejaVuSans-111"/>
      <use x="162.550781" xlink:href="#DejaVuSans-112"/>
      <use x="226.027344" xlink:href="#DejaVuSans-111"/>
      <use x="287.208984" xlink:href="#DejaVuSans-114"/>
      <use x="328.322266" xlink:href="#DejaVuSans-116"/>
      <use x="367.53125" xlink:href="#DejaVuSans-105"/>
      <use x="395.314453" xlink:href="#DejaVuSans-111"/>
      <use x="456.496094" xlink:href="#DejaVuSans-110"/>
      <use x="519.875" xlink:href="#DejaVuSans-32"/>
      <use x="551.662109" xlink:href="#DejaVuSans-78"/>
      <use x="626.466797" xlink:href="#DejaVuSans-111"/>
      <use x="687.648438" xlink:href="#DejaVuSans-116"/>
      <use x="726.857422" xlink:href="#DejaVuSans-32"/>
      <use x="758.644531" xlink:href="#DejaVuSans-80"/>
      <use x="818.900391" xlink:href="#DejaVuSans-111"/>
      <use x="880.082031" xlink:href="#DejaVuSans-115"/>
      <use x="932.181641" xlink:href="#DejaVuSans-116"/>
      <use x="971.390625" xlink:href="#DejaVuSans-101"/>
      <use x="1032.914062" xlink:href="#DejaVuSans-100"/>
     </g>
    </g>
   </g>
   <g id="line2d_35">
    <defs>
     <path d="M 0 5 
L 0 -5 
" id="mc80658a775" style="stroke:#1f77b4;"/>
    </defs>
    <g clip-path="url(#pebf22b4ba8)">
     <use style="fill:#1f77b4;stroke:#1f77b4;" x="114.090334" xlink:href="#mc80658a775" y="73.428989"/>
     <use style="fill:#1f77b4;stroke:#1f77b4;" x="115.011838" xlink:href="#mc80658a775" y="73.57696"/>
     <use style="fill:#1f77b4;stroke:#1f77b4;" x="115.933342" xlink:href="#mc80658a775" y="73.725204"/>
     <use style="fill:#1f77b4;stroke:#1f77b4;" x="117.776349" xlink:href="#mc80658a775" y="73.725204"/>
     <use style="fill:#1f77b4;stroke:#1f77b4;" x="118.697852" xlink:href="#mc80658a775" y="73.725204"/>
     <use style="fill:#1f77b4;stroke:#1f77b4;" x="119.619356" xlink:href="#mc80658a775" y="73.725204"/>
     <use style="fill:#1f77b4;stroke:#1f77b4;" x="120.540859" xlink:href="#mc80658a775" y="73.874313"/>
     <use style="fill:#1f77b4;stroke:#1f77b4;" x="121.462363" xlink:href="#mc80658a775" y="74.321995"/>
     <use style="fill:#1f77b4;stroke:#1f77b4;" x="123.30537" xlink:href="#mc80658a775" y="74.621085"/>
     <use style="fill:#1f77b4;stroke:#1f77b4;" x="124.226873" xlink:href="#mc80658a775" y="75.219425"/>
     <use style="fill:#1f77b4;stroke:#1f77b4;" x="125.148377" xlink:href="#mc80658a775" y="76.717672"/>
     <use style="fill:#1f77b4;stroke:#1f77b4;" x="126.991384" xlink:href="#mc80658a775" y="80.618337"/>
     <use style="fill:#1f77b4;stroke:#1f77b4;" x="127.912888" xlink:href="#mc80658a775" y="84.373033"/>
     <use style="fill:#1f77b4;stroke:#1f77b4;" x="128.834391" xlink:href="#mc80658a775" y="92.947742"/>
     <use style="fill:#1f77b4;stroke:#1f77b4;" x="129.755895" xlink:href="#mc80658a775" y="107.844784"/>
     <use style="fill:#1f77b4;stroke:#1f77b4;" x="130.677398" xlink:href="#mc80658a775" y="125.605913"/>
     <use style="fill:#1f77b4;stroke:#1f77b4;" x="131.598902" xlink:href="#mc80658a775" y="138.11366"/>
     <use style="fill:#1f77b4;stroke:#1f77b4;" x="132.520405" xlink:href="#mc80658a775" y="152.13685"/>
     <use style="fill:#1f77b4;stroke:#1f77b4;" x="133.441909" xlink:href="#mc80658a775" y="158.924379"/>
     <use style="fill:#1f77b4;stroke:#1f77b4;" x="134.363412" xlink:href="#mc80658a775" y="168.731688"/>
     <use style="fill:#1f77b4;stroke:#1f77b4;" x="136.206419" xlink:href="#mc80658a775" y="188.97597"/>
     <use style="fill:#1f77b4;stroke:#1f77b4;" x="137.127923" xlink:href="#mc80658a775" y="202.577471"/>
     <use style="fill:#1f77b4;stroke:#1f77b4;" x="138.049427" xlink:href="#mc80658a775" y="213.492914"/>
     <use style="fill:#1f77b4;stroke:#1f77b4;" x="138.97093" xlink:href="#mc80658a775" y="221.244147"/>
     <use style="fill:#1f77b4;stroke:#1f77b4;" x="139.892434" xlink:href="#mc80658a775" y="226.41732"/>
     <use style="fill:#1f77b4;stroke:#1f77b4;" x="140.813937" xlink:href="#mc80658a775" y="231.449554"/>
     <use style="fill:#1f77b4;stroke:#1f77b4;" x="141.735441" xlink:href="#mc80658a775" y="235.57305"/>
     <use style="fill:#1f77b4;stroke:#1f77b4;" x="142.656944" xlink:href="#mc80658a775" y="241.688929"/>
     <use style="fill:#1f77b4;stroke:#1f77b4;" x="143.578448" xlink:href="#mc80658a775" y="245.362728"/>
     <use style="fill:#1f77b4;stroke:#1f77b4;" x="144.499951" xlink:href="#mc80658a775" y="248.591212"/>
     <use style="fill:#1f77b4;stroke:#1f77b4;" x="145.421455" xlink:href="#mc80658a775" y="250.747813"/>
     <use style="fill:#1f77b4;stroke:#1f77b4;" x="146.342958" xlink:href="#mc80658a775" y="252.910464"/>
     <use style="fill:#1f77b4;stroke:#1f77b4;" x="150.028973" xlink:href="#mc80658a775" y="269.52636"/>
     <use style="fill:#1f77b4;stroke:#1f77b4;" x="150.950476" xlink:href="#mc80658a775" y="275.133379"/>
     <use style="fill:#1f77b4;stroke:#1f77b4;" x="151.87198" xlink:href="#mc80658a775" y="278.568783"/>
     <use style="fill:#1f77b4;stroke:#1f77b4;" x="153.714987" xlink:href="#mc80658a775" y="285.289306"/>
     <use style="fill:#1f77b4;stroke:#1f77b4;" x="155.557994" xlink:href="#mc80658a775" y="296.577471"/>
     <use style="fill:#1f77b4;stroke:#1f77b4;" x="156.479497" xlink:href="#mc80658a775" y="302.85157"/>
     <use style="fill:#1f77b4;stroke:#1f77b4;" x="157.401001" xlink:href="#mc80658a775" y="306.776576"/>
     <use style="fill:#1f77b4;stroke:#1f77b4;" x="158.322504" xlink:href="#mc80658a775" y="309.132703"/>
     <use style="fill:#1f77b4;stroke:#1f77b4;" x="159.244008" xlink:href="#mc80658a775" y="312.12"/>
     <use style="fill:#1f77b4;stroke:#1f77b4;" x="160.165512" xlink:href="#mc80658a775" y="314.167914"/>
     <use style="fill:#1f77b4;stroke:#1f77b4;" x="162.930022" xlink:href="#mc80658a775" y="330.425515"/>
     <use style="fill:#1f77b4;stroke:#1f77b4;" x="163.851526" xlink:href="#mc80658a775" y="335.172993"/>
     <use style="fill:#1f77b4;stroke:#1f77b4;" x="164.773029" xlink:href="#mc80658a775" y="338.978979"/>
     <use style="fill:#1f77b4;stroke:#1f77b4;" x="165.694533" xlink:href="#mc80658a775" y="341.682099"/>
     <use style="fill:#1f77b4;stroke:#1f77b4;" x="166.616036" xlink:href="#mc80658a775" y="345.668035"/>
     <use style="fill:#1f77b4;stroke:#1f77b4;" x="167.53754" xlink:href="#mc80658a775" y="353.010218"/>
     <use style="fill:#1f77b4;stroke:#1f77b4;" x="169.380547" xlink:href="#mc80658a775" y="368.181975"/>
     <use style="fill:#1f77b4;stroke:#1f77b4;" x="170.30205" xlink:href="#mc80658a775" y="373.778239"/>
     <use style="fill:#1f77b4;stroke:#1f77b4;" x="171.223554" xlink:href="#mc80658a775" y="376.503067"/>
     <use style="fill:#1f77b4;stroke:#1f77b4;" x="172.145058" xlink:href="#mc80658a775" y="380.352258"/>
     <use style="fill:#1f77b4;stroke:#1f77b4;" x="173.066561" xlink:href="#mc80658a775" y="384.859938"/>
     <use style="fill:#1f77b4;stroke:#1f77b4;" x="175.831072" xlink:href="#mc80658a775" y="396.949571"/>
     <use style="fill:#1f77b4;stroke:#1f77b4;" x="176.752575" xlink:href="#mc80658a775" y="402.595203"/>
     <use style="fill:#1f77b4;stroke:#1f77b4;" x="178.595582" xlink:href="#mc80658a775" y="408.426302"/>
     <use style="fill:#1f77b4;stroke:#1f77b4;" x="179.517086" xlink:href="#mc80658a775" y="413.136978"/>
     <use style="fill:#1f77b4;stroke:#1f77b4;" x="182.281597" xlink:href="#mc80658a775" y="425.210082"/>
     <use style="fill:#1f77b4;stroke:#1f77b4;" x="183.2031" xlink:href="#mc80658a775" y="429.458555"/>
     <use style="fill:#1f77b4;stroke:#1f77b4;" x="184.124604" xlink:href="#mc80658a775" y="432.900898"/>
     <use style="fill:#1f77b4;stroke:#1f77b4;" x="185.046107" xlink:href="#mc80658a775" y="435.0405"/>
     <use style="fill:#1f77b4;stroke:#1f77b4;" x="185.967611" xlink:href="#mc80658a775" y="437.348465"/>
     <use style="fill:#1f77b4;stroke:#1f77b4;" x="186.889114" xlink:href="#mc80658a775" y="440.98129"/>
     <use style="fill:#1f77b4;stroke:#1f77b4;" x="189.653625" xlink:href="#mc80658a775" y="449.57524"/>
     <use style="fill:#1f77b4;stroke:#1f77b4;" x="190.575128" xlink:href="#mc80658a775" y="451.560217"/>
     <use style="fill:#1f77b4;stroke:#1f77b4;" x="191.496632" xlink:href="#mc80658a775" y="453.051623"/>
     <use style="fill:#1f77b4;stroke:#1f77b4;" x="195.182646" xlink:href="#mc80658a775" y="466.498612"/>
     <use style="fill:#1f77b4;stroke:#1f77b4;" x="196.10415" xlink:href="#mc80658a775" y="468.328327"/>
     <use style="fill:#1f77b4;stroke:#1f77b4;" x="197.025653" xlink:href="#mc80658a775" y="469.662998"/>
     <use style="fill:#1f77b4;stroke:#1f77b4;" x="197.947157" xlink:href="#mc80658a775" y="470.667018"/>
     <use style="fill:#1f77b4;stroke:#1f77b4;" x="198.86866" xlink:href="#mc80658a775" y="473.194963"/>
     <use style="fill:#1f77b4;stroke:#1f77b4;" x="201.633171" xlink:href="#mc80658a775" y="479.774422"/>
     <use style="fill:#1f77b4;stroke:#1f77b4;" x="202.554674" xlink:href="#mc80658a775" y="481.969943"/>
     <use style="fill:#1f77b4;stroke:#1f77b4;" x="203.476178" xlink:href="#mc80658a775" y="482.985485"/>
     <use style="fill:#1f77b4;stroke:#1f77b4;" x="204.397682" xlink:href="#mc80658a775" y="484.679928"/>
     <use style="fill:#1f77b4;stroke:#1f77b4;" x="205.319185" xlink:href="#mc80658a775" y="486.383901"/>
     <use style="fill:#1f77b4;stroke:#1f77b4;" x="209.005199" xlink:href="#mc80658a775" y="494.060511"/>
     <use style="fill:#1f77b4;stroke:#1f77b4;" x="209.926703" xlink:href="#mc80658a775" y="494.915521"/>
     <use style="fill:#1f77b4;stroke:#1f77b4;" x="210.848206" xlink:href="#mc80658a775" y="495.773647"/>
     <use style="fill:#1f77b4;stroke:#1f77b4;" x="211.76971" xlink:href="#mc80658a775" y="496.805922"/>
     <use style="fill:#1f77b4;stroke:#1f77b4;" x="214.53422" xlink:href="#mc80658a775" y="502.669962"/>
     <use style="fill:#1f77b4;stroke:#1f77b4;" x="215.455724" xlink:href="#mc80658a775" y="504.055105"/>
     <use style="fill:#1f77b4;stroke:#1f77b4;" x="216.377228" xlink:href="#mc80658a775" y="505.096692"/>
     <use style="fill:#1f77b4;stroke:#1f77b4;" x="217.298731" xlink:href="#mc80658a775" y="506.4966"/>
     <use style="fill:#1f77b4;stroke:#1f77b4;" x="218.220235" xlink:href="#mc80658a775" y="507.904106"/>
     <use style="fill:#1f77b4;stroke:#1f77b4;" x="219.141738" xlink:href="#mc80658a775" y="510.194446"/>
     <use style="fill:#1f77b4;stroke:#1f77b4;" x="222.827752" xlink:href="#mc80658a775" y="516.016526"/>
     <use style="fill:#1f77b4;stroke:#1f77b4;" x="224.670759" xlink:href="#mc80658a775" y="516.369899"/>
     <use style="fill:#1f77b4;stroke:#1f77b4;" x="228.356774" xlink:href="#mc80658a775" y="519.736867"/>
     <use style="fill:#1f77b4;stroke:#1f77b4;" x="229.278277" xlink:href="#mc80658a775" y="520.804998"/>
     <use style="fill:#1f77b4;stroke:#1f77b4;" x="230.199781" xlink:href="#mc80658a775" y="521.699247"/>
     <use style="fill:#1f77b4;stroke:#1f77b4;" x="231.121284" xlink:href="#mc80658a775" y="522.597707"/>
     <use style="fill:#1f77b4;stroke:#1f77b4;" x="232.042788" xlink:href="#mc80658a775" y="523.137638"/>
     <use style="fill:#1f77b4;stroke:#1f77b4;" x="236.650305" xlink:href="#mc80658a775" y="529.086346"/>
     <use style="fill:#1f77b4;stroke:#1f77b4;" x="240.33632" xlink:href="#mc80658a775" y="533.796999"/>
     <use style="fill:#1f77b4;stroke:#1f77b4;" x="241.257823" xlink:href="#mc80658a775" y="534.523"/>
     <use style="fill:#1f77b4;stroke:#1f77b4;" x="242.179327" xlink:href="#mc80658a775" y="535.254223"/>
     <use style="fill:#1f77b4;stroke:#1f77b4;" x="243.10083" xlink:href="#mc80658a775" y="535.621165"/>
     <use style="fill:#1f77b4;stroke:#1f77b4;" x="246.786844" xlink:href="#mc80658a775" y="538.203893"/>
     <use style="fill:#1f77b4;stroke:#1f77b4;" x="247.708348" xlink:href="#mc80658a775" y="539.312865"/>
     <use style="fill:#1f77b4;stroke:#1f77b4;" x="249.551355" xlink:href="#mc80658a775" y="540.053594"/>
     <use style="fill:#1f77b4;stroke:#1f77b4;" x="253.237369" xlink:href="#mc80658a775" y="543.393306"/>
     <use style="fill:#1f77b4;stroke:#1f77b4;" x="255.080376" xlink:href="#mc80658a775" y="544.880598"/>
     <use style="fill:#1f77b4;stroke:#1f77b4;" x="256.00188" xlink:href="#mc80658a775" y="545.067652"/>
     <use style="fill:#1f77b4;stroke:#1f77b4;" x="256.923383" xlink:href="#mc80658a775" y="545.818955"/>
     <use style="fill:#1f77b4;stroke:#1f77b4;" x="259.687894" xlink:href="#mc80658a775" y="547.701124"/>
     <use style="fill:#1f77b4;stroke:#1f77b4;" x="260.609398" xlink:href="#mc80658a775" y="548.835252"/>
     <use style="fill:#1f77b4;stroke:#1f77b4;" x="262.452405" xlink:href="#mc80658a775" y="549.214115"/>
     <use style="fill:#1f77b4;stroke:#1f77b4;" x="263.373908" xlink:href="#mc80658a775" y="549.784896"/>
     <use style="fill:#1f77b4;stroke:#1f77b4;" x="266.138419" xlink:href="#mc80658a775" y="551.119659"/>
     <use style="fill:#1f77b4;stroke:#1f77b4;" x="267.059922" xlink:href="#mc80658a775" y="551.311198"/>
     <use style="fill:#1f77b4;stroke:#1f77b4;" x="267.981426" xlink:href="#mc80658a775" y="552.271061"/>
     <use style="fill:#1f77b4;stroke:#1f77b4;" x="268.902929" xlink:href="#mc80658a775" y="552.656772"/>
     <use style="fill:#1f77b4;stroke:#1f77b4;" x="269.824433" xlink:href="#mc80658a775" y="553.625523"/>
     <use style="fill:#1f77b4;stroke:#1f77b4;" x="272.588944" xlink:href="#mc80658a775" y="555.961492"/>
     <use style="fill:#1f77b4;stroke:#1f77b4;" x="273.510447" xlink:href="#mc80658a775" y="556.548333"/>
     <use style="fill:#1f77b4;stroke:#1f77b4;" x="274.431951" xlink:href="#mc80658a775" y="556.744912"/>
     <use style="fill:#1f77b4;stroke:#1f77b4;" x="275.353454" xlink:href="#mc80658a775" y="557.142003"/>
     <use style="fill:#1f77b4;stroke:#1f77b4;" x="280.882475" xlink:href="#mc80658a775" y="559.337034"/>
     <use style="fill:#1f77b4;stroke:#1f77b4;" x="282.725482" xlink:href="#mc80658a775" y="559.73717"/>
     <use style="fill:#1f77b4;stroke:#1f77b4;" x="283.646986" xlink:href="#mc80658a775" y="560.541653"/>
     <use style="fill:#1f77b4;stroke:#1f77b4;" x="285.489993" xlink:href="#mc80658a775" y="561.146625"/>
     <use style="fill:#1f77b4;stroke:#1f77b4;" x="287.333" xlink:href="#mc80658a775" y="561.552119"/>
     <use style="fill:#1f77b4;stroke:#1f77b4;" x="288.254504" xlink:href="#mc80658a775" y="561.755419"/>
     <use style="fill:#1f77b4;stroke:#1f77b4;" x="289.176007" xlink:href="#mc80658a775" y="562.164252"/>
     <use style="fill:#1f77b4;stroke:#1f77b4;" x="291.940518" xlink:href="#mc80658a775" y="562.988752"/>
     <use style="fill:#1f77b4;stroke:#1f77b4;" x="295.626532" xlink:href="#mc80658a775" y="564.854387"/>
     <use style="fill:#1f77b4;stroke:#1f77b4;" x="296.548036" xlink:href="#mc80658a775" y="565.062892"/>
     <use style="fill:#1f77b4;stroke:#1f77b4;" x="298.391043" xlink:href="#mc80658a775" y="565.481128"/>
     <use style="fill:#1f77b4;stroke:#1f77b4;" x="300.23405" xlink:href="#mc80658a775" y="565.691491"/>
     <use style="fill:#1f77b4;stroke:#1f77b4;" x="301.155553" xlink:href="#mc80658a775" y="566.114744"/>
     <use style="fill:#1f77b4;stroke:#1f77b4;" x="304.841567" xlink:href="#mc80658a775" y="567.812886"/>
     <use style="fill:#1f77b4;stroke:#1f77b4;" x="305.763071" xlink:href="#mc80658a775" y="568.664602"/>
     <use style="fill:#1f77b4;stroke:#1f77b4;" x="307.606078" xlink:href="#mc80658a775" y="568.664602"/>
     <use style="fill:#1f77b4;stroke:#1f77b4;" x="308.527582" xlink:href="#mc80658a775" y="569.094529"/>
     <use style="fill:#1f77b4;stroke:#1f77b4;" x="311.292092" xlink:href="#mc80658a775" y="570.388457"/>
     <use style="fill:#1f77b4;stroke:#1f77b4;" x="314.056603" xlink:href="#mc80658a775" y="571.903004"/>
     <use style="fill:#1f77b4;stroke:#1f77b4;" x="317.742617" xlink:href="#mc80658a775" y="572.988479"/>
     <use style="fill:#1f77b4;stroke:#1f77b4;" x="319.585624" xlink:href="#mc80658a775" y="573.424166"/>
     <use style="fill:#1f77b4;stroke:#1f77b4;" x="324.193142" xlink:href="#mc80658a775" y="573.643533"/>
     <use style="fill:#1f77b4;stroke:#1f77b4;" x="325.114645" xlink:href="#mc80658a775" y="574.085367"/>
     <use style="fill:#1f77b4;stroke:#1f77b4;" x="326.036149" xlink:href="#mc80658a775" y="574.53197"/>
     <use style="fill:#1f77b4;stroke:#1f77b4;" x="326.957652" xlink:href="#mc80658a775" y="574.53197"/>
     <use style="fill:#1f77b4;stroke:#1f77b4;" x="327.879156" xlink:href="#mc80658a775" y="574.53197"/>
     <use style="fill:#1f77b4;stroke:#1f77b4;" x="331.56517" xlink:href="#mc80658a775" y="575.896497"/>
     <use style="fill:#1f77b4;stroke:#1f77b4;" x="332.486674" xlink:href="#mc80658a775" y="576.124779"/>
     <use style="fill:#1f77b4;stroke:#1f77b4;" x="334.329681" xlink:href="#mc80658a775" y="576.354811"/>
     <use style="fill:#1f77b4;stroke:#1f77b4;" x="335.251184" xlink:href="#mc80658a775" y="576.585731"/>
     <use style="fill:#1f77b4;stroke:#1f77b4;" x="337.094191" xlink:href="#mc80658a775" y="577.049368"/>
     <use style="fill:#1f77b4;stroke:#1f77b4;" x="338.015695" xlink:href="#mc80658a775" y="578.445756"/>
     <use style="fill:#1f77b4;stroke:#1f77b4;" x="338.937198" xlink:href="#mc80658a775" y="578.445756"/>
     <use style="fill:#1f77b4;stroke:#1f77b4;" x="339.858702" xlink:href="#mc80658a775" y="578.445756"/>
     <use style="fill:#1f77b4;stroke:#1f77b4;" x="340.780206" xlink:href="#mc80658a775" y="578.682302"/>
     <use style="fill:#1f77b4;stroke:#1f77b4;" x="343.544716" xlink:href="#mc80658a775" y="579.15735"/>
     <use style="fill:#1f77b4;stroke:#1f77b4;" x="345.387723" xlink:href="#mc80658a775" y="579.63639"/>
     <use style="fill:#1f77b4;stroke:#1f77b4;" x="346.309227" xlink:href="#mc80658a775" y="579.63639"/>
     <use style="fill:#1f77b4;stroke:#1f77b4;" x="347.23073" xlink:href="#mc80658a775" y="579.63639"/>
     <use style="fill:#1f77b4;stroke:#1f77b4;" x="349.995241" xlink:href="#mc80658a775" y="580.376915"/>
     <use style="fill:#1f77b4;stroke:#1f77b4;" x="352.759752" xlink:href="#mc80658a775" y="580.872792"/>
     <use style="fill:#1f77b4;stroke:#1f77b4;" x="353.681255" xlink:href="#mc80658a775" y="581.122974"/>
     <use style="fill:#1f77b4;stroke:#1f77b4;" x="355.524262" xlink:href="#mc80658a775" y="581.37779"/>
     <use style="fill:#1f77b4;stroke:#1f77b4;" x="356.445766" xlink:href="#mc80658a775" y="581.889802"/>
     <use style="fill:#1f77b4;stroke:#1f77b4;" x="358.288773" xlink:href="#mc80658a775" y="582.147021"/>
     <use style="fill:#1f77b4;stroke:#1f77b4;" x="360.13178" xlink:href="#mc80658a775" y="582.405471"/>
     <use style="fill:#1f77b4;stroke:#1f77b4;" x="363.817794" xlink:href="#mc80658a775" y="582.667704"/>
     <use style="fill:#1f77b4;stroke:#1f77b4;" x="364.739298" xlink:href="#mc80658a775" y="582.667704"/>
     <use style="fill:#1f77b4;stroke:#1f77b4;" x="365.660801" xlink:href="#mc80658a775" y="582.667704"/>
     <use style="fill:#1f77b4;stroke:#1f77b4;" x="366.582305" xlink:href="#mc80658a775" y="583.47824"/>
     <use style="fill:#1f77b4;stroke:#1f77b4;" x="369.346815" xlink:href="#mc80658a775" y="583.749812"/>
     <use style="fill:#1f77b4;stroke:#1f77b4;" x="370.268319" xlink:href="#mc80658a775" y="583.749812"/>
     <use style="fill:#1f77b4;stroke:#1f77b4;" x="371.189822" xlink:href="#mc80658a775" y="583.749812"/>
     <use style="fill:#1f77b4;stroke:#1f77b4;" x="372.111326" xlink:href="#mc80658a775" y="583.749812"/>
     <use style="fill:#1f77b4;stroke:#1f77b4;" x="374.875837" xlink:href="#mc80658a775" y="584.036223"/>
     <use style="fill:#1f77b4;stroke:#1f77b4;" x="379.483354" xlink:href="#mc80658a775" y="584.612211"/>
     <use style="fill:#1f77b4;stroke:#1f77b4;" x="382.247865" xlink:href="#mc80658a775" y="584.901822"/>
     <use style="fill:#1f77b4;stroke:#1f77b4;" x="383.169368" xlink:href="#mc80658a775" y="584.901822"/>
     <use style="fill:#1f77b4;stroke:#1f77b4;" x="386.855383" xlink:href="#mc80658a775" y="585.196427"/>
     <use style="fill:#1f77b4;stroke:#1f77b4;" x="390.541397" xlink:href="#mc80658a775" y="585.789063"/>
     <use style="fill:#1f77b4;stroke:#1f77b4;" x="392.384404" xlink:href="#mc80658a775" y="586.087134"/>
     <use style="fill:#1f77b4;stroke:#1f77b4;" x="396.991922" xlink:href="#mc80658a775" y="586.087134"/>
     <use style="fill:#1f77b4;stroke:#1f77b4;" x="399.756432" xlink:href="#mc80658a775" y="586.390625"/>
     <use style="fill:#1f77b4;stroke:#1f77b4;" x="401.599439" xlink:href="#mc80658a775" y="586.390625"/>
     <use style="fill:#1f77b4;stroke:#1f77b4;" x="409.892971" xlink:href="#mc80658a775" y="587.627208"/>
     <use style="fill:#1f77b4;stroke:#1f77b4;" x="410.814475" xlink:href="#mc80658a775" y="587.627208"/>
     <use style="fill:#1f77b4;stroke:#1f77b4;" x="411.735978" xlink:href="#mc80658a775" y="587.627208"/>
     <use style="fill:#1f77b4;stroke:#1f77b4;" x="415.421992" xlink:href="#mc80658a775" y="587.627208"/>
     <use style="fill:#1f77b4;stroke:#1f77b4;" x="417.264999" xlink:href="#mc80658a775" y="588.265838"/>
     <use style="fill:#1f77b4;stroke:#1f77b4;" x="427.401538" xlink:href="#mc80658a775" y="588.908755"/>
     <use style="fill:#1f77b4;stroke:#1f77b4;" x="428.323042" xlink:href="#mc80658a775" y="589.232415"/>
     <use style="fill:#1f77b4;stroke:#1f77b4;" x="429.244546" xlink:href="#mc80658a775" y="589.560601"/>
     <use style="fill:#1f77b4;stroke:#1f77b4;" x="434.773567" xlink:href="#mc80658a775" y="591.543686"/>
     <use style="fill:#1f77b4;stroke:#1f77b4;" x="435.69507" xlink:href="#mc80658a775" y="591.543686"/>
     <use style="fill:#1f77b4;stroke:#1f77b4;" x="437.538077" xlink:href="#mc80658a775" y="591.543686"/>
     <use style="fill:#1f77b4;stroke:#1f77b4;" x="440.302588" xlink:href="#mc80658a775" y="591.543686"/>
     <use style="fill:#1f77b4;stroke:#1f77b4;" x="441.224092" xlink:href="#mc80658a775" y="591.543686"/>
     <use style="fill:#1f77b4;stroke:#1f77b4;" x="449.517623" xlink:href="#mc80658a775" y="591.886913"/>
     <use style="fill:#1f77b4;stroke:#1f77b4;" x="451.36063" xlink:href="#mc80658a775" y="592.584175"/>
     <use style="fill:#1f77b4;stroke:#1f77b4;" x="455.046645" xlink:href="#mc80658a775" y="593.287061"/>
     <use style="fill:#1f77b4;stroke:#1f77b4;" x="458.732659" xlink:href="#mc80658a775" y="593.287061"/>
     <use style="fill:#1f77b4;stroke:#1f77b4;" x="461.497169" xlink:href="#mc80658a775" y="593.287061"/>
     <use style="fill:#1f77b4;stroke:#1f77b4;" x="464.26168" xlink:href="#mc80658a775" y="593.287061"/>
     <use style="fill:#1f77b4;stroke:#1f77b4;" x="474.398219" xlink:href="#mc80658a775" y="594.752909"/>
     <use style="fill:#1f77b4;stroke:#1f77b4;" x="479.005737" xlink:href="#mc80658a775" y="595.122643"/>
     <use style="fill:#1f77b4;stroke:#1f77b4;" x="479.92724" xlink:href="#mc80658a775" y="595.122643"/>
     <use style="fill:#1f77b4;stroke:#1f77b4;" x="481.770247" xlink:href="#mc80658a775" y="595.122643"/>
     <use style="fill:#1f77b4;stroke:#1f77b4;" x="482.691751" xlink:href="#mc80658a775" y="595.122643"/>
     <use style="fill:#1f77b4;stroke:#1f77b4;" x="488.220772" xlink:href="#mc80658a775" y="595.896991"/>
     <use style="fill:#1f77b4;stroke:#1f77b4;" x="502.043325" xlink:href="#mc80658a775" y="596.686522"/>
     <use style="fill:#1f77b4;stroke:#1f77b4;" x="506.650843" xlink:href="#mc80658a775" y="597.484029"/>
     <use style="fill:#1f77b4;stroke:#1f77b4;" x="507.572346" xlink:href="#mc80658a775" y="597.484029"/>
     <use style="fill:#1f77b4;stroke:#1f77b4;" x="512.179864" xlink:href="#mc80658a775" y="597.484029"/>
     <use style="fill:#1f77b4;stroke:#1f77b4;" x="514.944375" xlink:href="#mc80658a775" y="597.895509"/>
     <use style="fill:#1f77b4;stroke:#1f77b4;" x="518.630389" xlink:href="#mc80658a775" y="597.895509"/>
     <use style="fill:#1f77b4;stroke:#1f77b4;" x="519.551893" xlink:href="#mc80658a775" y="597.895509"/>
     <use style="fill:#1f77b4;stroke:#1f77b4;" x="520.473396" xlink:href="#mc80658a775" y="598.325482"/>
     <use style="fill:#1f77b4;stroke:#1f77b4;" x="527.845424" xlink:href="#mc80658a775" y="598.760397"/>
     <use style="fill:#1f77b4;stroke:#1f77b4;" x="531.531439" xlink:href="#mc80658a775" y="599.200429"/>
     <use style="fill:#1f77b4;stroke:#1f77b4;" x="537.06046" xlink:href="#mc80658a775" y="599.200429"/>
     <use style="fill:#1f77b4;stroke:#1f77b4;" x="539.82497" xlink:href="#mc80658a775" y="599.200429"/>
     <use style="fill:#1f77b4;stroke:#1f77b4;" x="540.746474" xlink:href="#mc80658a775" y="599.656758"/>
     <use style="fill:#1f77b4;stroke:#1f77b4;" x="543.510985" xlink:href="#mc80658a775" y="600.118863"/>
     <use style="fill:#1f77b4;stroke:#1f77b4;" x="545.353992" xlink:href="#mc80658a775" y="600.118863"/>
     <use style="fill:#1f77b4;stroke:#1f77b4;" x="551.804516" xlink:href="#mc80658a775" y="600.118863"/>
     <use style="fill:#1f77b4;stroke:#1f77b4;" x="552.72602" xlink:href="#mc80658a775" y="600.118863"/>
     <use style="fill:#1f77b4;stroke:#1f77b4;" x="559.176545" xlink:href="#mc80658a775" y="600.605948"/>
     <use style="fill:#1f77b4;stroke:#1f77b4;" x="563.784063" xlink:href="#mc80658a775" y="600.605948"/>
     <use style="fill:#1f77b4;stroke:#1f77b4;" x="571.156091" xlink:href="#mc80658a775" y="601.607558"/>
     <use style="fill:#1f77b4;stroke:#1f77b4;" x="577.606616" xlink:href="#mc80658a775" y="602.623897"/>
     <use style="fill:#1f77b4;stroke:#1f77b4;" x="578.528119" xlink:href="#mc80658a775" y="602.623897"/>
     <use style="fill:#1f77b4;stroke:#1f77b4;" x="582.214133" xlink:href="#mc80658a775" y="603.671997"/>
     <use style="fill:#1f77b4;stroke:#1f77b4;" x="583.135637" xlink:href="#mc80658a775" y="603.671997"/>
     <use style="fill:#1f77b4;stroke:#1f77b4;" x="584.978644" xlink:href="#mc80658a775" y="603.671997"/>
     <use style="fill:#1f77b4;stroke:#1f77b4;" x="589.586162" xlink:href="#mc80658a775" y="604.232189"/>
     <use style="fill:#1f77b4;stroke:#1f77b4;" x="590.507665" xlink:href="#mc80658a775" y="604.802384"/>
     <use style="fill:#1f77b4;stroke:#1f77b4;" x="597.879694" xlink:href="#mc80658a775" y="605.383138"/>
     <use style="fill:#1f77b4;stroke:#1f77b4;" x="598.801197" xlink:href="#mc80658a775" y="605.383138"/>
     <use style="fill:#1f77b4;stroke:#1f77b4;" x="605.251722" xlink:href="#mc80658a775" y="605.986666"/>
     <use style="fill:#1f77b4;stroke:#1f77b4;" x="609.85924" xlink:href="#mc80658a775" y="606.602512"/>
     <use style="fill:#1f77b4;stroke:#1f77b4;" x="614.466757" xlink:href="#mc80658a775" y="606.602512"/>
     <use style="fill:#1f77b4;stroke:#1f77b4;" x="615.388261" xlink:href="#mc80658a775" y="606.602512"/>
     <use style="fill:#1f77b4;stroke:#1f77b4;" x="618.152771" xlink:href="#mc80658a775" y="607.259414"/>
     <use style="fill:#1f77b4;stroke:#1f77b4;" x="622.760289" xlink:href="#mc80658a775" y="607.259414"/>
     <use style="fill:#1f77b4;stroke:#1f77b4;" x="628.28931" xlink:href="#mc80658a775" y="607.259414"/>
     <use style="fill:#1f77b4;stroke:#1f77b4;" x="631.053821" xlink:href="#mc80658a775" y="607.259414"/>
     <use style="fill:#1f77b4;stroke:#1f77b4;" x="632.896828" xlink:href="#mc80658a775" y="607.259414"/>
     <use style="fill:#1f77b4;stroke:#1f77b4;" x="633.818332" xlink:href="#mc80658a775" y="607.259414"/>
     <use style="fill:#1f77b4;stroke:#1f77b4;" x="637.504346" xlink:href="#mc80658a775" y="607.259414"/>
     <use style="fill:#1f77b4;stroke:#1f77b4;" x="642.111863" xlink:href="#mc80658a775" y="607.259414"/>
     <use style="fill:#1f77b4;stroke:#1f77b4;" x="643.954871" xlink:href="#mc80658a775" y="607.259414"/>
     <use style="fill:#1f77b4;stroke:#1f77b4;" x="661.463438" xlink:href="#mc80658a775" y="608.109522"/>
     <use style="fill:#1f77b4;stroke:#1f77b4;" x="675.285991" xlink:href="#mc80658a775" y="608.109522"/>
     <use style="fill:#1f77b4;stroke:#1f77b4;" x="676.207495" xlink:href="#mc80658a775" y="608.109522"/>
     <use style="fill:#1f77b4;stroke:#1f77b4;" x="689.108544" xlink:href="#mc80658a775" y="608.109522"/>
     <use style="fill:#1f77b4;stroke:#1f77b4;" x="691.873055" xlink:href="#mc80658a775" y="608.109522"/>
     <use style="fill:#1f77b4;stroke:#1f77b4;" x="694.637565" xlink:href="#mc80658a775" y="608.109522"/>
     <use style="fill:#1f77b4;stroke:#1f77b4;" x="698.323579" xlink:href="#mc80658a775" y="610.26749"/>
     <use style="fill:#1f77b4;stroke:#1f77b4;" x="701.08809" xlink:href="#mc80658a775" y="610.26749"/>
     <use style="fill:#1f77b4;stroke:#1f77b4;" x="708.460118" xlink:href="#mc80658a775" y="610.26749"/>
     <use style="fill:#1f77b4;stroke:#1f77b4;" x="711.224629" xlink:href="#mc80658a775" y="610.26749"/>
     <use style="fill:#1f77b4;stroke:#1f77b4;" x="712.146133" xlink:href="#mc80658a775" y="610.26749"/>
     <use style="fill:#1f77b4;stroke:#1f77b4;" x="718.596657" xlink:href="#mc80658a775" y="610.26749"/>
     <use style="fill:#1f77b4;stroke:#1f77b4;" x="724.125679" xlink:href="#mc80658a775" y="610.26749"/>
     <use style="fill:#1f77b4;stroke:#1f77b4;" x="732.419211" xlink:href="#mc80658a775" y="610.26749"/>
     <use style="fill:#1f77b4;stroke:#1f77b4;" x="737.026728" xlink:href="#mc80658a775" y="610.26749"/>
     <use style="fill:#1f77b4;stroke:#1f77b4;" x="737.948232" xlink:href="#mc80658a775" y="610.26749"/>
     <use style="fill:#1f77b4;stroke:#1f77b4;" x="738.869735" xlink:href="#mc80658a775" y="610.26749"/>
     <use style="fill:#1f77b4;stroke:#1f77b4;" x="749.006274" xlink:href="#mc80658a775" y="610.26749"/>
     <use style="fill:#1f77b4;stroke:#1f77b4;" x="751.770785" xlink:href="#mc80658a775" y="610.26749"/>
     <use style="fill:#1f77b4;stroke:#1f77b4;" x="762.828827" xlink:href="#mc80658a775" y="612.621636"/>
     <use style="fill:#1f77b4;stroke:#1f77b4;" x="765.593338" xlink:href="#mc80658a775" y="612.621636"/>
     <use style="fill:#1f77b4;stroke:#1f77b4;" x="784.023409" xlink:href="#mc80658a775" y="612.621636"/>
     <use style="fill:#1f77b4;stroke:#1f77b4;" x="814.433026" xlink:href="#mc80658a775" y="612.621636"/>
     <use style="fill:#1f77b4;stroke:#1f77b4;" x="862.35121" xlink:href="#mc80658a775" y="612.621636"/>
     <use style="fill:#1f77b4;stroke:#1f77b4;" x="901.054359" xlink:href="#mc80658a775" y="612.621636"/>
     <use style="fill:#1f77b4;stroke:#1f77b4;" x="918.562926" xlink:href="#mc80658a775" y="612.621636"/>
     <use style="fill:#1f77b4;stroke:#1f77b4;" x="932.385479" xlink:href="#mc80658a775" y="612.621636"/>
     <use style="fill:#1f77b4;stroke:#1f77b4;" x="1012.556287" xlink:href="#mc80658a775" y="612.621636"/>
     <use style="fill:#1f77b4;stroke:#1f77b4;" x="1016.242301" xlink:href="#mc80658a775" y="612.621636"/>
    </g>
   </g>
   <g id="line2d_36">
    <path clip-path="url(#pebf22b4ba8)" d="M 111.325824 73.134364 
L 113.168831 73.134364 
L 113.168831 73.428989 
L 115.011838 73.428989 
L 115.011838 73.57696 
L 115.933342 73.57696 
L 115.933342 73.725204 
L 120.540859 73.725204 
L 120.540859 73.874313 
L 121.462363 73.874313 
L 121.462363 74.321995 
L 122.383866 74.321995 
L 122.383866 74.47154 
L 123.30537 74.47154 
L 123.30537 74.621085 
L 124.226873 74.621085 
L 124.226873 75.219425 
L 125.148377 75.219425 
L 125.148377 76.717672 
L 126.069881 76.717672 
L 126.069881 78.367954 
L 126.991384 78.367954 
L 126.991384 80.618337 
L 127.912888 80.618337 
L 127.912888 84.373033 
L 128.834391 84.373033 
L 128.834391 92.947742 
L 129.755895 92.947742 
L 129.755895 107.844784 
L 130.677398 107.844784 
L 130.677398 125.605913 
L 131.598902 125.605913 
L 131.598902 138.11366 
L 132.520405 138.11366 
L 132.520405 152.13685 
L 133.441909 152.13685 
L 133.441909 158.924379 
L 134.363412 158.924379 
L 134.363412 168.731688 
L 135.284916 168.731688 
L 135.284916 180.21352 
L 136.206419 180.21352 
L 136.206419 188.97597 
L 137.127923 188.97597 
L 137.127923 202.577471 
L 138.049427 202.577471 
L 138.049427 213.492914 
L 138.97093 213.492914 
L 138.97093 221.244147 
L 139.892434 221.244147 
L 139.892434 226.41732 
L 140.813937 226.41732 
L 140.813937 231.449554 
L 141.735441 231.449554 
L 141.735441 235.57305 
L 142.656944 235.57305 
L 142.656944 241.688929 
L 143.578448 241.688929 
L 143.578448 245.362728 
L 144.499951 245.362728 
L 144.499951 248.591212 
L 145.421455 248.591212 
L 145.421455 250.747813 
L 146.342958 250.747813 
L 146.342958 252.910464 
L 147.264462 252.910464 
L 147.264462 255.239795 
L 148.185966 255.239795 
L 148.185966 259.122014 
L 149.107469 259.122014 
L 149.107469 263.780676 
L 150.028973 263.780676 
L 150.028973 269.52636 
L 150.950476 269.52636 
L 150.950476 275.133379 
L 151.87198 275.133379 
L 151.87198 278.568783 
L 152.793483 278.568783 
L 152.793483 282.00719 
L 153.714987 282.00719 
L 153.714987 285.289306 
L 154.63649 285.289306 
L 154.63649 292.187629 
L 155.557994 292.187629 
L 155.557994 296.577471 
L 156.479497 296.577471 
L 156.479497 302.85157 
L 157.401001 302.85157 
L 157.401001 306.776576 
L 158.322504 306.776576 
L 158.322504 309.132703 
L 159.244008 309.132703 
L 159.244008 312.12 
L 160.165512 312.12 
L 160.165512 314.167914 
L 161.087015 314.167914 
L 161.087015 318.429615 
L 162.008519 318.429615 
L 162.008519 322.533476 
L 162.930022 322.533476 
L 162.930022 330.425515 
L 163.851526 330.425515 
L 163.851526 335.172993 
L 164.773029 335.172993 
L 164.773029 338.978979 
L 165.694533 338.978979 
L 165.694533 341.682099 
L 166.616036 341.682099 
L 166.616036 345.668035 
L 167.53754 345.668035 
L 167.53754 353.010218 
L 168.459043 353.010218 
L 168.459043 360.675948 
L 169.380547 360.675948 
L 169.380547 368.181975 
L 170.30205 368.181975 
L 170.30205 373.778239 
L 171.223554 373.778239 
L 171.223554 376.503067 
L 172.145058 376.503067 
L 172.145058 380.352258 
L 173.066561 380.352258 
L 173.066561 384.859938 
L 173.988065 384.859938 
L 173.988065 389.212206 
L 174.909568 389.212206 
L 174.909568 393.080888 
L 175.831072 393.080888 
L 175.831072 396.949571 
L 176.752575 396.949571 
L 176.752575 402.595203 
L 177.674079 402.595203 
L 177.674079 405.186803 
L 178.595582 405.186803 
L 178.595582 408.426302 
L 179.517086 408.426302 
L 179.517086 413.136978 
L 180.438589 413.136978 
L 180.438589 416.073679 
L 181.360093 416.073679 
L 181.360093 419.49983 
L 182.281597 419.49983 
L 182.281597 425.210082 
L 183.2031 425.210082 
L 183.2031 429.458555 
L 184.124604 429.458555 
L 184.124604 432.900898 
L 185.046107 432.900898 
L 185.046107 435.0405 
L 185.967611 435.0405 
L 185.967611 437.348465 
L 186.889114 437.348465 
L 186.889114 440.98129 
L 187.810618 440.98129 
L 187.810618 442.799241 
L 188.732121 442.799241 
L 188.732121 445.608802 
L 189.653625 445.608802 
L 189.653625 449.57524 
L 190.575128 449.57524 
L 190.575128 451.560217 
L 191.496632 451.560217 
L 191.496632 453.051623 
L 192.418135 453.051623 
L 192.418135 456.205855 
L 193.339639 456.205855 
L 193.339639 458.530026 
L 194.261143 458.530026 
L 194.261143 462.846344 
L 195.182646 462.846344 
L 195.182646 466.498612 
L 196.10415 466.498612 
L 196.10415 468.328327 
L 197.025653 468.328327 
L 197.025653 469.662998 
L 197.947157 469.662998 
L 197.947157 470.667018 
L 198.86866 470.667018 
L 198.86866 473.194963 
L 199.790164 473.194963 
L 199.790164 475.219412 
L 200.711667 475.219412 
L 200.711667 477.24386 
L 201.633171 477.24386 
L 201.633171 479.774422 
L 202.554674 479.774422 
L 202.554674 481.969943 
L 203.476178 481.969943 
L 203.476178 482.985485 
L 204.397682 482.985485 
L 204.397682 484.679928 
L 205.319185 484.679928 
L 205.319185 486.383901 
L 206.240689 486.383901 
L 206.240689 487.748631 
L 207.162192 487.748631 
L 207.162192 490.648684 
L 208.083696 490.648684 
L 208.083696 492.69578 
L 209.005199 492.69578 
L 209.005199 494.060511 
L 209.926703 494.060511 
L 209.926703 494.915521 
L 210.848206 494.915521 
L 210.848206 495.773647 
L 211.76971 495.773647 
L 211.76971 496.805922 
L 212.691213 496.805922 
L 212.691213 498.703112 
L 213.612717 498.703112 
L 213.612717 500.082886 
L 214.53422 500.082886 
L 214.53422 502.669962 
L 215.455724 502.669962 
L 215.455724 504.055105 
L 216.377228 504.055105 
L 216.377228 505.096692 
L 217.298731 505.096692 
L 217.298731 506.4966 
L 218.220235 506.4966 
L 218.220235 507.904106 
L 219.141738 507.904106 
L 219.141738 510.194446 
L 220.063242 510.194446 
L 220.063242 511.958713 
L 220.984745 511.958713 
L 220.984745 513.722979 
L 221.906249 513.722979 
L 221.906249 515.487246 
L 222.827752 515.487246 
L 222.827752 516.016526 
L 223.749256 516.016526 
L 223.749256 516.193213 
L 224.670759 516.193213 
L 224.670759 516.369899 
L 225.592263 516.369899 
L 225.592263 517.078734 
L 226.513766 517.078734 
L 226.513766 517.610361 
L 227.43527 517.610361 
L 227.43527 519.205241 
L 228.356774 519.205241 
L 228.356774 519.736867 
L 229.278277 519.736867 
L 229.278277 520.804998 
L 230.199781 520.804998 
L 230.199781 521.699247 
L 231.121284 521.699247 
L 231.121284 522.597707 
L 232.042788 522.597707 
L 232.042788 523.137638 
L 232.964291 523.137638 
L 232.964291 524.399485 
L 233.885795 524.399485 
L 233.885795 525.661332 
L 234.807298 525.661332 
L 234.807298 528.004763 
L 235.728802 528.004763 
L 235.728802 528.545555 
L 236.650305 528.545555 
L 236.650305 529.086346 
L 237.571809 529.086346 
L 237.571809 530.354599 
L 238.493313 530.354599 
L 238.493313 531.079315 
L 239.414816 531.079315 
L 239.414816 532.709925 
L 240.33632 532.709925 
L 240.33632 533.796999 
L 241.257823 533.796999 
L 241.257823 534.523 
L 242.179327 534.523 
L 242.179327 535.254223 
L 243.10083 535.254223 
L 243.10083 535.621165 
L 244.022334 535.621165 
L 244.022334 536.174607 
L 244.943837 536.174607 
L 244.943837 536.359087 
L 245.865341 536.359087 
L 245.865341 537.28149 
L 246.786844 537.28149 
L 246.786844 538.203893 
L 247.708348 538.203893 
L 247.708348 539.312865 
L 248.629851 539.312865 
L 248.629851 539.68323 
L 249.551355 539.68323 
L 249.551355 540.053594 
L 250.472859 540.053594 
L 250.472859 540.795752 
L 251.394362 540.795752 
L 251.394362 541.166831 
L 252.315866 541.166831 
L 252.315866 542.465609 
L 253.237369 542.465609 
L 253.237369 543.393306 
L 254.158873 543.393306 
L 254.158873 544.694686 
L 255.080376 544.694686 
L 255.080376 544.880598 
L 256.00188 544.880598 
L 256.00188 545.067652 
L 256.923383 545.067652 
L 256.923383 545.818955 
L 257.844887 545.818955 
L 257.844887 546.76004 
L 258.76639 546.76004 
L 258.76639 547.32469 
L 259.687894 547.32469 
L 259.687894 547.701124 
L 260.609398 547.701124 
L 260.609398 548.835252 
L 261.530901 548.835252 
L 261.530901 549.214115 
L 263.373908 549.214115 
L 263.373908 549.784896 
L 264.295412 549.784896 
L 264.295412 550.547618 
L 265.216915 550.547618 
L 265.216915 550.738298 
L 266.138419 550.738298 
L 266.138419 551.119659 
L 267.059922 551.119659 
L 267.059922 551.311198 
L 267.981426 551.311198 
L 267.981426 552.271061 
L 268.902929 552.271061 
L 268.902929 552.656772 
L 269.824433 552.656772 
L 269.824433 553.625523 
L 270.745936 553.625523 
L 270.745936 554.404179 
L 271.66744 554.404179 
L 271.66744 555.572164 
L 272.588944 555.572164 
L 272.588944 555.961492 
L 273.510447 555.961492 
L 273.510447 556.548333 
L 274.431951 556.548333 
L 274.431951 556.744912 
L 275.353454 556.744912 
L 275.353454 557.142003 
L 276.274958 557.142003 
L 276.274958 557.5411 
L 277.196461 557.5411 
L 277.196461 557.740648 
L 279.039468 557.740648 
L 279.039468 558.738389 
L 279.960972 558.738389 
L 279.960972 559.137486 
L 280.882475 559.137486 
L 280.882475 559.337034 
L 282.725482 559.337034 
L 282.725482 559.73717 
L 283.646986 559.73717 
L 283.646986 560.541653 
L 285.489993 560.541653 
L 285.489993 561.146625 
L 286.411497 561.146625 
L 286.411497 561.349372 
L 287.333 561.349372 
L 287.333 561.552119 
L 288.254504 561.552119 
L 288.254504 561.755419 
L 289.176007 561.755419 
L 289.176007 562.164252 
L 291.019014 562.164252 
L 291.019014 562.576502 
L 291.940518 562.576502 
L 291.940518 562.988752 
L 292.862021 562.988752 
L 292.862021 564.025216 
L 293.783525 564.025216 
L 293.783525 564.232509 
L 294.705029 564.232509 
L 294.705029 564.439801 
L 295.626532 564.439801 
L 295.626532 564.854387 
L 296.548036 564.854387 
L 296.548036 565.062892 
L 297.469539 565.062892 
L 297.469539 565.27201 
L 298.391043 565.27201 
L 298.391043 565.481128 
L 299.312546 565.481128 
L 299.312546 565.691491 
L 301.155553 565.691491 
L 301.155553 566.114744 
L 302.077057 566.114744 
L 302.077057 566.327012 
L 302.99856 566.327012 
L 302.99856 566.751548 
L 303.920064 566.751548 
L 303.920064 567.176083 
L 304.841567 567.176083 
L 304.841567 567.812886 
L 305.763071 567.812886 
L 305.763071 568.664602 
L 308.527582 568.664602 
L 308.527582 569.094529 
L 309.449085 569.094529 
L 309.449085 569.525838 
L 310.370589 569.525838 
L 310.370589 570.172802 
L 311.292092 570.172802 
L 311.292092 570.388457 
L 312.213596 570.388457 
L 312.213596 571.253912 
L 313.135099 571.253912 
L 313.135099 571.470276 
L 314.056603 571.470276 
L 314.056603 571.903004 
L 314.978106 571.903004 
L 314.978106 572.120099 
L 316.821114 572.120099 
L 316.821114 572.771384 
L 317.742617 572.771384 
L 317.742617 572.988479 
L 318.664121 572.988479 
L 318.664121 573.424166 
L 320.507128 573.424166 
L 320.507128 573.643533 
L 325.114645 573.643533 
L 325.114645 574.085367 
L 326.036149 574.085367 
L 326.036149 574.53197 
L 328.80066 574.53197 
L 328.80066 575.214233 
L 329.722163 575.214233 
L 329.722163 575.441654 
L 330.643667 575.441654 
L 330.643667 575.669075 
L 331.56517 575.669075 
L 331.56517 575.896497 
L 332.486674 575.896497 
L 332.486674 576.124779 
L 334.329681 576.124779 
L 334.329681 576.354811 
L 335.251184 576.354811 
L 335.251184 576.585731 
L 337.094191 576.585731 
L 337.094191 577.049368 
L 338.015695 577.049368 
L 338.015695 578.445756 
L 340.780206 578.445756 
L 340.780206 578.682302 
L 341.701709 578.682302 
L 341.701709 579.15735 
L 345.387723 579.15735 
L 345.387723 579.63639 
L 348.152234 579.63639 
L 348.152234 580.130073 
L 349.995241 580.130073 
L 349.995241 580.376915 
L 350.916745 580.376915 
L 350.916745 580.624853 
L 352.759752 580.624853 
L 352.759752 580.872792 
L 353.681255 580.872792 
L 353.681255 581.122974 
L 355.524262 581.122974 
L 355.524262 581.37779 
L 356.445766 581.37779 
L 356.445766 581.889802 
L 358.288773 581.889802 
L 358.288773 582.147021 
L 359.210276 582.147021 
L 359.210276 582.405471 
L 361.974787 582.405471 
L 361.974787 582.667704 
L 366.582305 582.667704 
L 366.582305 583.47824 
L 369.346815 583.47824 
L 369.346815 583.749812 
L 374.875837 583.749812 
L 374.875837 584.036223 
L 378.561851 584.036223 
L 378.561851 584.612211 
L 380.404858 584.612211 
L 380.404858 584.901822 
L 385.933879 584.901822 
L 385.933879 585.196427 
L 388.69839 585.196427 
L 388.69839 585.492745 
L 390.541397 585.492745 
L 390.541397 585.789063 
L 392.384404 585.789063 
L 392.384404 586.087134 
L 398.834929 586.087134 
L 398.834929 586.390625 
L 408.049964 586.390625 
L 408.049964 587.008917 
L 408.971468 587.008917 
L 408.971468 587.627208 
L 416.343496 587.627208 
L 416.343496 588.265838 
L 420.951014 588.265838 
L 420.951014 588.587297 
L 427.401538 588.587297 
L 427.401538 588.908755 
L 428.323042 588.908755 
L 428.323042 589.232415 
L 429.244546 589.232415 
L 429.244546 589.560601 
L 430.166049 589.560601 
L 430.166049 589.891115 
L 431.087553 589.891115 
L 431.087553 590.882658 
L 432.93056 590.882658 
L 432.93056 591.213172 
L 434.773567 591.213172 
L 434.773567 591.543686 
L 445.831609 591.543686 
L 445.831609 591.886913 
L 451.36063 591.886913 
L 451.36063 592.584175 
L 452.282134 592.584175 
L 452.282134 592.935618 
L 454.125141 592.935618 
L 454.125141 593.287061 
L 465.183184 593.287061 
L 465.183184 593.653523 
L 466.104687 593.653523 
L 466.104687 594.019985 
L 469.790701 594.019985 
L 469.790701 594.386447 
L 473.476715 594.386447 
L 473.476715 594.752909 
L 477.16273 594.752909 
L 477.16273 595.122643 
L 483.613254 595.122643 
L 483.613254 595.509817 
L 485.456262 595.509817 
L 485.456262 595.896991 
L 492.82829 595.896991 
L 492.82829 596.291757 
L 493.749793 596.291757 
L 493.749793 596.686522 
L 503.886332 596.686522 
L 503.886332 597.484029 
L 513.101368 597.484029 
L 513.101368 597.895509 
L 520.473396 597.895509 
L 520.473396 598.325482 
L 526.923921 598.325482 
L 526.923921 598.760397 
L 529.688431 598.760397 
L 529.688431 599.200429 
L 540.746474 599.200429 
L 540.746474 599.656758 
L 543.510985 599.656758 
L 543.510985 600.118863 
L 558.255041 600.118863 
L 558.255041 600.605948 
L 564.705566 600.605948 
L 564.705566 601.106753 
L 570.234587 601.106753 
L 570.234587 601.607558 
L 574.842105 601.607558 
L 574.842105 602.115727 
L 577.606616 602.115727 
L 577.606616 602.623897 
L 580.371126 602.623897 
L 580.371126 603.147947 
L 581.29263 603.147947 
L 581.29263 603.671997 
L 589.586162 603.671997 
L 589.586162 604.232189 
L 590.507665 604.232189 
L 590.507665 604.802384 
L 595.115183 604.802384 
L 595.115183 605.383138 
L 603.408715 605.383138 
L 603.408715 605.986666 
L 608.016232 605.986666 
L 608.016232 606.602512 
L 617.231268 606.602512 
L 617.231268 607.259414 
L 648.562388 607.259414 
L 648.562388 608.109522 
L 697.402076 608.109522 
L 697.402076 610.26749 
L 757.299806 610.26749 
L 757.299806 612.621636 
L 1016.242301 612.621636 
L 1016.242301 612.621636 
" style="fill:none;stroke:#1f77b4;stroke-linecap:square;stroke-width:2.5;"/>
   </g>
   <g id="patch_3">
    <path d="M 66.08 639.596 
L 66.08 46.16 
" style="fill:none;stroke:#000000;stroke-linecap:square;stroke-linejoin:miter;stroke-width:0.8;"/>
   </g>
   <g id="patch_4">
    <path d="M 66.08 639.596 
L 1061.488125 639.596 
" style="fill:none;stroke:#000000;stroke-linecap:square;stroke-linejoin:miter;stroke-width:0.8;"/>
   </g>
   <g id="text_20">
    <!-- Time From Submission to Posting of Results on ClinicalTrials.gov for Applicable Trials -->
    <defs>
     <path d="M -0.296875 72.90625 
L 61.375 72.90625 
L 61.375 64.59375 
L 35.5 64.59375 
L 35.5 0 
L 25.59375 0 
L 25.59375 64.59375 
L -0.296875 64.59375 
z
" id="DejaVuSans-84"/>
     <path d="M 45.40625 27.984375 
Q 45.40625 37.75 41.375 43.109375 
Q 37.359375 48.484375 30.078125 48.484375 
Q 22.859375 48.484375 18.828125 43.109375 
Q 14.796875 37.75 14.796875 27.984375 
Q 14.796875 18.265625 18.828125 12.890625 
Q 22.859375 7.515625 30.078125 7.515625 
Q 37.359375 7.515625 41.375 12.890625 
Q 45.40625 18.265625 45.40625 27.984375 
z
M 54.390625 6.78125 
Q 54.390625 -7.171875 48.1875 -13.984375 
Q 42 -20.796875 29.203125 -20.796875 
Q 24.46875 -20.796875 20.265625 -20.09375 
Q 16.0625 -19.390625 12.109375 -17.921875 
L 12.109375 -9.1875 
Q 16.0625 -11.328125 19.921875 -12.34375 
Q 23.78125 -13.375 27.78125 -13.375 
Q 36.625 -13.375 41.015625 -8.765625 
Q 45.40625 -4.15625 45.40625 5.171875 
L 45.40625 9.625 
Q 42.625 4.78125 38.28125 2.390625 
Q 33.9375 0 27.875 0 
Q 17.828125 0 11.671875 7.65625 
Q 5.515625 15.328125 5.515625 27.984375 
Q 5.515625 40.671875 11.671875 48.328125 
Q 17.828125 56 27.875 56 
Q 33.9375 56 38.28125 53.609375 
Q 42.625 51.21875 45.40625 46.390625 
L 45.40625 54.6875 
L 54.390625 54.6875 
z
" id="DejaVuSans-103"/>
     <path d="M 37.109375 75.984375 
L 37.109375 68.5 
L 28.515625 68.5 
Q 23.6875 68.5 21.796875 66.546875 
Q 19.921875 64.59375 19.921875 59.515625 
L 19.921875 54.6875 
L 34.71875 54.6875 
L 34.71875 47.703125 
L 19.921875 47.703125 
L 19.921875 0 
L 10.890625 0 
L 10.890625 47.703125 
L 2.296875 47.703125 
L 2.296875 54.6875 
L 10.890625 54.6875 
L 10.890625 58.5 
Q 10.890625 67.625 15.140625 71.796875 
Q 19.390625 75.984375 28.609375 75.984375 
z
" id="DejaVuSans-102"/>
     <path d="M 44.390625 34.1875 
Q 47.5625 33.109375 50.5625 29.59375 
Q 53.5625 26.078125 56.59375 19.921875 
L 66.609375 0 
L 56 0 
L 46.6875 18.703125 
Q 43.0625 26.03125 39.671875 28.421875 
Q 36.28125 30.8125 30.421875 30.8125 
L 19.671875 30.8125 
L 19.671875 0 
L 9.8125 0 
L 9.8125 72.90625 
L 32.078125 72.90625 
Q 44.578125 72.90625 50.734375 67.671875 
Q 56.890625 62.453125 56.890625 51.90625 
Q 56.890625 45.015625 53.6875 40.46875 
Q 50.484375 35.9375 44.390625 34.1875 
z
M 19.671875 64.796875 
L 19.671875 38.921875 
L 32.078125 38.921875 
Q 39.203125 38.921875 42.84375 42.21875 
Q 46.484375 45.515625 46.484375 51.90625 
Q 46.484375 58.296875 42.84375 61.546875 
Q 39.203125 64.796875 32.078125 64.796875 
z
" id="DejaVuSans-82"/>
     <path d="M 9.421875 75.984375 
L 18.40625 75.984375 
L 18.40625 0 
L 9.421875 0 
z
" id="DejaVuSans-108"/>
     <path d="M 64.40625 67.28125 
L 64.40625 56.890625 
Q 59.421875 61.53125 53.78125 63.8125 
Q 48.140625 66.109375 41.796875 66.109375 
Q 29.296875 66.109375 22.65625 58.46875 
Q 16.015625 50.828125 16.015625 36.375 
Q 16.015625 21.96875 22.65625 14.328125 
Q 29.296875 6.6875 41.796875 6.6875 
Q 48.140625 6.6875 53.78125 8.984375 
Q 59.421875 11.28125 64.40625 15.921875 
L 64.40625 5.609375 
Q 59.234375 2.09375 53.4375 0.328125 
Q 47.65625 -1.421875 41.21875 -1.421875 
Q 24.65625 -1.421875 15.125 8.703125 
Q 5.609375 18.84375 5.609375 36.375 
Q 5.609375 53.953125 15.125 64.078125 
Q 24.65625 74.21875 41.21875 74.21875 
Q 47.75 74.21875 53.53125 72.484375 
Q 59.328125 70.75 64.40625 67.28125 
z
" id="DejaVuSans-67"/>
     <path d="M 48.78125 52.59375 
L 48.78125 44.1875 
Q 44.96875 46.296875 41.140625 47.34375 
Q 37.3125 48.390625 33.40625 48.390625 
Q 24.65625 48.390625 19.8125 42.84375 
Q 14.984375 37.3125 14.984375 27.296875 
Q 14.984375 17.28125 19.8125 11.734375 
Q 24.65625 6.203125 33.40625 6.203125 
Q 37.3125 6.203125 41.140625 7.25 
Q 44.96875 8.296875 48.78125 10.40625 
L 48.78125 2.09375 
Q 45.015625 0.34375 40.984375 -0.53125 
Q 36.96875 -1.421875 32.421875 -1.421875 
Q 20.0625 -1.421875 12.78125 6.34375 
Q 5.515625 14.109375 5.515625 27.296875 
Q 5.515625 40.671875 12.859375 48.328125 
Q 20.21875 56 33.015625 56 
Q 37.15625 56 41.109375 55.140625 
Q 45.0625 54.296875 48.78125 52.59375 
z
" id="DejaVuSans-99"/>
     <path d="M 2.984375 54.6875 
L 12.5 54.6875 
L 29.59375 8.796875 
L 46.6875 54.6875 
L 56.203125 54.6875 
L 35.6875 0 
L 23.484375 0 
z
" id="DejaVuSans-118"/>
     <path d="M 34.1875 63.1875 
L 20.796875 26.90625 
L 47.609375 26.90625 
z
M 28.609375 72.90625 
L 39.796875 72.90625 
L 67.578125 0 
L 57.328125 0 
L 50.6875 18.703125 
L 17.828125 18.703125 
L 11.1875 0 
L 0.78125 0 
z
" id="DejaVuSans-65"/>
    </defs>
    <g transform="translate(138.159063 26.16)scale(0.2 -0.2)">
     <use xlink:href="#DejaVuSans-84"/>
     <use x="61.037109" xlink:href="#DejaVuSans-105"/>
     <use x="88.820312" xlink:href="#DejaVuSans-109"/>
     <use x="186.232422" xlink:href="#DejaVuSans-101"/>
     <use x="247.755859" xlink:href="#DejaVuSans-32"/>
     <use x="279.542969" xlink:href="#DejaVuSans-70"/>
     <use x="336.953125" xlink:href="#DejaVuSans-114"/>
     <use x="378.035156" xlink:href="#DejaVuSans-111"/>
     <use x="439.216797" xlink:href="#DejaVuSans-109"/>
     <use x="536.628906" xlink:href="#DejaVuSans-32"/>
     <use x="568.416016" xlink:href="#DejaVuSans-83"/>
     <use x="631.892578" xlink:href="#DejaVuSans-117"/>
     <use x="695.271484" xlink:href="#DejaVuSans-98"/>
     <use x="758.748047" xlink:href="#DejaVuSans-109"/>
     <use x="856.160156" xlink:href="#DejaVuSans-105"/>
     <use x="883.943359" xlink:href="#DejaVuSans-115"/>
     <use x="936.042969" xlink:href="#DejaVuSans-115"/>
     <use x="988.142578" xlink:href="#DejaVuSans-105"/>
     <use x="1015.925781" xlink:href="#DejaVuSans-111"/>
     <use x="1077.107422" xlink:href="#DejaVuSans-110"/>
     <use x="1140.486328" xlink:href="#DejaVuSans-32"/>
     <use x="1172.273438" xlink:href="#DejaVuSans-116"/>
     <use x="1211.482422" xlink:href="#DejaVuSans-111"/>
     <use x="1272.664062" xlink:href="#DejaVuSans-32"/>
     <use x="1304.451172" xlink:href="#DejaVuSans-80"/>
     <use x="1364.707031" xlink:href="#DejaVuSans-111"/>
     <use x="1425.888672" xlink:href="#DejaVuSans-115"/>
     <use x="1477.988281" xlink:href="#DejaVuSans-116"/>
     <use x="1517.197266" xlink:href="#DejaVuSans-105"/>
     <use x="1544.980469" xlink:href="#DejaVuSans-110"/>
     <use x="1608.359375" xlink:href="#DejaVuSans-103"/>
     <use x="1671.835938" xlink:href="#DejaVuSans-32"/>
     <use x="1703.623047" xlink:href="#DejaVuSans-111"/>
     <use x="1764.804688" xlink:href="#DejaVuSans-102"/>
     <use x="1800.009766" xlink:href="#DejaVuSans-32"/>
     <use x="1831.796875" xlink:href="#DejaVuSans-82"/>
     <use x="1901.216797" xlink:href="#DejaVuSans-101"/>
     <use x="1962.740234" xlink:href="#DejaVuSans-115"/>
     <use x="2014.839844" xlink:href="#DejaVuSans-117"/>
     <use x="2078.21875" xlink:href="#DejaVuSans-108"/>
     <use x="2106.001953" xlink:href="#DejaVuSans-116"/>
     <use x="2145.210938" xlink:href="#DejaVuSans-115"/>
     <use x="2197.310547" xlink:href="#DejaVuSans-32"/>
     <use x="2229.097656" xlink:href="#DejaVuSans-111"/>
     <use x="2290.279297" xlink:href="#DejaVuSans-110"/>
     <use x="2353.658203" xlink:href="#DejaVuSans-32"/>
     <use x="2385.445312" xlink:href="#DejaVuSans-67"/>
     <use x="2455.269531" xlink:href="#DejaVuSans-108"/>
     <use x="2483.052734" xlink:href="#DejaVuSans-105"/>
     <use x="2510.835938" xlink:href="#DejaVuSans-110"/>
     <use x="2574.214844" xlink:href="#DejaVuSans-105"/>
     <use x="2601.998047" xlink:href="#DejaVuSans-99"/>
     <use x="2656.978516" xlink:href="#DejaVuSans-97"/>
     <use x="2718.257812" xlink:href="#DejaVuSans-108"/>
     <use x="2746.041016" xlink:href="#DejaVuSans-84"/>
     <use x="2806.90625" xlink:href="#DejaVuSans-114"/>
     <use x="2848.019531" xlink:href="#DejaVuSans-105"/>
     <use x="2875.802734" xlink:href="#DejaVuSans-97"/>
     <use x="2937.082031" xlink:href="#DejaVuSans-108"/>
     <use x="2964.865234" xlink:href="#DejaVuSans-115"/>
     <use x="3016.964844" xlink:href="#DejaVuSans-46"/>
     <use x="3048.751953" xlink:href="#DejaVuSans-103"/>
     <use x="3112.228516" xlink:href="#DejaVuSans-111"/>
     <use x="3173.410156" xlink:href="#DejaVuSans-118"/>
     <use x="3232.589844" xlink:href="#DejaVuSans-32"/>
     <use x="3264.376953" xlink:href="#DejaVuSans-102"/>
     <use x="3299.582031" xlink:href="#DejaVuSans-111"/>
     <use x="3360.763672" xlink:href="#DejaVuSans-114"/>
     <use x="3401.876953" xlink:href="#DejaVuSans-32"/>
     <use x="3433.664062" xlink:href="#DejaVuSans-65"/>
     <use x="3502.072266" xlink:href="#DejaVuSans-112"/>
     <use x="3565.548828" xlink:href="#DejaVuSans-112"/>
     <use x="3629.025391" xlink:href="#DejaVuSans-108"/>
     <use x="3656.808594" xlink:href="#DejaVuSans-105"/>
     <use x="3684.591797" xlink:href="#DejaVuSans-99"/>
     <use x="3739.572266" xlink:href="#DejaVuSans-97"/>
     <use x="3800.851562" xlink:href="#DejaVuSans-98"/>
     <use x="3864.328125" xlink:href="#DejaVuSans-108"/>
     <use x="3892.111328" xlink:href="#DejaVuSans-101"/>
     <use x="3953.634766" xlink:href="#DejaVuSans-32"/>
     <use x="3985.421875" xlink:href="#DejaVuSans-84"/>
     <use x="4046.287109" xlink:href="#DejaVuSans-114"/>
     <use x="4087.400391" xlink:href="#DejaVuSans-105"/>
     <use x="4115.183594" xlink:href="#DejaVuSans-97"/>
     <use x="4176.462891" xlink:href="#DejaVuSans-108"/>
     <use x="4204.246094" xlink:href="#DejaVuSans-115"/>
    </g>
   </g>
  </g>
  <g id="axes_2">
   <g id="matplotlib.axis_3">
    <g id="xtick_7">
     <g id="text_21">
      <!-- 3822 -->
      <g transform="translate(93.510824 710.643053)scale(0.14 -0.14)">
       <use xlink:href="#DejaVuSans-51"/>
       <use x="63.623047" xlink:href="#DejaVuSans-56"/>
       <use x="127.246094" xlink:href="#DejaVuSans-50"/>
       <use x="190.869141" xlink:href="#DejaVuSans-50"/>
      </g>
     </g>
    </g>
    <g id="xtick_8">
     <g id="text_22">
      <!-- 346 -->
      <g transform="translate(282.265282 710.643053)scale(0.14 -0.14)">
       <use xlink:href="#DejaVuSans-51"/>
       <use x="63.623047" xlink:href="#DejaVuSans-52"/>
       <use x="127.246094" xlink:href="#DejaVuSans-54"/>
      </g>
     </g>
    </g>
    <g id="xtick_9">
     <g id="text_23">
      <!-- 110 -->
      <g transform="translate(466.56599 710.643053)scale(0.14 -0.14)">
       <use xlink:href="#DejaVuSans-49"/>
       <use x="63.623047" xlink:href="#DejaVuSans-49"/>
       <use x="127.246094" xlink:href="#DejaVuSans-48"/>
      </g>
     </g>
    </g>
    <g id="xtick_10">
     <g id="text_24">
      <!-- 32 -->
      <g transform="translate(655.320448 710.643053)scale(0.14 -0.14)">
       <use xlink:href="#DejaVuSans-51"/>
       <use x="63.623047" xlink:href="#DejaVuSans-50"/>
      </g>
     </g>
    </g>
    <g id="xtick_11">
     <g id="text_25">
      <!-- 6 -->
      <g transform="translate(844.074907 710.643053)scale(0.14 -0.14)">
       <use xlink:href="#DejaVuSans-54"/>
      </g>
     </g>
    </g>
    <g id="xtick_12">
     <g id="text_26">
      <!-- 0 -->
      <g transform="translate(1028.375615 710.643053)scale(0.14 -0.14)">
       <use xlink:href="#DejaVuSans-48"/>
      </g>
     </g>
    </g>
    <g id="text_27">
     <!-- At risk -->
     <defs>
      <path d="M 9.078125 75.984375 
L 18.109375 75.984375 
L 18.109375 31.109375 
L 44.921875 54.6875 
L 56.390625 54.6875 
L 27.390625 29.109375 
L 57.625 0 
L 45.90625 0 
L 18.109375 26.703125 
L 18.109375 0 
L 9.078125 0 
z
" id="DejaVuSans-107"/>
     </defs>
     <g transform="translate(43.801406 693.00524)scale(0.14 -0.14)">
      <use xlink:href="#DejaVuSans-65"/>
      <use x="68.392578" xlink:href="#DejaVuSans-116"/>
      <use x="107.601562" xlink:href="#DejaVuSans-32"/>
      <use x="139.388672" xlink:href="#DejaVuSans-114"/>
      <use x="180.501953" xlink:href="#DejaVuSans-105"/>
      <use x="208.285156" xlink:href="#DejaVuSans-115"/>
      <use x="260.384766" xlink:href="#DejaVuSans-107"/>
     </g>
    </g>
   </g>
  </g>
 </g>
 <defs>
  <clipPath id="pebf22b4ba8">
   <rect height="593.436" width="995.408125" x="66.08" y="46.16"/>
  </clipPath>
 </defs>
</svg>
